<svg width="778" height="283" viewBox="0 0 778 283" fill="none" xmlns="http://www.w3.org/2000/svg">
<mask id="path-1-outside-1_258_208" maskUnits="userSpaceOnUse" x="-1" y="0" width="779" height="281" fill="black">
<rect fill="white" x="-1" width="779" height="281"/>
<path d="M177.703 245.796L75.214 276.102L78.5201 259.847L16.5305 271.969L37.4692 257.918L38.2958 151.847C26.5407 149.276 18.5509 146.062 14.3265 142.204C4.77549 133.572 0 126.133 0 119.888C0 118.051 0.551018 116.398 1.65305 114.929C6.61222 110.154 18.1836 108.041 36.3672 108.592C31.959 109.694 28.1938 111.623 25.0713 114.378C21.5815 117.868 19.8366 119.98 19.8366 120.715C19.8366 121.817 21.306 123.011 24.2448 124.296C26.4489 125.215 31.1325 126.225 38.2958 127.327V122.092L31.1325 7.75602L29.204 0.592795L78.2446 1.69482L79.0711 17.9499C114.52 14.6437 136.652 13.4499 145.469 14.3682L165.856 3.62339L166.683 40.5416L141.887 31.4498L83.2037 39.9906L78.2446 130.633C83.2037 130.633 86.7853 130.449 88.9894 130.082C97.2547 128.429 111.948 123.929 133.071 116.582C139.867 114.562 147.765 113.551 156.765 113.551C160.071 113.551 163.377 113.735 166.683 114.103C143.724 122.735 125.081 132.194 110.755 142.48C106.53 145.786 100.928 148.082 93.9486 149.368C88.6221 150.286 83.2956 151.113 77.9691 151.847L78.5201 231.194L175.224 226.786L177.703 245.796ZM323.318 73.6027L308.165 101.705L256.921 247.173L190.523 114.378L170.135 89.0312L223.86 76.0823L216.145 106.664L254.441 186.01L285.023 104.184L267.115 73.6027H323.318ZM429.598 157.908L414.996 155.704L397.915 151.847L373.394 143.306C371.741 163.327 370.915 180.041 370.915 193.449C370.915 203.735 371.374 211.082 372.292 215.49C375.047 226.51 378.629 232.02 383.037 232.02C384.507 232.02 386.068 231.286 387.721 229.816C389.558 228.531 391.394 226.143 393.231 222.653C397.455 214.204 401.864 201.623 406.455 184.908C416.557 195.01 421.608 201.623 421.608 204.745C421.241 206.031 418.578 210.439 413.619 217.969C400.211 235.418 391.302 245.153 386.894 247.173C382.853 247.724 376.333 246.898 367.333 244.694L333.17 208.051L338.129 106.664C353.19 91.6026 367.792 81.0414 381.935 74.9802C384.507 74.0619 387.078 73.6027 389.649 73.6027C396.262 73.6027 403.241 76.7251 410.588 82.97C414.813 87.1945 419.129 91.4189 423.537 95.6434C427.578 101.705 429.598 122.46 429.598 157.908ZM396.537 133.664C395.251 127.051 392.864 117.317 389.374 104.46C388.823 102.439 387.537 100.052 385.517 97.2964C383.496 94.3577 381.66 92.8883 380.007 92.8883C378.17 92.8883 376.792 94.6332 375.874 98.123C373.486 108.041 372.292 119.062 372.292 131.184L396.537 133.664ZM574.516 164.521C575.067 165.99 575.342 168.286 575.342 171.408C575.342 180.408 572.679 197.949 567.353 224.031C562.21 250.112 559.638 264.071 559.638 265.908C559.638 267.928 561.659 272.704 565.7 280.234L516.659 278.306C517.761 278.122 519.047 277.479 520.516 276.377C524.006 273.99 528.139 269.857 532.914 263.979L541.73 191.796C542.281 187.572 542.557 183.714 542.557 180.225C542.557 165.531 538.332 158.184 529.883 158.184C528.23 158.184 526.761 158.459 525.475 159.01C515.924 162.133 503.802 167.551 489.108 175.266L481.945 259.847C489.108 271.234 494.526 277.388 498.2 278.306L430.7 280.234C425.741 281.887 431.159 275.092 446.955 259.847L461.282 151.021L432.904 164.796C449.067 147.715 461.465 134.306 470.098 124.572C475.608 119.245 481.21 113.276 486.904 106.664L489.935 149.368L538.975 126.225C540.445 125.307 542.006 124.847 543.659 124.847C549.169 124.847 555.23 129.99 561.843 140.276C566.618 147.439 570.842 155.521 574.516 164.521ZM486.904 112.174C486.904 111.807 486.904 111.531 486.904 111.347V112.174ZM681.405 237.255L678.925 247.724L647.793 276.102L590.762 240.837V118.786L572.028 116.307C595.354 88.9393 607.936 69.47 609.772 57.8987C611.793 54.5926 613.997 49.7252 616.385 43.2967V41.9191C616.568 42.2865 616.568 42.7457 616.385 43.2967L619.966 101.154H648.344L647.242 122.368H621.068L623.272 239.459C634.293 249.745 641.823 254.979 645.864 255.163C646.415 256.265 647.242 256.816 648.344 256.816C650.731 256.816 653.854 254.153 657.711 248.826L637.599 238.357L681.405 237.255ZM773.681 205.571L714.998 249.928C699.385 224.214 692.13 208.878 693.232 203.918C694.518 202.449 705.447 196.204 726.018 185.184L729.324 189.867C722.344 192.99 718.12 197.674 716.651 203.918C716.1 205.755 715.824 207.592 715.824 209.429C715.824 217.143 718.855 221.459 724.916 222.378C731.161 223.112 737.773 214.112 744.753 195.378C745.671 192.623 746.13 189.5 746.13 186.01C746.13 181.051 745.12 176.276 743.099 171.684L698.467 179.123C694.794 170.123 692.038 161.031 690.202 151.847C689.283 142.48 690.202 133.572 692.957 125.123L748.059 76.3578C765.691 100.786 774.14 115.48 773.405 120.439C772.303 122.092 761.926 129.256 742.273 141.929L738.691 137.245C741.814 134.306 743.926 131.276 745.028 128.153C746.13 124.847 746.681 121.266 746.681 117.409C746.681 109.143 744.569 104.919 740.344 104.735C736.487 104.552 732.446 106.388 728.222 110.245C723.814 114.654 721.151 119.796 720.232 125.674C720.232 126.041 719.406 130.909 717.753 140.276C716.467 147.255 715.916 151.48 716.1 152.949C731.712 152.398 742.365 152.582 748.059 153.5C760.732 156.439 768.997 160.939 772.854 167C775.793 172.143 777.263 178.48 777.263 186.01C777.263 192.439 776.069 198.959 773.681 205.571Z"/>
</mask>
<path d="M177.703 245.796L75.214 276.102L78.5201 259.847L16.5305 271.969L37.4692 257.918L38.2958 151.847C26.5407 149.276 18.5509 146.062 14.3265 142.204C4.77549 133.572 0 126.133 0 119.888C0 118.051 0.551018 116.398 1.65305 114.929C6.61222 110.154 18.1836 108.041 36.3672 108.592C31.959 109.694 28.1938 111.623 25.0713 114.378C21.5815 117.868 19.8366 119.98 19.8366 120.715C19.8366 121.817 21.306 123.011 24.2448 124.296C26.4489 125.215 31.1325 126.225 38.2958 127.327V122.092L31.1325 7.75602L29.204 0.592795L78.2446 1.69482L79.0711 17.9499C114.52 14.6437 136.652 13.4499 145.469 14.3682L165.856 3.62339L166.683 40.5416L141.887 31.4498L83.2037 39.9906L78.2446 130.633C83.2037 130.633 86.7853 130.449 88.9894 130.082C97.2547 128.429 111.948 123.929 133.071 116.582C139.867 114.562 147.765 113.551 156.765 113.551C160.071 113.551 163.377 113.735 166.683 114.103C143.724 122.735 125.081 132.194 110.755 142.48C106.53 145.786 100.928 148.082 93.9486 149.368C88.6221 150.286 83.2956 151.113 77.9691 151.847L78.5201 231.194L175.224 226.786L177.703 245.796ZM323.318 73.6027L308.165 101.705L256.921 247.173L190.523 114.378L170.135 89.0312L223.86 76.0823L216.145 106.664L254.441 186.01L285.023 104.184L267.115 73.6027H323.318ZM429.598 157.908L414.996 155.704L397.915 151.847L373.394 143.306C371.741 163.327 370.915 180.041 370.915 193.449C370.915 203.735 371.374 211.082 372.292 215.49C375.047 226.51 378.629 232.02 383.037 232.02C384.507 232.02 386.068 231.286 387.721 229.816C389.558 228.531 391.394 226.143 393.231 222.653C397.455 214.204 401.864 201.623 406.455 184.908C416.557 195.01 421.608 201.623 421.608 204.745C421.241 206.031 418.578 210.439 413.619 217.969C400.211 235.418 391.302 245.153 386.894 247.173C382.853 247.724 376.333 246.898 367.333 244.694L333.17 208.051L338.129 106.664C353.19 91.6026 367.792 81.0414 381.935 74.9802C384.507 74.0619 387.078 73.6027 389.649 73.6027C396.262 73.6027 403.241 76.7251 410.588 82.97C414.813 87.1945 419.129 91.4189 423.537 95.6434C427.578 101.705 429.598 122.46 429.598 157.908ZM396.537 133.664C395.251 127.051 392.864 117.317 389.374 104.46C388.823 102.439 387.537 100.052 385.517 97.2964C383.496 94.3577 381.66 92.8883 380.007 92.8883C378.17 92.8883 376.792 94.6332 375.874 98.123C373.486 108.041 372.292 119.062 372.292 131.184L396.537 133.664ZM574.516 164.521C575.067 165.99 575.342 168.286 575.342 171.408C575.342 180.408 572.679 197.949 567.353 224.031C562.21 250.112 559.638 264.071 559.638 265.908C559.638 267.928 561.659 272.704 565.7 280.234L516.659 278.306C517.761 278.122 519.047 277.479 520.516 276.377C524.006 273.99 528.139 269.857 532.914 263.979L541.73 191.796C542.281 187.572 542.557 183.714 542.557 180.225C542.557 165.531 538.332 158.184 529.883 158.184C528.23 158.184 526.761 158.459 525.475 159.01C515.924 162.133 503.802 167.551 489.108 175.266L481.945 259.847C489.108 271.234 494.526 277.388 498.2 278.306L430.7 280.234C425.741 281.887 431.159 275.092 446.955 259.847L461.282 151.021L432.904 164.796C449.067 147.715 461.465 134.306 470.098 124.572C475.608 119.245 481.21 113.276 486.904 106.664L489.935 149.368L538.975 126.225C540.445 125.307 542.006 124.847 543.659 124.847C549.169 124.847 555.23 129.99 561.843 140.276C566.618 147.439 570.842 155.521 574.516 164.521ZM486.904 112.174C486.904 111.807 486.904 111.531 486.904 111.347V112.174ZM681.405 237.255L678.925 247.724L647.793 276.102L590.762 240.837V118.786L572.028 116.307C595.354 88.9393 607.936 69.47 609.772 57.8987C611.793 54.5926 613.997 49.7252 616.385 43.2967V41.9191C616.568 42.2865 616.568 42.7457 616.385 43.2967L619.966 101.154H648.344L647.242 122.368H621.068L623.272 239.459C634.293 249.745 641.823 254.979 645.864 255.163C646.415 256.265 647.242 256.816 648.344 256.816C650.731 256.816 653.854 254.153 657.711 248.826L637.599 238.357L681.405 237.255ZM773.681 205.571L714.998 249.928C699.385 224.214 692.13 208.878 693.232 203.918C694.518 202.449 705.447 196.204 726.018 185.184L729.324 189.867C722.344 192.99 718.12 197.674 716.651 203.918C716.1 205.755 715.824 207.592 715.824 209.429C715.824 217.143 718.855 221.459 724.916 222.378C731.161 223.112 737.773 214.112 744.753 195.378C745.671 192.623 746.13 189.5 746.13 186.01C746.13 181.051 745.12 176.276 743.099 171.684L698.467 179.123C694.794 170.123 692.038 161.031 690.202 151.847C689.283 142.48 690.202 133.572 692.957 125.123L748.059 76.3578C765.691 100.786 774.14 115.48 773.405 120.439C772.303 122.092 761.926 129.256 742.273 141.929L738.691 137.245C741.814 134.306 743.926 131.276 745.028 128.153C746.13 124.847 746.681 121.266 746.681 117.409C746.681 109.143 744.569 104.919 740.344 104.735C736.487 104.552 732.446 106.388 728.222 110.245C723.814 114.654 721.151 119.796 720.232 125.674C720.232 126.041 719.406 130.909 717.753 140.276C716.467 147.255 715.916 151.48 716.1 152.949C731.712 152.398 742.365 152.582 748.059 153.5C760.732 156.439 768.997 160.939 772.854 167C775.793 172.143 777.263 178.48 777.263 186.01C777.263 192.439 776.069 198.959 773.681 205.571Z" fill="#F5F1FF"/>
<path d="M177.703 245.796L177.848 246.285L178.265 246.161L178.209 245.73L177.703 245.796ZM75.214 276.102L74.7143 276L74.5453 276.831L75.3585 276.591L75.214 276.102ZM78.5201 259.847L79.0197 259.948L79.172 259.2L78.4222 259.346L78.5201 259.847ZM16.5305 271.969L16.2464 271.546L16.6284 272.47L16.5305 271.969ZM37.4692 257.918L37.7533 258.342L37.977 258.192L37.9791 257.922L37.4692 257.918ZM38.2958 151.847L38.8056 151.851L38.8088 151.438L38.4047 151.349L38.2958 151.847ZM14.3265 142.204L14.6703 141.828L14.6684 141.826L14.3265 142.204ZM1.65305 114.929L1.29938 114.562L1.26979 114.59L1.24515 114.623L1.65305 114.929ZM36.3672 108.592L36.4909 109.087L36.3826 108.083L36.3672 108.592ZM25.0713 114.378L24.734 113.996L24.722 114.006L24.7108 114.017L25.0713 114.378ZM24.2448 124.296L24.0404 124.764L24.0487 124.767L24.2448 124.296ZM38.2958 127.327L38.2182 127.831L38.8056 127.921V127.327H38.2958ZM38.2958 122.092H38.8056V122.076L38.8046 122.06L38.2958 122.092ZM31.1325 7.75602L31.6414 7.72414L31.6382 7.67297L31.6249 7.62346L31.1325 7.75602ZM29.204 0.592795L29.2154 0.0830421L28.5346 0.0677422L28.7116 0.72535L29.204 0.592795ZM78.2446 1.69482L78.7538 1.66892L78.7297 1.19571L78.256 1.18506L78.2446 1.69482ZM79.0711 17.9499L78.5619 17.9757L78.5889 18.5069L79.1184 18.4575L79.0711 17.9499ZM145.469 14.3682L145.416 14.8754L145.57 14.8914L145.706 14.8193L145.469 14.3682ZM165.856 3.62339L166.366 3.61198L166.348 2.7881L165.619 3.17232L165.856 3.62339ZM166.683 40.5416L166.507 41.0203L167.209 41.2777L167.193 40.5302L166.683 40.5416ZM141.887 31.4498L142.063 30.9711L141.941 30.9266L141.814 30.9452L141.887 31.4498ZM83.2037 39.9906L83.1303 39.486L82.7174 39.5461L82.6946 39.9627L83.2037 39.9906ZM78.2446 130.633L77.7354 130.605L77.706 131.143H78.2446V130.633ZM88.9894 130.082L89.0732 130.585L89.0813 130.584L89.0894 130.582L88.9894 130.082ZM133.071 116.582L132.926 116.093L132.914 116.097L132.903 116.101L133.071 116.582ZM166.683 114.103L166.862 114.58L166.739 113.596L166.683 114.103ZM110.755 142.48L110.457 142.066L110.449 142.072L110.44 142.078L110.755 142.48ZM93.9486 149.368L94.0352 149.87L94.0409 149.869L93.9486 149.368ZM77.9691 151.847L77.8994 151.342L77.4561 151.403L77.4592 151.851L77.9691 151.847ZM78.5201 231.194L78.0102 231.197L78.0139 231.727L78.5433 231.703L78.5201 231.194ZM175.224 226.786L175.729 226.72L175.669 226.255L175.201 226.276L175.224 226.786ZM177.559 245.307L75.0694 275.613L75.3585 276.591L177.848 246.285L177.559 245.307ZM75.7136 276.203L79.0197 259.948L78.0204 259.745L74.7143 276L75.7136 276.203ZM78.4222 259.346L16.4327 271.469L16.6284 272.47L78.6179 260.347L78.4222 259.346ZM16.8147 272.393L37.7533 258.342L37.1851 257.495L16.2464 271.546L16.8147 272.393ZM37.9791 257.922L38.8056 151.851L37.7859 151.843L36.9594 257.914L37.9791 257.922ZM38.4047 151.349C26.6603 148.78 18.7879 145.587 14.6703 141.828L13.9827 142.581C18.314 146.536 26.4211 149.772 38.1868 152.345L38.4047 151.349ZM14.6684 141.826C9.91258 137.528 6.36573 133.544 4.01069 129.875C1.65476 126.206 0.509881 122.88 0.509881 119.888H-0.509881C-0.509881 123.141 0.732988 126.657 3.15254 130.426C5.573 134.197 9.18938 138.249 13.9846 142.583L14.6684 141.826ZM0.509881 119.888C0.509881 118.162 1.02512 116.616 2.06096 115.235L1.24515 114.623C0.0769193 116.181 -0.509881 117.941 -0.509881 119.888H0.509881ZM2.00673 115.296C4.37907 113.012 8.39338 111.314 14.1425 110.265C19.8793 109.218 27.2786 108.827 36.3517 109.102L36.3826 108.083C27.2722 107.807 19.794 108.197 13.9594 109.262C8.13716 110.324 3.8862 112.071 1.29938 114.562L2.00673 115.296ZM36.2435 108.098C31.7636 109.218 27.9231 111.182 24.734 113.996L25.4087 114.76C28.4644 112.064 32.1545 110.171 36.4909 109.087L36.2435 108.098ZM24.7108 114.017C22.962 115.766 21.64 117.18 20.7522 118.255C20.3091 118.791 19.965 119.254 19.7291 119.639C19.6111 119.832 19.5143 120.014 19.4457 120.184C19.3793 120.348 19.3268 120.53 19.3268 120.715H20.3465C20.3465 120.715 20.3485 120.671 20.3912 120.566C20.4317 120.466 20.4985 120.335 20.5985 120.172C20.7988 119.845 21.1091 119.424 21.5384 118.904C22.3955 117.867 23.6909 116.479 25.4319 114.739L24.7108 114.017ZM19.3268 120.715C19.3268 121.501 19.8458 122.206 20.6172 122.832C21.4037 123.471 22.5538 124.113 24.0404 124.763L24.4492 123.829C22.9971 123.194 21.943 122.596 21.2602 122.041C20.5622 121.474 20.3465 121.031 20.3465 120.715H19.3268ZM24.0487 124.767C26.3198 125.713 31.0662 126.731 38.2182 127.831L38.3733 126.823C31.1989 125.719 26.578 124.716 24.4409 123.826L24.0487 124.767ZM38.8056 127.327V122.092H37.7859V127.327H38.8056ZM38.8046 122.06L31.6414 7.72414L30.6236 7.7879L37.7869 122.124L38.8046 122.06ZM31.6249 7.62346L29.6963 0.460239L28.7116 0.72535L30.6402 7.88857L31.6249 7.62346ZM29.1925 1.10255L78.2331 2.20457L78.256 1.18506L29.2154 0.0830421L29.1925 1.10255ZM77.7353 1.72071L78.5619 17.9757L79.5803 17.924L78.7538 1.66892L77.7353 1.72071ZM79.1184 18.4575C114.586 15.1496 136.661 13.9634 145.416 14.8754L145.522 13.8611C136.644 12.9363 114.453 14.1378 79.0237 17.4422L79.1184 18.4575ZM145.706 14.8193L166.094 4.07446L165.619 3.17232L145.231 13.9172L145.706 14.8193ZM165.347 3.6348L166.173 40.553L167.193 40.5302L166.366 3.61198L165.347 3.6348ZM166.858 40.0629L142.063 30.9711L141.712 31.9285L166.507 41.0203L166.858 40.0629ZM141.814 30.9452L83.1303 39.486L83.2772 40.4951L141.961 31.9544L141.814 30.9452ZM82.6946 39.9627L77.7354 130.605L78.7537 130.661L83.7128 40.0184L82.6946 39.9627ZM78.2446 131.143C83.2064 131.143 86.8244 130.96 89.0732 130.585L88.9056 129.579C86.7463 129.939 83.2011 130.123 78.2446 130.123V131.143ZM89.0894 130.582C97.3937 128.921 112.118 124.41 133.238 117.064L132.903 116.101C111.778 123.448 97.1157 127.937 88.8894 129.582L89.0894 130.582ZM133.216 117.071C139.954 115.068 147.801 114.061 156.765 114.061V113.042C147.728 113.042 139.779 114.056 132.926 116.093L133.216 117.071ZM156.765 114.061C160.052 114.061 163.339 114.244 166.627 114.609L166.739 113.596C163.415 113.226 160.09 113.042 156.765 113.042V114.061ZM166.504 113.625C143.518 122.268 124.831 131.746 110.457 142.066L111.052 142.894C125.331 132.643 143.93 123.202 166.862 114.58L166.504 113.625ZM110.44 142.078C106.298 145.32 100.78 147.591 93.8562 148.866L94.0409 149.869C101.076 148.573 106.762 146.252 111.069 142.881L110.44 142.078ZM93.8619 148.865C88.541 149.783 83.2202 150.608 77.8994 151.342L78.0387 152.352C83.3709 151.617 88.7031 150.789 94.0352 149.87L93.8619 148.865ZM77.4592 151.851L78.0102 231.197L79.0299 231.19L78.4789 151.844L77.4592 151.851ZM78.5433 231.703L175.247 227.295L175.201 226.276L78.4969 230.684L78.5433 231.703ZM174.718 226.852L177.198 245.862L178.209 245.73L175.729 226.72L174.718 226.852ZM323.318 73.6027L323.767 73.8447L324.173 73.0928H323.318V73.6027ZM308.165 101.705L307.717 101.463L307.698 101.498L307.685 101.535L308.165 101.705ZM256.921 247.173L256.465 247.401L257.002 248.477L257.402 247.343L256.921 247.173ZM190.523 114.378L190.979 114.15L190.955 114.101L190.92 114.058L190.523 114.378ZM170.135 89.0312L170.016 88.5355L169.234 88.724L169.738 89.3508L170.135 89.0312ZM223.86 76.0823L224.354 76.207L224.56 75.3889L223.74 75.5866L223.86 76.0823ZM216.145 106.664L215.651 106.539L215.606 106.719L215.686 106.885L216.145 106.664ZM254.441 186.01L253.982 186.232L254.501 187.307L254.919 186.189L254.441 186.01ZM285.023 104.184L285.5 104.363L285.585 104.136L285.463 103.927L285.023 104.184ZM267.115 73.6027V73.0928H266.225L266.675 73.8603L267.115 73.6027ZM322.87 73.3607L307.717 101.463L308.614 101.947L323.767 73.8447L322.87 73.3607ZM307.685 101.535L256.44 247.004L257.402 247.343L308.646 101.874L307.685 101.535ZM257.377 246.945L190.979 114.15L190.067 114.606L256.465 247.401L257.377 246.945ZM190.92 114.058L170.533 88.7116L169.738 89.3508L190.126 114.698L190.92 114.058ZM170.255 89.5269L223.979 76.5779L223.74 75.5866L170.016 88.5355L170.255 89.5269ZM223.365 75.9575L215.651 106.539L216.64 106.788L224.354 76.207L223.365 75.9575ZM215.686 106.885L253.982 186.232L254.9 185.789L216.605 106.442L215.686 106.885ZM254.919 186.189L285.5 104.363L284.545 104.006L253.964 185.832L254.919 186.189ZM285.463 103.927L267.555 73.345L266.675 73.8603L284.583 104.442L285.463 103.927ZM267.115 74.1126H323.318V73.0928H267.115V74.1126ZM429.598 157.908L429.522 158.413L430.108 158.501V157.908H429.598ZM414.996 155.704L414.884 156.202L414.902 156.206L414.92 156.209L414.996 155.704ZM397.915 151.847L397.747 152.329L397.774 152.338L397.802 152.345L397.915 151.847ZM373.394 143.306L373.562 142.825L372.94 142.608L372.886 143.264L373.394 143.306ZM372.292 215.49L371.793 215.594L371.795 215.604L371.798 215.613L372.292 215.49ZM387.721 229.816L387.428 229.399L387.404 229.416L387.382 229.435L387.721 229.816ZM393.231 222.653L393.682 222.891L393.687 222.881L393.231 222.653ZM406.455 184.908L406.816 184.548L406.196 183.928L405.964 184.773L406.455 184.908ZM421.608 204.745L422.099 204.885L422.118 204.816V204.745H421.608ZM413.619 217.969L414.023 218.28L414.034 218.265L414.044 218.25L413.619 217.969ZM386.894 247.173L386.963 247.679L387.038 247.668L387.107 247.637L386.894 247.173ZM367.333 244.694L366.96 245.041L367.064 245.153L367.212 245.189L367.333 244.694ZM333.17 208.051L332.661 208.026L332.65 208.241L332.797 208.399L333.17 208.051ZM338.129 106.664L337.769 106.303L337.63 106.442L337.62 106.639L338.129 106.664ZM381.935 74.9802L381.764 74.5L381.749 74.5053L381.734 74.5116L381.935 74.9802ZM410.588 82.97L410.949 82.6094L410.934 82.5948L410.918 82.5815L410.588 82.97ZM423.537 95.6434L423.961 95.3606L423.93 95.314L423.89 95.2753L423.537 95.6434ZM396.537 133.664L396.485 134.171L397.169 134.241L397.038 133.566L396.537 133.664ZM389.374 104.46L389.866 104.326L389.866 104.326L389.374 104.46ZM385.517 97.2964L385.097 97.5853L385.101 97.5917L385.106 97.598L385.517 97.2964ZM375.874 98.123L375.381 97.9932L375.378 98.0036L375.874 98.123ZM372.292 131.184H371.782V131.644L372.24 131.691L372.292 131.184ZM429.674 157.404L415.072 155.2L414.92 156.209L429.522 158.413L429.674 157.404ZM415.109 155.207L398.027 151.35L397.802 152.345L414.884 156.202L415.109 155.207ZM398.082 151.366L373.562 142.825L373.227 143.788L397.747 152.329L398.082 151.366ZM372.886 143.264C371.232 163.293 370.405 180.022 370.405 193.449H371.425C371.425 180.06 372.25 163.361 373.902 143.348L372.886 143.264ZM370.405 193.449C370.405 203.737 370.863 211.13 371.793 215.594L372.791 215.386C371.885 211.034 371.425 203.733 371.425 193.449H370.405ZM371.798 215.613C373.18 221.145 374.781 225.341 376.617 228.166C378.453 230.99 380.586 232.53 383.037 232.53V231.51C381.08 231.51 379.218 230.296 377.472 227.61C375.727 224.924 374.159 220.855 372.787 215.366L371.798 215.613ZM383.037 232.53C384.681 232.53 386.359 231.709 388.06 230.197L387.382 229.435C385.777 230.862 384.332 231.51 383.037 231.51V232.53ZM388.013 230.234C389.949 228.879 391.832 226.405 393.682 222.891L392.78 222.416C390.956 225.88 389.166 228.182 387.428 229.399L388.013 230.234ZM393.687 222.881C397.934 214.387 402.352 201.768 406.947 185.043L405.964 184.773C401.375 201.477 396.977 214.021 392.775 222.425L393.687 222.881ZM406.095 185.269C411.139 190.313 414.91 194.474 417.415 197.753C418.668 199.394 419.596 200.803 420.209 201.984C420.827 203.175 421.099 204.086 421.099 204.745H422.118C422.118 203.842 421.758 202.756 421.114 201.514C420.464 200.261 419.498 198.8 418.225 197.134C415.68 193.802 411.873 189.605 406.816 184.548L406.095 185.269ZM421.118 204.605C421.043 204.869 420.831 205.343 420.452 206.055C420.08 206.755 419.563 207.654 418.899 208.752C417.572 210.947 415.671 213.926 413.193 217.689L414.044 218.25C416.525 214.482 418.435 211.491 419.772 209.279C420.44 208.173 420.968 207.257 421.353 206.534C421.731 205.823 421.99 205.264 422.099 204.885L421.118 204.605ZM413.214 217.659C406.514 226.378 400.945 233.161 396.505 238.013C394.285 240.439 392.353 242.376 390.707 243.829C389.054 245.288 387.715 246.236 386.682 246.71L387.107 247.637C388.277 247.1 389.705 246.074 391.382 244.594C393.064 243.108 395.024 241.143 397.258 238.701C401.726 233.818 407.315 227.01 414.023 218.28L413.214 217.659ZM386.825 246.668C382.889 247.205 376.451 246.402 367.454 244.199L367.212 245.189C376.215 247.394 382.818 248.244 386.963 247.679L386.825 246.668ZM367.706 244.346L333.543 207.703L332.797 208.399L366.96 245.041L367.706 244.346ZM333.679 208.076L338.638 106.689L337.62 106.639L332.661 208.026L333.679 208.076ZM338.49 107.024C353.521 91.9926 368.071 81.4767 382.136 75.4489L381.734 74.5116C367.514 80.6061 352.859 91.2126 337.769 106.303L338.49 107.024ZM382.107 75.4604C384.626 74.5605 387.14 74.1126 389.649 74.1126V73.0928C387.016 73.0928 384.387 73.5632 381.764 74.5L382.107 75.4604ZM389.649 74.1126C396.096 74.1126 402.962 77.1569 410.258 83.3585L410.918 82.5815C403.52 76.2933 396.427 73.0928 389.649 73.0928V74.1126ZM410.228 83.3305C414.455 87.5576 418.773 91.7846 423.184 96.0115L423.89 95.2753C419.484 91.0532 415.17 86.8313 410.949 82.6094L410.228 83.3305ZM423.113 95.9262C424.07 97.362 424.938 99.7214 425.691 103.057C426.443 106.38 427.071 110.628 427.575 115.805C428.583 126.159 429.088 140.191 429.088 157.908H430.108C430.108 140.177 429.603 126.107 428.59 115.706C428.084 110.506 427.45 106.212 426.686 102.832C425.925 99.4633 425.024 96.9554 423.961 95.3606L423.113 95.9262ZM397.038 133.566C395.748 126.935 393.356 117.186 389.866 104.326L388.882 104.593C392.371 117.448 394.755 127.168 396.037 133.761L397.038 133.566ZM389.866 104.326C389.291 102.219 387.965 99.7727 385.928 96.9949L385.106 97.598C387.109 100.33 388.354 102.66 388.882 104.594L389.866 104.326ZM385.937 97.0076C384.911 95.5159 383.914 94.3698 382.942 93.5922C381.971 92.8151 380.989 92.3784 380.007 92.3784V93.3982C380.677 93.3982 381.44 93.6962 382.305 94.3885C383.17 95.0802 384.102 96.1382 385.097 97.5853L385.937 97.0076ZM380.007 92.3784C378.899 92.3784 377.959 92.9147 377.196 93.881C376.445 94.8322 375.848 96.2177 375.381 97.9932L376.367 98.2527C376.818 96.5385 377.369 95.3066 377.996 94.5129C378.611 93.7343 379.277 93.3982 380.007 93.3982V92.3784ZM375.378 98.0036C372.979 107.968 371.782 119.029 371.782 131.184H372.802C372.802 119.095 373.993 108.115 376.37 98.2423L375.378 98.0036ZM372.24 131.691L396.485 134.171L396.589 133.156L372.344 130.677L372.24 131.691ZM574.516 164.521L574.993 164.342L574.991 164.335L574.988 164.328L574.516 164.521ZM567.353 224.031L566.853 223.929L566.852 223.932L567.353 224.031ZM565.7 280.234L565.68 280.744L566.57 280.779L566.149 279.993L565.7 280.234ZM516.659 278.306L516.575 277.803L516.639 278.815L516.659 278.306ZM520.516 276.377L520.228 275.957L520.219 275.963L520.21 275.969L520.516 276.377ZM532.914 263.979L533.31 264.301L533.402 264.187L533.42 264.041L532.914 263.979ZM541.73 191.796L541.225 191.73L541.224 191.734L541.73 191.796ZM525.475 159.01L525.634 159.495L525.655 159.488L525.676 159.479L525.475 159.01ZM489.108 175.266L488.871 174.814L488.624 174.944L488.6 175.222L489.108 175.266ZM481.945 259.847L481.437 259.804L481.422 259.974L481.513 260.118L481.945 259.847ZM498.2 278.306L498.215 278.816L498.324 277.811L498.2 278.306ZM430.7 280.234L430.686 279.725L430.61 279.727L430.539 279.751L430.7 280.234ZM446.955 259.847L447.309 260.214L447.438 260.09L447.461 259.913L446.955 259.847ZM461.282 151.021L461.787 151.087L461.911 150.149L461.059 150.562L461.282 151.021ZM432.904 164.796L432.534 164.446L433.127 165.255L432.904 164.796ZM470.098 124.572L469.744 124.205L469.73 124.219L469.717 124.234L470.098 124.572ZM486.904 106.664L487.413 106.628L487.325 105.393L486.518 106.331L486.904 106.664ZM489.935 149.368L489.426 149.404L489.479 150.147L490.152 149.829L489.935 149.368ZM538.975 126.225L539.193 126.686L539.22 126.673L539.245 126.657L538.975 126.225ZM561.843 140.276L561.414 140.552L561.418 140.559L561.843 140.276ZM574.039 164.7C574.556 166.079 574.833 168.299 574.833 171.408H575.852C575.852 168.273 575.578 165.901 574.993 164.342L574.039 164.7ZM574.833 171.408C574.833 180.348 572.181 197.839 566.853 223.929L567.852 224.133C573.177 198.059 575.852 180.468 575.852 171.408H574.833ZM566.852 223.932C564.281 236.973 562.352 246.986 561.066 253.969C560.422 257.46 559.94 260.196 559.617 262.176C559.299 264.132 559.129 265.398 559.129 265.908H560.148C560.148 265.5 560.3 264.332 560.624 262.339C560.944 260.37 561.426 257.642 562.068 254.153C563.354 247.177 565.282 237.169 567.853 224.129L566.852 223.932ZM559.129 265.908C559.129 266.486 559.271 267.218 559.529 268.085C559.788 268.959 560.175 269.999 560.684 271.204C561.703 273.612 563.227 276.704 565.25 280.476L566.149 279.993C564.132 276.234 562.625 273.173 561.623 270.806C561.123 269.623 560.751 268.62 560.506 267.795C560.259 266.962 560.148 266.34 560.148 265.908H559.129ZM565.72 279.725L516.679 277.796L516.639 278.815L565.68 280.744L565.72 279.725ZM516.743 278.809C517.961 278.606 519.325 277.908 520.822 276.785L520.21 275.969C518.769 277.05 517.561 277.639 516.575 277.803L516.743 278.809ZM520.804 276.798C524.354 274.369 528.524 270.192 533.31 264.301L532.518 263.658C527.753 269.522 523.657 273.61 520.228 275.957L520.804 276.798ZM533.42 264.041L542.236 191.858L541.224 191.734L532.408 263.918L533.42 264.041ZM542.236 191.862C542.789 187.62 543.067 183.741 543.067 180.225H542.047C542.047 183.688 541.773 187.523 541.225 191.73L542.236 191.862ZM543.067 180.225C543.067 172.846 542.009 167.229 539.831 163.44C537.628 159.609 534.291 157.674 529.883 157.674V158.694C533.925 158.694 536.925 160.432 538.947 163.948C540.993 167.507 542.047 172.91 542.047 180.225H543.067ZM529.883 157.674C528.174 157.674 526.634 157.959 525.274 158.542L525.676 159.479C526.888 158.96 528.287 158.694 529.883 158.694V157.674ZM525.317 158.526C515.727 161.661 503.576 167.094 488.871 174.814L489.345 175.717C504.028 168.009 516.122 162.605 525.634 159.495L525.317 158.526ZM488.6 175.222L481.437 259.804L482.453 259.89L489.616 175.309L488.6 175.222ZM481.513 260.118C485.102 265.823 488.263 270.234 490.998 273.339C493.712 276.421 496.075 278.3 498.076 278.801L498.324 277.811C496.651 277.393 494.468 275.736 491.764 272.665C489.08 269.618 485.952 265.259 482.376 259.575L481.513 260.118ZM498.185 277.796L430.686 279.725L430.715 280.744L498.215 278.816L498.185 277.796ZM430.539 279.751C429.926 279.955 429.579 279.988 429.424 279.958C429.366 279.946 429.392 279.937 429.422 279.98C429.448 280.016 429.427 280.023 429.435 279.935C429.452 279.738 429.588 279.37 429.936 278.793C430.273 278.234 430.773 277.536 431.443 276.695C434.129 273.326 439.411 267.837 447.309 260.214L446.601 259.48C438.704 267.101 433.378 272.632 430.646 276.059C429.962 276.917 429.432 277.654 429.063 278.266C428.705 278.86 428.459 279.399 428.419 279.845C428.398 280.079 428.429 280.341 428.588 280.567C428.752 280.799 428.993 280.913 429.23 280.959C429.666 281.043 430.234 280.927 430.861 280.718L430.539 279.751ZM447.461 259.913L461.787 151.087L460.776 150.954L446.45 259.78L447.461 259.913ZM461.059 150.562L432.682 164.337L433.127 165.255L461.504 151.479L461.059 150.562ZM433.275 165.147C449.439 148.064 461.841 134.651 470.479 124.91L469.717 124.234C461.089 133.962 448.696 147.366 432.534 164.446L433.275 165.147ZM470.452 124.938C475.975 119.6 481.588 113.619 487.29 106.996L486.518 106.331C480.833 112.933 475.241 118.891 469.744 124.205L470.452 124.938ZM486.395 106.7L489.426 149.404L490.443 149.332L487.413 106.628L486.395 106.7ZM490.152 149.829L539.193 126.686L538.758 125.764L489.717 148.907L490.152 149.829ZM539.245 126.657C540.638 125.787 542.106 125.357 543.659 125.357V124.337C541.906 124.337 540.251 124.826 538.705 125.793L539.245 126.657ZM543.659 125.357C546.249 125.357 549.029 126.566 552.008 129.093C554.985 131.62 558.122 135.431 561.414 140.552L562.271 140C558.951 134.835 555.751 130.932 552.667 128.316C549.585 125.7 546.579 124.337 543.659 124.337V125.357ZM561.418 140.559C566.173 147.69 570.382 155.741 574.044 164.713L574.988 164.328C571.303 155.3 567.063 147.188 562.267 139.993L561.418 140.559ZM487.414 112.174C487.414 112.173 487.414 112.173 487.414 112.172C487.414 112.171 487.414 112.17 487.414 112.17C487.414 112.169 487.414 112.168 487.414 112.167C487.414 112.167 487.414 112.166 487.414 112.165C487.414 112.165 487.414 112.164 487.414 112.163C487.414 112.162 487.414 112.162 487.414 112.161C487.414 112.16 487.414 112.16 487.414 112.159C487.414 112.158 487.414 112.158 487.414 112.157C487.414 112.156 487.414 112.155 487.414 112.155C487.414 112.154 487.414 112.153 487.414 112.153C487.414 112.152 487.414 112.151 487.414 112.15C487.414 112.15 487.414 112.149 487.414 112.148C487.414 112.148 487.414 112.147 487.414 112.146C487.414 112.145 487.414 112.145 487.414 112.144C487.414 112.143 487.414 112.143 487.414 112.142C487.414 112.141 487.414 112.14 487.414 112.14C487.414 112.139 487.414 112.138 487.414 112.138C487.414 112.137 487.414 112.136 487.414 112.136C487.414 112.135 487.414 112.134 487.414 112.133C487.414 112.133 487.414 112.132 487.414 112.131C487.414 112.131 487.414 112.13 487.414 112.129C487.414 112.129 487.414 112.128 487.414 112.127C487.414 112.126 487.414 112.126 487.414 112.125C487.414 112.124 487.414 112.124 487.414 112.123C487.414 112.122 487.414 112.121 487.414 112.121C487.414 112.12 487.414 112.119 487.414 112.119C487.414 112.118 487.414 112.117 487.414 112.117C487.414 112.116 487.414 112.115 487.414 112.114C487.414 112.114 487.414 112.113 487.414 112.112C487.414 112.112 487.414 112.111 487.414 112.11C487.414 112.11 487.414 112.109 487.414 112.108C487.414 112.108 487.414 112.107 487.414 112.106C487.414 112.105 487.414 112.105 487.414 112.104C487.414 112.103 487.414 112.103 487.414 112.102C487.414 112.101 487.414 112.101 487.414 112.1C487.414 112.099 487.414 112.099 487.414 112.098C487.414 112.097 487.414 112.096 487.414 112.096C487.414 112.095 487.414 112.094 487.414 112.094C487.414 112.093 487.414 112.092 487.414 112.092C487.414 112.091 487.414 112.09 487.414 112.09C487.414 112.089 487.414 112.088 487.414 112.087C487.414 112.087 487.414 112.086 487.414 112.085C487.414 112.085 487.414 112.084 487.414 112.083C487.414 112.083 487.414 112.082 487.414 112.081C487.414 112.081 487.414 112.08 487.414 112.079C487.414 112.079 487.414 112.078 487.414 112.077C487.414 112.076 487.414 112.076 487.414 112.075C487.414 112.074 487.414 112.074 487.414 112.073C487.414 112.072 487.414 112.072 487.414 112.071C487.414 112.07 487.414 112.07 487.414 112.069C487.414 112.068 487.414 112.068 487.414 112.067C487.414 112.066 487.414 112.066 487.414 112.065C487.414 112.064 487.414 112.063 487.414 112.063C487.414 112.062 487.414 112.061 487.414 112.061C487.414 112.06 487.414 112.059 487.414 112.059C487.414 112.058 487.414 112.057 487.414 112.057C487.414 112.056 487.414 112.055 487.414 112.055C487.414 112.054 487.414 112.053 487.414 112.053C487.414 112.052 487.414 112.051 487.414 112.051C487.414 112.05 487.414 112.049 487.414 112.049C487.414 112.048 487.414 112.047 487.414 112.047C487.414 112.046 487.414 112.045 487.414 112.045C487.414 112.044 487.414 112.043 487.414 112.043C487.414 112.042 487.414 112.041 487.414 112.04C487.414 112.04 487.414 112.039 487.414 112.038C487.414 112.038 487.414 112.037 487.414 112.036C487.414 112.036 487.414 112.035 487.414 112.034C487.414 112.034 487.414 112.033 487.414 112.032C487.414 112.032 487.414 112.031 487.414 112.03C487.414 112.03 487.414 112.029 487.414 112.028C487.414 112.028 487.414 112.027 487.414 112.026C487.414 112.026 487.414 112.025 487.414 112.024C487.414 112.024 487.414 112.023 487.414 112.022C487.414 112.022 487.414 112.021 487.414 112.02C487.414 112.02 487.414 112.019 487.414 112.018C487.414 112.018 487.414 112.017 487.414 112.016C487.414 112.016 487.414 112.015 487.414 112.014C487.414 112.014 487.414 112.013 487.414 112.012C487.414 112.012 487.414 112.011 487.414 112.01C487.414 112.01 487.414 112.009 487.414 112.008C487.414 112.008 487.414 112.007 487.414 112.006C487.414 112.006 487.414 112.005 487.414 112.005C487.414 112.004 487.414 112.003 487.414 112.003C487.414 112.002 487.414 112.001 487.414 112.001C487.414 112 487.414 111.999 487.414 111.999C487.414 111.998 487.414 111.997 487.414 111.997C487.414 111.996 487.414 111.995 487.414 111.995C487.414 111.994 487.414 111.993 487.414 111.993C487.414 111.992 487.414 111.991 487.414 111.991C487.414 111.99 487.414 111.989 487.414 111.989C487.414 111.988 487.414 111.987 487.414 111.987C487.414 111.986 487.414 111.985 487.414 111.985C487.414 111.984 487.414 111.984 487.414 111.983C487.414 111.982 487.414 111.982 487.414 111.981C487.414 111.98 487.414 111.98 487.414 111.979C487.414 111.978 487.414 111.978 487.414 111.977C487.414 111.976 487.414 111.976 487.414 111.975C487.414 111.974 487.414 111.974 487.414 111.973C487.414 111.972 487.414 111.972 487.414 111.971C487.414 111.971 487.414 111.97 487.414 111.969C487.414 111.969 487.414 111.968 487.414 111.967C487.414 111.967 487.414 111.966 487.414 111.965C487.414 111.965 487.414 111.964 487.414 111.963C487.414 111.963 487.414 111.962 487.414 111.961C487.414 111.961 487.414 111.96 487.414 111.96C487.414 111.959 487.414 111.958 487.414 111.958C487.414 111.957 487.414 111.956 487.414 111.956C487.414 111.955 487.414 111.954 487.414 111.954C487.414 111.953 487.414 111.952 487.414 111.952C487.414 111.951 487.414 111.951 487.414 111.95C487.414 111.949 487.414 111.949 487.414 111.948C487.414 111.947 487.414 111.947 487.414 111.946C487.414 111.945 487.414 111.945 487.414 111.944C487.414 111.943 487.414 111.943 487.414 111.942C487.414 111.942 487.414 111.941 487.414 111.94C487.414 111.94 487.414 111.939 487.414 111.938C487.414 111.938 487.414 111.937 487.414 111.936C487.414 111.936 487.414 111.935 487.414 111.935C487.414 111.934 487.414 111.933 487.414 111.933C487.414 111.932 487.414 111.931 487.414 111.931C487.414 111.93 487.414 111.93 487.414 111.929C487.414 111.928 487.414 111.928 487.414 111.927C487.414 111.926 487.414 111.926 487.414 111.925C487.414 111.924 487.414 111.924 487.414 111.923C487.414 111.923 487.414 111.922 487.414 111.921C487.414 111.921 487.414 111.92 487.414 111.919C487.414 111.919 487.414 111.918 487.414 111.918C487.414 111.917 487.414 111.916 487.414 111.916C487.414 111.915 487.414 111.914 487.414 111.914C487.414 111.913 487.414 111.913 487.414 111.912C487.414 111.911 487.414 111.911 487.414 111.91C487.414 111.909 487.414 111.909 487.414 111.908C487.414 111.908 487.414 111.907 487.414 111.906C487.414 111.906 487.414 111.905 487.414 111.904C487.414 111.904 487.414 111.903 487.414 111.903C487.414 111.902 487.414 111.901 487.414 111.901C487.414 111.9 487.414 111.899 487.414 111.899C487.414 111.898 487.414 111.898 487.414 111.897C487.414 111.896 487.414 111.896 487.414 111.895C487.414 111.894 487.414 111.894 487.414 111.893C487.414 111.893 487.414 111.892 487.414 111.891C487.414 111.891 487.414 111.89 487.414 111.889C487.414 111.889 487.414 111.888 487.414 111.888C487.414 111.887 487.414 111.886 487.414 111.886C487.414 111.885 487.414 111.885 487.414 111.884C487.414 111.883 487.414 111.883 487.414 111.882C487.414 111.881 487.414 111.881 487.414 111.88C487.414 111.88 487.414 111.879 487.414 111.878C487.414 111.878 487.414 111.877 487.414 111.877C487.414 111.876 487.414 111.875 487.414 111.875C487.414 111.874 487.414 111.873 487.414 111.873C487.414 111.872 487.414 111.872 487.414 111.871C487.414 111.87 487.414 111.87 487.414 111.869C487.414 111.869 487.414 111.868 487.414 111.867C487.414 111.867 487.414 111.866 487.414 111.866C487.414 111.865 487.414 111.864 487.414 111.864C487.414 111.863 487.414 111.863 487.414 111.862C487.414 111.861 487.414 111.861 487.414 111.86C487.414 111.859 487.414 111.859 487.414 111.858C487.414 111.858 487.414 111.857 487.414 111.856C487.414 111.856 487.414 111.855 487.414 111.855C487.414 111.854 487.414 111.853 487.414 111.853C487.414 111.852 487.414 111.852 487.414 111.851C487.414 111.85 487.414 111.85 487.414 111.849C487.414 111.849 487.414 111.848 487.414 111.847C487.414 111.847 487.414 111.846 487.414 111.846C487.414 111.845 487.414 111.844 487.414 111.844C487.414 111.843 487.414 111.843 487.414 111.842C487.414 111.841 487.414 111.841 487.414 111.84C487.414 111.84 487.414 111.839 487.414 111.838C487.414 111.838 487.414 111.837 487.414 111.837C487.414 111.836 487.414 111.835 487.414 111.835C487.414 111.834 487.414 111.834 487.414 111.833C487.414 111.832 487.414 111.832 487.414 111.831C487.414 111.831 487.414 111.83 487.414 111.829C487.414 111.829 487.414 111.828 487.414 111.828C487.414 111.827 487.414 111.826 487.414 111.826C487.414 111.825 487.414 111.825 487.414 111.824C487.414 111.824 487.414 111.823 487.414 111.822C487.414 111.822 487.414 111.821 487.414 111.821C487.414 111.82 487.414 111.819 487.414 111.819C487.414 111.818 487.414 111.818 487.414 111.817C487.414 111.816 487.414 111.816 487.414 111.815C487.414 111.815 487.414 111.814 487.414 111.813C487.414 111.813 487.414 111.812 487.414 111.812C487.414 111.811 487.414 111.811 487.414 111.81C487.414 111.809 487.414 111.809 487.414 111.808C487.414 111.808 487.414 111.807 487.414 111.806C487.414 111.806 487.414 111.805 487.414 111.805C487.414 111.804 487.414 111.804 487.414 111.803C487.414 111.802 487.414 111.802 487.414 111.801C487.414 111.801 487.414 111.8 487.414 111.799C487.414 111.799 487.414 111.798 487.414 111.798C487.414 111.797 487.414 111.797 487.414 111.796C487.414 111.795 487.414 111.795 487.414 111.794C487.414 111.794 487.414 111.793 487.414 111.792C487.414 111.792 487.414 111.791 487.414 111.791C487.414 111.79 487.414 111.79 487.414 111.789C487.414 111.788 487.414 111.788 487.414 111.787C487.414 111.787 487.414 111.786 487.414 111.785C487.414 111.785 487.414 111.784 487.414 111.784C487.414 111.783 487.414 111.783 487.414 111.782C487.414 111.781 487.414 111.781 487.414 111.78C487.414 111.78 487.414 111.779 487.414 111.779C487.414 111.778 487.414 111.777 487.414 111.777C487.414 111.776 487.414 111.776 487.414 111.775C487.414 111.775 487.414 111.774 487.414 111.773C487.414 111.773 487.414 111.772 487.414 111.772C487.414 111.771 487.414 111.771 487.414 111.77C487.414 111.769 487.414 111.769 487.414 111.768C487.414 111.768 487.414 111.767 487.414 111.767C487.414 111.766 487.414 111.765 487.414 111.765C487.414 111.764 487.414 111.764 487.414 111.763C487.414 111.763 487.414 111.762 487.414 111.761C487.414 111.761 487.414 111.76 487.414 111.76C487.414 111.759 487.414 111.759 487.414 111.758C487.414 111.757 487.414 111.757 487.414 111.756C487.414 111.756 487.414 111.755 487.414 111.755C487.414 111.754 487.414 111.754 487.414 111.753C487.414 111.752 487.414 111.752 487.414 111.751C487.414 111.751 487.414 111.75 487.414 111.75C487.414 111.749 487.414 111.748 487.414 111.748C487.414 111.747 487.414 111.747 487.414 111.746C487.414 111.746 487.414 111.745 487.414 111.745C487.414 111.744 487.414 111.743 487.414 111.743C487.414 111.742 487.414 111.742 487.414 111.741C487.414 111.741 487.414 111.74 487.414 111.739C487.414 111.739 487.414 111.738 487.414 111.738C487.414 111.737 487.414 111.737 487.414 111.736C487.414 111.736 487.414 111.735 487.414 111.734C487.414 111.734 487.414 111.733 487.414 111.733C487.414 111.732 487.414 111.732 487.414 111.731C487.414 111.731 487.414 111.73 487.414 111.729C487.414 111.729 487.414 111.728 487.414 111.728C487.414 111.727 487.414 111.727 487.414 111.726C487.414 111.726 487.414 111.725 487.414 111.725C487.414 111.724 487.414 111.723 487.414 111.723C487.414 111.722 487.414 111.722 487.414 111.721C487.414 111.721 487.414 111.72 487.414 111.72C487.414 111.719 487.414 111.718 487.414 111.718C487.414 111.717 487.414 111.717 487.414 111.716C487.414 111.716 487.414 111.715 487.414 111.715C487.414 111.714 487.414 111.714 487.414 111.713C487.414 111.712 487.414 111.712 487.414 111.711C487.414 111.711 487.414 111.71 487.414 111.71C487.414 111.709 487.414 111.709 487.414 111.708C487.414 111.708 487.414 111.707 487.414 111.706C487.414 111.706 487.414 111.705 487.414 111.705C487.414 111.704 487.414 111.704 487.414 111.703C487.414 111.703 487.414 111.702 487.414 111.702C487.414 111.701 487.414 111.7 487.414 111.7C487.414 111.699 487.414 111.699 487.414 111.698C487.414 111.698 487.414 111.697 487.414 111.697C487.414 111.696 487.414 111.696 487.414 111.695C487.414 111.694 487.414 111.694 487.414 111.693C487.414 111.693 487.414 111.692 487.414 111.692C487.414 111.691 487.414 111.691 487.414 111.69C487.414 111.69 487.414 111.689 487.414 111.689C487.414 111.688 487.414 111.688 487.414 111.687C487.414 111.686 487.414 111.686 487.414 111.685C487.414 111.685 487.414 111.684 487.414 111.684C487.414 111.683 487.414 111.683 487.414 111.682C487.414 111.682 487.414 111.681 487.414 111.681C487.414 111.68 487.414 111.679 487.414 111.679C487.414 111.678 487.414 111.678 487.414 111.677C487.414 111.677 487.414 111.676 487.414 111.676C487.414 111.675 487.414 111.675 487.414 111.674C487.414 111.674 487.414 111.673 487.414 111.673C487.414 111.672 487.414 111.672 487.414 111.671C487.414 111.67 487.414 111.67 487.414 111.669C487.414 111.669 487.414 111.668 487.414 111.668C487.414 111.667 487.414 111.667 487.414 111.666C487.414 111.666 487.414 111.665 487.414 111.665C487.414 111.664 487.414 111.664 487.414 111.663C487.414 111.663 487.414 111.662 487.414 111.662C487.414 111.661 487.414 111.66 487.414 111.66C487.414 111.659 487.414 111.659 487.414 111.658C487.414 111.658 487.414 111.657 487.414 111.657C487.414 111.656 487.414 111.656 487.414 111.655C487.414 111.655 487.414 111.654 487.414 111.654C487.414 111.653 487.414 111.653 487.414 111.652C487.414 111.652 487.414 111.651 487.414 111.651C487.414 111.65 487.414 111.649 487.414 111.649C487.414 111.648 487.414 111.648 487.414 111.647C487.414 111.647 487.414 111.646 487.414 111.646C487.414 111.645 487.414 111.645 487.414 111.644C487.414 111.644 487.414 111.643 487.414 111.643C487.414 111.642 487.414 111.642 487.414 111.641C487.414 111.641 487.414 111.64 487.414 111.64C487.414 111.639 487.414 111.639 487.414 111.638C487.414 111.638 487.414 111.637 487.414 111.637C487.414 111.636 487.414 111.636 487.414 111.635C487.414 111.635 487.414 111.634 487.414 111.634C487.414 111.633 487.414 111.632 487.414 111.632C487.414 111.631 487.414 111.631 487.414 111.63C487.414 111.63 487.414 111.629 487.414 111.629C487.414 111.628 487.414 111.628 487.414 111.627C487.414 111.627 487.414 111.626 487.414 111.626C487.414 111.625 487.414 111.625 487.414 111.624C487.414 111.624 487.414 111.623 487.414 111.623C487.414 111.622 487.414 111.622 487.414 111.621C487.414 111.621 487.414 111.62 487.414 111.62C487.414 111.619 487.414 111.619 487.414 111.618C487.414 111.618 487.414 111.617 487.414 111.617C487.414 111.616 487.414 111.616 487.414 111.615C487.414 111.615 487.414 111.614 487.414 111.614C487.414 111.613 487.414 111.613 487.414 111.612C487.414 111.612 487.414 111.611 487.414 111.611C487.414 111.61 487.414 111.61 487.414 111.609C487.414 111.609 487.414 111.608 487.414 111.608C487.414 111.607 487.414 111.607 487.414 111.606C487.414 111.606 487.414 111.605 487.414 111.605C487.414 111.604 487.414 111.604 487.414 111.603C487.414 111.603 487.414 111.602 487.414 111.602C487.414 111.601 487.414 111.601 487.414 111.6C487.414 111.6 487.414 111.599 487.414 111.599C487.414 111.598 487.414 111.598 487.414 111.597C487.414 111.597 487.414 111.596 487.414 111.596C487.414 111.595 487.414 111.595 487.414 111.594C487.414 111.594 487.414 111.593 487.414 111.593C487.414 111.592 487.414 111.592 487.414 111.591C487.414 111.591 487.414 111.59 487.414 111.59C487.414 111.589 487.414 111.589 487.414 111.588C487.414 111.588 487.414 111.587 487.414 111.587C487.414 111.586 487.414 111.586 487.414 111.585C487.414 111.585 487.414 111.584 487.414 111.584C487.414 111.583 487.414 111.583 487.414 111.582C487.414 111.582 487.414 111.582 487.414 111.581C487.414 111.581 487.414 111.58 487.414 111.58C487.414 111.579 487.414 111.579 487.414 111.578C487.414 111.578 487.414 111.577 487.414 111.577C487.414 111.576 487.414 111.576 487.414 111.575C487.414 111.575 487.414 111.574 487.414 111.574C487.414 111.573 487.414 111.573 487.414 111.572C487.414 111.572 487.414 111.571 487.414 111.571C487.414 111.57 487.414 111.57 487.414 111.569C487.414 111.569 487.414 111.568 487.414 111.568C487.414 111.567 487.414 111.567 487.414 111.566C487.414 111.566 487.414 111.566 487.414 111.565C487.414 111.565 487.414 111.564 487.414 111.564C487.414 111.563 487.414 111.563 487.414 111.562C487.414 111.562 487.414 111.561 487.414 111.561C487.414 111.56 487.414 111.56 487.414 111.559C487.414 111.559 487.414 111.558 487.414 111.558C487.414 111.557 487.414 111.557 487.414 111.556C487.414 111.556 487.414 111.555 487.414 111.555C487.414 111.555 487.414 111.554 487.414 111.554C487.414 111.553 487.414 111.553 487.414 111.552C487.414 111.552 487.414 111.551 487.414 111.551C487.414 111.55 487.414 111.55 487.414 111.549C487.414 111.549 487.414 111.548 487.414 111.548C487.414 111.547 487.414 111.547 487.414 111.547C487.414 111.546 487.414 111.546 487.414 111.545C487.414 111.545 487.414 111.544 487.414 111.544C487.414 111.543 487.414 111.543 487.414 111.542C487.414 111.542 487.414 111.541 487.414 111.541C487.414 111.54 487.414 111.54 487.414 111.539C487.414 111.539 487.414 111.539 487.414 111.538C487.414 111.538 487.414 111.537 487.414 111.537C487.414 111.536 487.414 111.536 487.414 111.535C487.414 111.535 487.414 111.534 487.414 111.534C487.414 111.533 487.414 111.533 487.414 111.532C487.414 111.532 487.414 111.532 487.414 111.531C487.414 111.531 487.414 111.53 487.414 111.53C487.414 111.529 487.414 111.529 487.414 111.528C487.414 111.528 487.414 111.527 487.414 111.527C487.414 111.526 487.414 111.526 487.414 111.526C487.414 111.525 487.414 111.525 487.414 111.524C487.414 111.524 487.414 111.523 487.414 111.523C487.414 111.522 487.414 111.522 487.414 111.521C487.414 111.521 487.414 111.521 487.414 111.52C487.414 111.52 487.414 111.519 487.414 111.519C487.414 111.518 487.414 111.518 487.414 111.517C487.414 111.517 487.414 111.516 487.414 111.516C487.414 111.515 487.414 111.515 487.414 111.515C487.414 111.514 487.414 111.514 487.414 111.513C487.414 111.513 487.414 111.512 487.414 111.512C487.414 111.511 487.414 111.511 487.414 111.51C487.414 111.51 487.414 111.51 487.414 111.509C487.414 111.509 487.414 111.508 487.414 111.508C487.414 111.507 487.414 111.507 487.414 111.506C487.414 111.506 487.414 111.506 487.414 111.505C487.414 111.505 487.414 111.504 487.414 111.504C487.414 111.503 487.414 111.503 487.414 111.502C487.414 111.502 487.414 111.501 487.414 111.501C487.414 111.501 487.414 111.5 487.414 111.5C487.414 111.499 487.414 111.499 487.414 111.498C487.414 111.498 487.414 111.497 487.414 111.497C487.414 111.497 487.414 111.496 487.414 111.496C487.414 111.495 487.414 111.495 487.414 111.494C487.414 111.494 487.414 111.493 487.414 111.493C487.414 111.493 487.414 111.492 487.414 111.492C487.414 111.491 487.414 111.491 487.414 111.49C487.414 111.49 487.414 111.489 487.414 111.489C487.414 111.489 487.414 111.488 487.414 111.488C487.414 111.487 487.414 111.487 487.414 111.486C487.414 111.486 487.414 111.486 487.414 111.485C487.414 111.485 487.414 111.484 487.414 111.484C487.414 111.483 487.414 111.483 487.414 111.482C487.414 111.482 487.414 111.482 487.414 111.481C487.414 111.481 487.414 111.48 487.414 111.48C487.414 111.479 487.414 111.479 487.414 111.479C487.414 111.478 487.414 111.478 487.414 111.477C487.414 111.477 487.414 111.476 487.414 111.476C487.414 111.475 487.414 111.475 487.414 111.475C487.414 111.474 487.414 111.474 487.414 111.473C487.414 111.473 487.414 111.472 487.414 111.472C487.414 111.472 487.414 111.471 487.414 111.471C487.414 111.47 487.414 111.47 487.414 111.469C487.414 111.469 487.414 111.469 487.414 111.468C487.414 111.468 487.414 111.467 487.414 111.467C487.414 111.466 487.414 111.466 487.414 111.466C487.414 111.465 487.414 111.465 487.414 111.464C487.414 111.464 487.414 111.463 487.414 111.463C487.414 111.463 487.414 111.462 487.414 111.462C487.414 111.461 487.414 111.461 487.414 111.46C487.414 111.46 487.414 111.46 487.414 111.459C487.414 111.459 487.414 111.458 487.414 111.458C487.414 111.457 487.414 111.457 487.414 111.457C487.414 111.456 487.414 111.456 487.414 111.455C487.414 111.455 487.414 111.454 487.414 111.454C487.414 111.454 487.414 111.453 487.414 111.453C487.414 111.452 487.414 111.452 487.414 111.452C487.414 111.451 487.414 111.451 487.414 111.45C487.414 111.45 487.414 111.449 487.414 111.449C487.414 111.449 487.414 111.448 487.414 111.448C487.414 111.447 487.414 111.447 487.414 111.446C487.414 111.446 487.414 111.446 487.414 111.445C487.414 111.445 487.414 111.444 487.414 111.444C487.414 111.444 487.414 111.443 487.414 111.443C487.414 111.442 487.414 111.442 487.414 111.441C487.414 111.441 487.414 111.441 487.414 111.44C487.414 111.44 487.414 111.439 487.414 111.439C487.414 111.439 487.414 111.438 487.414 111.438C487.414 111.437 487.414 111.437 487.414 111.437C487.414 111.436 487.414 111.436 487.414 111.435C487.414 111.435 487.414 111.434 487.414 111.434C487.414 111.434 487.414 111.433 487.414 111.433C487.414 111.432 487.414 111.432 487.414 111.432C487.414 111.431 487.414 111.431 487.414 111.43C487.414 111.43 487.414 111.43 487.414 111.429C487.414 111.429 487.414 111.428 487.414 111.428C487.414 111.427 487.414 111.427 487.414 111.427C487.414 111.426 487.414 111.426 487.414 111.425C487.414 111.425 487.414 111.425 487.414 111.424C487.414 111.424 487.414 111.423 487.414 111.423C487.414 111.423 487.414 111.422 487.414 111.422C487.414 111.421 487.414 111.421 487.414 111.421C487.414 111.42 487.414 111.42 487.414 111.419C487.414 111.419 487.414 111.419 487.414 111.418C487.414 111.418 487.414 111.417 487.414 111.417C487.414 111.417 487.414 111.416 487.414 111.416C487.414 111.415 487.414 111.415 487.414 111.415C487.414 111.414 487.414 111.414 487.414 111.413C487.414 111.413 487.414 111.413 487.414 111.412C487.414 111.412 487.414 111.411 487.414 111.411C487.414 111.411 487.414 111.41 487.414 111.41C487.414 111.409 487.414 111.409 487.414 111.409C487.414 111.408 487.414 111.408 487.414 111.407C487.414 111.407 487.414 111.407 487.414 111.406C487.414 111.406 487.414 111.405 487.414 111.405C487.414 111.405 487.414 111.404 487.414 111.404C487.414 111.403 487.414 111.403 487.414 111.403C487.414 111.402 487.414 111.402 487.414 111.401C487.414 111.401 487.414 111.401 487.414 111.4C487.414 111.4 487.414 111.4 487.414 111.399C487.414 111.399 487.414 111.398 487.414 111.398C487.414 111.398 487.414 111.397 487.414 111.397C487.414 111.396 487.414 111.396 487.414 111.396C487.414 111.395 487.414 111.395 487.414 111.394C487.414 111.394 487.414 111.394 487.414 111.393C487.414 111.393 487.414 111.393 487.414 111.392C487.414 111.392 487.414 111.391 487.414 111.391C487.414 111.391 487.414 111.39 487.414 111.39C487.414 111.389 487.414 111.389 487.414 111.389C487.414 111.388 487.414 111.388 487.414 111.388C487.414 111.387 487.414 111.387 487.414 111.386C487.414 111.386 487.414 111.386 487.414 111.385C487.414 111.385 487.414 111.384 487.414 111.384C487.414 111.384 487.414 111.383 487.414 111.383C487.414 111.383 487.414 111.382 487.414 111.382C487.414 111.381 487.414 111.381 487.414 111.381C487.414 111.38 487.414 111.38 487.414 111.38C487.414 111.379 487.414 111.379 487.414 111.378C487.414 111.378 487.414 111.378 487.414 111.377C487.414 111.377 487.414 111.376 487.414 111.376C487.414 111.376 487.414 111.375 487.414 111.375C487.414 111.375 487.414 111.374 487.414 111.374C487.414 111.373 487.414 111.373 487.414 111.373C487.414 111.372 487.414 111.372 487.414 111.372C487.414 111.371 487.414 111.371 487.414 111.37C487.414 111.37 487.414 111.37 487.414 111.369C487.414 111.369 487.414 111.369 487.414 111.368C487.414 111.368 487.414 111.367 487.414 111.367C487.414 111.367 487.414 111.366 487.414 111.366C487.414 111.366 487.414 111.365 487.414 111.365C487.414 111.365 487.414 111.364 487.414 111.364C487.414 111.363 487.414 111.363 487.414 111.363C487.414 111.362 487.414 111.362 487.414 111.362C487.414 111.361 487.414 111.361 487.414 111.36C487.414 111.36 487.414 111.36 487.414 111.359C487.414 111.359 487.414 111.359 487.414 111.358C487.414 111.358 487.414 111.358 487.414 111.357C487.414 111.357 487.414 111.356 487.414 111.356C487.414 111.356 487.414 111.355 487.414 111.355C487.414 111.355 487.414 111.354 487.414 111.354C487.414 111.354 487.414 111.353 487.414 111.353C487.414 111.352 487.414 111.352 487.414 111.352C487.414 111.351 487.414 111.351 487.414 111.351C487.414 111.35 487.414 111.35 487.414 111.35C487.414 111.349 487.414 111.349 487.414 111.348C487.414 111.348 487.414 111.348 487.414 111.347H486.394C486.394 111.348 486.394 111.348 486.394 111.348C486.394 111.349 486.394 111.349 486.394 111.35C486.394 111.35 486.394 111.35 486.394 111.351C486.394 111.351 486.394 111.351 486.394 111.352C486.394 111.352 486.394 111.352 486.394 111.353C486.394 111.353 486.394 111.354 486.394 111.354C486.394 111.354 486.394 111.355 486.394 111.355C486.394 111.355 486.394 111.356 486.394 111.356C486.394 111.356 486.394 111.357 486.394 111.357C486.394 111.358 486.394 111.358 486.394 111.358C486.394 111.359 486.394 111.359 486.394 111.359C486.394 111.36 486.394 111.36 486.394 111.36C486.394 111.361 486.394 111.361 486.394 111.362C486.394 111.362 486.394 111.362 486.394 111.363C486.394 111.363 486.394 111.363 486.394 111.364C486.394 111.364 486.394 111.365 486.394 111.365C486.394 111.365 486.394 111.366 486.394 111.366C486.394 111.366 486.394 111.367 486.394 111.367C486.394 111.367 486.394 111.368 486.394 111.368C486.394 111.369 486.394 111.369 486.394 111.369C486.394 111.37 486.394 111.37 486.394 111.37C486.394 111.371 486.394 111.371 486.394 111.372C486.394 111.372 486.394 111.372 486.394 111.373C486.394 111.373 486.394 111.373 486.394 111.374C486.394 111.374 486.394 111.375 486.394 111.375C486.394 111.375 486.394 111.376 486.394 111.376C486.394 111.376 486.394 111.377 486.394 111.377C486.394 111.378 486.394 111.378 486.394 111.378C486.394 111.379 486.394 111.379 486.394 111.38C486.394 111.38 486.394 111.38 486.394 111.381C486.394 111.381 486.394 111.381 486.394 111.382C486.394 111.382 486.394 111.383 486.394 111.383C486.394 111.383 486.394 111.384 486.394 111.384C486.394 111.384 486.394 111.385 486.394 111.385C486.394 111.386 486.394 111.386 486.394 111.386C486.394 111.387 486.394 111.387 486.394 111.388C486.394 111.388 486.394 111.388 486.394 111.389C486.394 111.389 486.394 111.389 486.394 111.39C486.394 111.39 486.394 111.391 486.394 111.391C486.394 111.391 486.394 111.392 486.394 111.392C486.394 111.393 486.394 111.393 486.394 111.393C486.394 111.394 486.394 111.394 486.394 111.394C486.394 111.395 486.394 111.395 486.394 111.396C486.394 111.396 486.394 111.396 486.394 111.397C486.394 111.397 486.394 111.398 486.394 111.398C486.394 111.398 486.394 111.399 486.394 111.399C486.394 111.4 486.394 111.4 486.394 111.4C486.394 111.401 486.394 111.401 486.394 111.401C486.394 111.402 486.394 111.402 486.394 111.403C486.394 111.403 486.394 111.403 486.394 111.404C486.394 111.404 486.394 111.405 486.394 111.405C486.394 111.405 486.394 111.406 486.394 111.406C486.394 111.407 486.394 111.407 486.394 111.407C486.394 111.408 486.394 111.408 486.394 111.409C486.394 111.409 486.394 111.409 486.394 111.41C486.394 111.41 486.394 111.411 486.394 111.411C486.394 111.411 486.394 111.412 486.394 111.412C486.394 111.413 486.394 111.413 486.394 111.413C486.394 111.414 486.394 111.414 486.394 111.415C486.394 111.415 486.394 111.415 486.394 111.416C486.394 111.416 486.394 111.417 486.394 111.417C486.394 111.417 486.394 111.418 486.394 111.418C486.394 111.419 486.394 111.419 486.394 111.419C486.394 111.42 486.394 111.42 486.394 111.421C486.394 111.421 486.394 111.421 486.394 111.422C486.394 111.422 486.394 111.423 486.394 111.423C486.394 111.423 486.394 111.424 486.394 111.424C486.394 111.425 486.394 111.425 486.394 111.425C486.394 111.426 486.394 111.426 486.394 111.427C486.394 111.427 486.394 111.427 486.394 111.428C486.394 111.428 486.394 111.429 486.394 111.429C486.394 111.43 486.394 111.43 486.394 111.43C486.394 111.431 486.394 111.431 486.394 111.432C486.394 111.432 486.394 111.432 486.394 111.433C486.394 111.433 486.394 111.434 486.394 111.434C486.394 111.434 486.394 111.435 486.394 111.435C486.394 111.436 486.394 111.436 486.394 111.437C486.394 111.437 486.394 111.437 486.394 111.438C486.394 111.438 486.394 111.439 486.394 111.439C486.394 111.439 486.394 111.44 486.394 111.44C486.394 111.441 486.394 111.441 486.394 111.441C486.394 111.442 486.394 111.442 486.394 111.443C486.394 111.443 486.394 111.444 486.394 111.444C486.394 111.444 486.394 111.445 486.394 111.445C486.394 111.446 486.394 111.446 486.394 111.446C486.394 111.447 486.394 111.447 486.394 111.448C486.394 111.448 486.394 111.449 486.394 111.449C486.394 111.449 486.394 111.45 486.394 111.45C486.394 111.451 486.394 111.451 486.394 111.452C486.394 111.452 486.394 111.452 486.394 111.453C486.394 111.453 486.394 111.454 486.394 111.454C486.394 111.454 486.394 111.455 486.394 111.455C486.394 111.456 486.394 111.456 486.394 111.457C486.394 111.457 486.394 111.457 486.394 111.458C486.394 111.458 486.394 111.459 486.394 111.459C486.394 111.46 486.394 111.46 486.394 111.46C486.394 111.461 486.394 111.461 486.394 111.462C486.394 111.462 486.394 111.463 486.394 111.463C486.394 111.463 486.394 111.464 486.394 111.464C486.394 111.465 486.394 111.465 486.394 111.466C486.394 111.466 486.394 111.466 486.394 111.467C486.394 111.467 486.394 111.468 486.394 111.468C486.394 111.469 486.394 111.469 486.394 111.469C486.394 111.47 486.394 111.47 486.394 111.471C486.394 111.471 486.394 111.472 486.394 111.472C486.394 111.472 486.394 111.473 486.394 111.473C486.394 111.474 486.394 111.474 486.394 111.475C486.394 111.475 486.394 111.475 486.394 111.476C486.394 111.476 486.394 111.477 486.394 111.477C486.394 111.478 486.394 111.478 486.394 111.479C486.394 111.479 486.394 111.479 486.394 111.48C486.394 111.48 486.394 111.481 486.394 111.481C486.394 111.482 486.394 111.482 486.394 111.482C486.394 111.483 486.394 111.483 486.394 111.484C486.394 111.484 486.394 111.485 486.394 111.485C486.394 111.486 486.394 111.486 486.394 111.486C486.394 111.487 486.394 111.487 486.394 111.488C486.394 111.488 486.394 111.489 486.394 111.489C486.394 111.489 486.394 111.49 486.394 111.49C486.394 111.491 486.394 111.491 486.394 111.492C486.394 111.492 486.394 111.493 486.394 111.493C486.394 111.493 486.394 111.494 486.394 111.494C486.394 111.495 486.394 111.495 486.394 111.496C486.394 111.496 486.394 111.497 486.394 111.497C486.394 111.497 486.394 111.498 486.394 111.498C486.394 111.499 486.394 111.499 486.394 111.5C486.394 111.5 486.394 111.501 486.394 111.501C486.394 111.501 486.394 111.502 486.394 111.502C486.394 111.503 486.394 111.503 486.394 111.504C486.394 111.504 486.394 111.505 486.394 111.505C486.394 111.506 486.394 111.506 486.394 111.506C486.394 111.507 486.394 111.507 486.394 111.508C486.394 111.508 486.394 111.509 486.394 111.509C486.394 111.51 486.394 111.51 486.394 111.51C486.394 111.511 486.394 111.511 486.394 111.512C486.394 111.512 486.394 111.513 486.394 111.513C486.394 111.514 486.394 111.514 486.394 111.515C486.394 111.515 486.394 111.515 486.394 111.516C486.394 111.516 486.394 111.517 486.394 111.517C486.394 111.518 486.394 111.518 486.394 111.519C486.394 111.519 486.394 111.52 486.394 111.52C486.394 111.521 486.394 111.521 486.394 111.521C486.394 111.522 486.394 111.522 486.394 111.523C486.394 111.523 486.394 111.524 486.394 111.524C486.394 111.525 486.394 111.525 486.394 111.526C486.394 111.526 486.394 111.526 486.394 111.527C486.394 111.527 486.394 111.528 486.394 111.528C486.394 111.529 486.394 111.529 486.394 111.53C486.394 111.53 486.394 111.531 486.394 111.531C486.394 111.532 486.394 111.532 486.394 111.532C486.394 111.533 486.394 111.533 486.394 111.534C486.394 111.534 486.394 111.535 486.394 111.535C486.394 111.536 486.394 111.536 486.394 111.537C486.394 111.537 486.394 111.538 486.394 111.538C486.394 111.539 486.394 111.539 486.394 111.539C486.394 111.54 486.394 111.54 486.394 111.541C486.394 111.541 486.394 111.542 486.394 111.542C486.394 111.543 486.394 111.543 486.394 111.544C486.394 111.544 486.394 111.545 486.394 111.545C486.394 111.546 486.394 111.546 486.394 111.547C486.394 111.547 486.394 111.547 486.394 111.548C486.394 111.548 486.394 111.549 486.394 111.549C486.394 111.55 486.394 111.55 486.394 111.551C486.394 111.551 486.394 111.552 486.394 111.552C486.394 111.553 486.394 111.553 486.394 111.554C486.394 111.554 486.394 111.555 486.394 111.555C486.394 111.555 486.394 111.556 486.394 111.556C486.394 111.557 486.394 111.557 486.394 111.558C486.394 111.558 486.394 111.559 486.394 111.559C486.394 111.56 486.394 111.56 486.394 111.561C486.394 111.561 486.394 111.562 486.394 111.562C486.394 111.563 486.394 111.563 486.394 111.564C486.394 111.564 486.394 111.565 486.394 111.565C486.394 111.566 486.394 111.566 486.394 111.566C486.394 111.567 486.394 111.567 486.394 111.568C486.394 111.568 486.394 111.569 486.394 111.569C486.394 111.57 486.394 111.57 486.394 111.571C486.394 111.571 486.394 111.572 486.394 111.572C486.394 111.573 486.394 111.573 486.394 111.574C486.394 111.574 486.394 111.575 486.394 111.575C486.394 111.576 486.394 111.576 486.394 111.577C486.394 111.577 486.394 111.578 486.394 111.578C486.394 111.579 486.394 111.579 486.394 111.58C486.394 111.58 486.394 111.581 486.394 111.581C486.394 111.582 486.394 111.582 486.394 111.582C486.394 111.583 486.394 111.583 486.394 111.584C486.394 111.584 486.394 111.585 486.394 111.585C486.394 111.586 486.394 111.586 486.394 111.587C486.394 111.587 486.394 111.588 486.394 111.588C486.394 111.589 486.394 111.589 486.394 111.59C486.394 111.59 486.394 111.591 486.394 111.591C486.394 111.592 486.394 111.592 486.394 111.593C486.394 111.593 486.394 111.594 486.394 111.594C486.394 111.595 486.394 111.595 486.394 111.596C486.394 111.596 486.394 111.597 486.394 111.597C486.394 111.598 486.394 111.598 486.394 111.599C486.394 111.599 486.394 111.6 486.394 111.6C486.394 111.601 486.394 111.601 486.394 111.602C486.394 111.602 486.394 111.603 486.394 111.603C486.394 111.604 486.394 111.604 486.394 111.605C486.394 111.605 486.394 111.606 486.394 111.606C486.394 111.607 486.394 111.607 486.394 111.608C486.394 111.608 486.394 111.609 486.394 111.609C486.394 111.61 486.394 111.61 486.394 111.611C486.394 111.611 486.394 111.612 486.394 111.612C486.394 111.613 486.394 111.613 486.394 111.614C486.394 111.614 486.394 111.615 486.394 111.615C486.394 111.616 486.394 111.616 486.394 111.617C486.394 111.617 486.394 111.618 486.394 111.618C486.394 111.619 486.394 111.619 486.394 111.62C486.394 111.62 486.394 111.621 486.394 111.621C486.394 111.622 486.394 111.622 486.394 111.623C486.394 111.623 486.394 111.624 486.394 111.624C486.394 111.625 486.394 111.625 486.394 111.626C486.394 111.626 486.394 111.627 486.394 111.627C486.394 111.628 486.394 111.628 486.394 111.629C486.394 111.629 486.394 111.63 486.394 111.63C486.394 111.631 486.394 111.631 486.394 111.632C486.394 111.632 486.394 111.633 486.394 111.634C486.394 111.634 486.394 111.635 486.394 111.635C486.394 111.636 486.394 111.636 486.394 111.637C486.394 111.637 486.394 111.638 486.394 111.638C486.394 111.639 486.394 111.639 486.394 111.64C486.394 111.64 486.394 111.641 486.394 111.641C486.394 111.642 486.394 111.642 486.394 111.643C486.394 111.643 486.394 111.644 486.394 111.644C486.394 111.645 486.394 111.645 486.394 111.646C486.394 111.646 486.394 111.647 486.394 111.647C486.394 111.648 486.394 111.648 486.394 111.649C486.394 111.649 486.394 111.65 486.394 111.651C486.394 111.651 486.394 111.652 486.394 111.652C486.394 111.653 486.394 111.653 486.394 111.654C486.394 111.654 486.394 111.655 486.394 111.655C486.394 111.656 486.394 111.656 486.394 111.657C486.394 111.657 486.394 111.658 486.394 111.658C486.394 111.659 486.394 111.659 486.394 111.66C486.394 111.66 486.394 111.661 486.394 111.662C486.394 111.662 486.394 111.663 486.394 111.663C486.394 111.664 486.394 111.664 486.394 111.665C486.394 111.665 486.394 111.666 486.394 111.666C486.394 111.667 486.394 111.667 486.394 111.668C486.394 111.668 486.394 111.669 486.394 111.669C486.394 111.67 486.394 111.67 486.394 111.671C486.394 111.672 486.394 111.672 486.394 111.673C486.394 111.673 486.394 111.674 486.394 111.674C486.394 111.675 486.394 111.675 486.394 111.676C486.394 111.676 486.394 111.677 486.394 111.677C486.394 111.678 486.394 111.678 486.394 111.679C486.394 111.679 486.394 111.68 486.394 111.681C486.394 111.681 486.394 111.682 486.394 111.682C486.394 111.683 486.394 111.683 486.394 111.684C486.394 111.684 486.394 111.685 486.394 111.685C486.394 111.686 486.394 111.686 486.394 111.687C486.394 111.688 486.394 111.688 486.394 111.689C486.394 111.689 486.394 111.69 486.394 111.69C486.394 111.691 486.394 111.691 486.394 111.692C486.394 111.692 486.394 111.693 486.394 111.693C486.394 111.694 486.394 111.694 486.394 111.695C486.394 111.696 486.394 111.696 486.394 111.697C486.394 111.697 486.394 111.698 486.394 111.698C486.394 111.699 486.394 111.699 486.394 111.7C486.394 111.7 486.394 111.701 486.394 111.702C486.394 111.702 486.394 111.703 486.394 111.703C486.394 111.704 486.394 111.704 486.394 111.705C486.394 111.705 486.394 111.706 486.394 111.706C486.394 111.707 486.394 111.708 486.394 111.708C486.394 111.709 486.394 111.709 486.394 111.71C486.394 111.71 486.394 111.711 486.394 111.711C486.394 111.712 486.394 111.712 486.394 111.713C486.394 111.714 486.394 111.714 486.394 111.715C486.394 111.715 486.394 111.716 486.394 111.716C486.394 111.717 486.394 111.717 486.394 111.718C486.394 111.718 486.394 111.719 486.394 111.72C486.394 111.72 486.394 111.721 486.394 111.721C486.394 111.722 486.394 111.722 486.394 111.723C486.394 111.723 486.394 111.724 486.394 111.725C486.394 111.725 486.394 111.726 486.394 111.726C486.394 111.727 486.394 111.727 486.394 111.728C486.394 111.728 486.394 111.729 486.394 111.729C486.394 111.73 486.394 111.731 486.394 111.731C486.394 111.732 486.394 111.732 486.394 111.733C486.394 111.733 486.394 111.734 486.394 111.734C486.394 111.735 486.394 111.736 486.394 111.736C486.394 111.737 486.394 111.737 486.394 111.738C486.394 111.738 486.394 111.739 486.394 111.739C486.394 111.74 486.394 111.741 486.394 111.741C486.394 111.742 486.394 111.742 486.394 111.743C486.394 111.743 486.394 111.744 486.394 111.745C486.394 111.745 486.394 111.746 486.394 111.746C486.394 111.747 486.394 111.747 486.394 111.748C486.394 111.748 486.394 111.749 486.394 111.75C486.394 111.75 486.394 111.751 486.394 111.751C486.394 111.752 486.394 111.752 486.394 111.753C486.394 111.754 486.394 111.754 486.394 111.755C486.394 111.755 486.394 111.756 486.394 111.756C486.394 111.757 486.394 111.757 486.394 111.758C486.394 111.759 486.394 111.759 486.394 111.76C486.394 111.76 486.394 111.761 486.394 111.761C486.394 111.762 486.394 111.763 486.394 111.763C486.394 111.764 486.394 111.764 486.394 111.765C486.394 111.765 486.394 111.766 486.394 111.767C486.394 111.767 486.394 111.768 486.394 111.768C486.394 111.769 486.394 111.769 486.394 111.77C486.394 111.771 486.394 111.771 486.394 111.772C486.394 111.772 486.394 111.773 486.394 111.773C486.394 111.774 486.394 111.775 486.394 111.775C486.394 111.776 486.394 111.776 486.394 111.777C486.394 111.777 486.394 111.778 486.394 111.779C486.394 111.779 486.394 111.78 486.394 111.78C486.394 111.781 486.394 111.781 486.394 111.782C486.394 111.783 486.394 111.783 486.394 111.784C486.394 111.784 486.394 111.785 486.394 111.785C486.394 111.786 486.394 111.787 486.394 111.787C486.394 111.788 486.394 111.788 486.394 111.789C486.394 111.79 486.394 111.79 486.394 111.791C486.394 111.791 486.394 111.792 486.394 111.792C486.394 111.793 486.394 111.794 486.394 111.794C486.394 111.795 486.394 111.795 486.394 111.796C486.394 111.797 486.394 111.797 486.394 111.798C486.394 111.798 486.394 111.799 486.394 111.799C486.394 111.8 486.394 111.801 486.394 111.801C486.394 111.802 486.394 111.802 486.394 111.803C486.394 111.804 486.394 111.804 486.394 111.805C486.394 111.805 486.394 111.806 486.394 111.806C486.394 111.807 486.394 111.808 486.394 111.808C486.394 111.809 486.394 111.809 486.394 111.81C486.394 111.811 486.394 111.811 486.394 111.812C486.394 111.812 486.394 111.813 486.394 111.813C486.394 111.814 486.394 111.815 486.394 111.815C486.394 111.816 486.394 111.816 486.394 111.817C486.394 111.818 486.394 111.818 486.394 111.819C486.394 111.819 486.394 111.82 486.394 111.821C486.394 111.821 486.394 111.822 486.394 111.822C486.394 111.823 486.394 111.824 486.394 111.824C486.394 111.825 486.394 111.825 486.394 111.826C486.394 111.826 486.394 111.827 486.394 111.828C486.394 111.828 486.394 111.829 486.394 111.829C486.394 111.83 486.394 111.831 486.394 111.831C486.394 111.832 486.394 111.832 486.394 111.833C486.394 111.834 486.394 111.834 486.394 111.835C486.394 111.835 486.394 111.836 486.394 111.837C486.394 111.837 486.394 111.838 486.394 111.838C486.394 111.839 486.394 111.84 486.394 111.84C486.394 111.841 486.394 111.841 486.394 111.842C486.394 111.843 486.394 111.843 486.394 111.844C486.394 111.844 486.394 111.845 486.394 111.846C486.394 111.846 486.394 111.847 486.394 111.847C486.394 111.848 486.394 111.849 486.394 111.849C486.394 111.85 486.394 111.85 486.394 111.851C486.394 111.852 486.394 111.852 486.394 111.853C486.394 111.853 486.394 111.854 486.394 111.855C486.394 111.855 486.394 111.856 486.394 111.856C486.394 111.857 486.394 111.858 486.394 111.858C486.394 111.859 486.394 111.859 486.394 111.86C486.394 111.861 486.394 111.861 486.394 111.862C486.394 111.863 486.394 111.863 486.394 111.864C486.394 111.864 486.394 111.865 486.394 111.866C486.394 111.866 486.394 111.867 486.394 111.867C486.394 111.868 486.394 111.869 486.394 111.869C486.394 111.87 486.394 111.87 486.394 111.871C486.394 111.872 486.394 111.872 486.394 111.873C486.394 111.873 486.394 111.874 486.394 111.875C486.394 111.875 486.394 111.876 486.394 111.877C486.394 111.877 486.394 111.878 486.394 111.878C486.394 111.879 486.394 111.88 486.394 111.88C486.394 111.881 486.394 111.881 486.394 111.882C486.394 111.883 486.394 111.883 486.394 111.884C486.394 111.885 486.394 111.885 486.394 111.886C486.394 111.886 486.394 111.887 486.394 111.888C486.394 111.888 486.394 111.889 486.394 111.889C486.394 111.89 486.394 111.891 486.394 111.891C486.394 111.892 486.394 111.893 486.394 111.893C486.394 111.894 486.394 111.894 486.394 111.895C486.394 111.896 486.394 111.896 486.394 111.897C486.394 111.898 486.394 111.898 486.394 111.899C486.394 111.899 486.394 111.9 486.394 111.901C486.394 111.901 486.394 111.902 486.394 111.903C486.394 111.903 486.394 111.904 486.394 111.904C486.394 111.905 486.394 111.906 486.394 111.906C486.394 111.907 486.394 111.908 486.394 111.908C486.394 111.909 486.394 111.909 486.394 111.91C486.394 111.911 486.394 111.911 486.394 111.912C486.394 111.913 486.394 111.913 486.394 111.914C486.394 111.914 486.394 111.915 486.394 111.916C486.394 111.916 486.394 111.917 486.394 111.918C486.394 111.918 486.394 111.919 486.394 111.919C486.394 111.92 486.394 111.921 486.394 111.921C486.394 111.922 486.394 111.923 486.394 111.923C486.394 111.924 486.394 111.924 486.394 111.925C486.394 111.926 486.394 111.926 486.394 111.927C486.394 111.928 486.394 111.928 486.394 111.929C486.394 111.93 486.394 111.93 486.394 111.931C486.394 111.931 486.394 111.932 486.394 111.933C486.394 111.933 486.394 111.934 486.394 111.935C486.394 111.935 486.394 111.936 486.394 111.936C486.394 111.937 486.394 111.938 486.394 111.938C486.394 111.939 486.394 111.94 486.394 111.94C486.394 111.941 486.394 111.942 486.394 111.942C486.394 111.943 486.394 111.943 486.394 111.944C486.394 111.945 486.394 111.945 486.394 111.946C486.394 111.947 486.394 111.947 486.394 111.948C486.394 111.949 486.394 111.949 486.394 111.95C486.394 111.951 486.394 111.951 486.394 111.952C486.394 111.952 486.394 111.953 486.394 111.954C486.394 111.954 486.394 111.955 486.394 111.956C486.394 111.956 486.394 111.957 486.394 111.958C486.394 111.958 486.394 111.959 486.394 111.96C486.394 111.96 486.394 111.961 486.394 111.961C486.394 111.962 486.394 111.963 486.394 111.963C486.394 111.964 486.394 111.965 486.394 111.965C486.394 111.966 486.394 111.967 486.394 111.967C486.394 111.968 486.394 111.969 486.394 111.969C486.394 111.97 486.394 111.971 486.394 111.971C486.394 111.972 486.394 111.972 486.394 111.973C486.394 111.974 486.394 111.974 486.394 111.975C486.394 111.976 486.394 111.976 486.394 111.977C486.394 111.978 486.394 111.978 486.394 111.979C486.394 111.98 486.394 111.98 486.394 111.981C486.394 111.982 486.394 111.982 486.394 111.983C486.394 111.984 486.394 111.984 486.394 111.985C486.394 111.985 486.394 111.986 486.394 111.987C486.394 111.987 486.394 111.988 486.394 111.989C486.394 111.989 486.394 111.99 486.394 111.991C486.394 111.991 486.394 111.992 486.394 111.993C486.394 111.993 486.394 111.994 486.394 111.995C486.394 111.995 486.394 111.996 486.394 111.997C486.394 111.997 486.394 111.998 486.394 111.999C486.394 111.999 486.394 112 486.394 112.001C486.394 112.001 486.394 112.002 486.394 112.003C486.394 112.003 486.394 112.004 486.394 112.005C486.394 112.005 486.394 112.006 486.394 112.006C486.394 112.007 486.394 112.008 486.394 112.008C486.394 112.009 486.394 112.01 486.394 112.01C486.394 112.011 486.394 112.012 486.394 112.012C486.394 112.013 486.394 112.014 486.394 112.014C486.394 112.015 486.394 112.016 486.394 112.016C486.394 112.017 486.394 112.018 486.394 112.018C486.394 112.019 486.394 112.02 486.394 112.02C486.394 112.021 486.394 112.022 486.394 112.022C486.394 112.023 486.394 112.024 486.394 112.024C486.394 112.025 486.394 112.026 486.394 112.026C486.394 112.027 486.394 112.028 486.394 112.028C486.394 112.029 486.394 112.03 486.394 112.03C486.394 112.031 486.394 112.032 486.394 112.032C486.394 112.033 486.394 112.034 486.394 112.034C486.394 112.035 486.394 112.036 486.394 112.036C486.394 112.037 486.394 112.038 486.394 112.038C486.394 112.039 486.394 112.04 486.394 112.04C486.394 112.041 486.394 112.042 486.394 112.043C486.394 112.043 486.394 112.044 486.394 112.045C486.394 112.045 486.394 112.046 486.394 112.047C486.394 112.047 486.394 112.048 486.394 112.049C486.394 112.049 486.394 112.05 486.394 112.051C486.394 112.051 486.394 112.052 486.394 112.053C486.394 112.053 486.394 112.054 486.394 112.055C486.394 112.055 486.394 112.056 486.394 112.057C486.394 112.057 486.394 112.058 486.394 112.059C486.394 112.059 486.394 112.06 486.394 112.061C486.394 112.061 486.394 112.062 486.394 112.063C486.394 112.063 486.394 112.064 486.394 112.065C486.394 112.066 486.394 112.066 486.394 112.067C486.394 112.068 486.394 112.068 486.394 112.069C486.394 112.07 486.394 112.07 486.394 112.071C486.394 112.072 486.394 112.072 486.394 112.073C486.394 112.074 486.394 112.074 486.394 112.075C486.394 112.076 486.394 112.076 486.394 112.077C486.394 112.078 486.394 112.079 486.394 112.079C486.394 112.08 486.394 112.081 486.394 112.081C486.394 112.082 486.394 112.083 486.394 112.083C486.394 112.084 486.394 112.085 486.394 112.085C486.394 112.086 486.394 112.087 486.394 112.087C486.394 112.088 486.394 112.089 486.394 112.09C486.394 112.09 486.394 112.091 486.394 112.092C486.394 112.092 486.394 112.093 486.394 112.094C486.394 112.094 486.394 112.095 486.394 112.096C486.394 112.096 486.394 112.097 486.394 112.098C486.394 112.099 486.394 112.099 486.394 112.1C486.394 112.101 486.394 112.101 486.394 112.102C486.394 112.103 486.394 112.103 486.394 112.104C486.394 112.105 486.394 112.105 486.394 112.106C486.394 112.107 486.394 112.108 486.394 112.108C486.394 112.109 486.394 112.11 486.394 112.11C486.394 112.111 486.394 112.112 486.394 112.112C486.394 112.113 486.394 112.114 486.394 112.114C486.394 112.115 486.394 112.116 486.394 112.117C486.394 112.117 486.394 112.118 486.394 112.119C486.394 112.119 486.394 112.12 486.394 112.121C486.394 112.121 486.394 112.122 486.394 112.123C486.394 112.124 486.394 112.124 486.394 112.125C486.394 112.126 486.394 112.126 486.394 112.127C486.394 112.128 486.394 112.129 486.394 112.129C486.394 112.13 486.394 112.131 486.394 112.131C486.394 112.132 486.394 112.133 486.394 112.133C486.394 112.134 486.394 112.135 486.394 112.136C486.394 112.136 486.394 112.137 486.394 112.138C486.394 112.138 486.394 112.139 486.394 112.14C486.394 112.14 486.394 112.141 486.394 112.142C486.394 112.143 486.394 112.143 486.394 112.144C486.394 112.145 486.394 112.145 486.394 112.146C486.394 112.147 486.394 112.148 486.394 112.148C486.394 112.149 486.394 112.15 486.394 112.15C486.394 112.151 486.394 112.152 486.394 112.153C486.394 112.153 486.394 112.154 486.394 112.155C486.394 112.155 486.394 112.156 486.394 112.157C486.394 112.158 486.394 112.158 486.394 112.159C486.394 112.16 486.394 112.16 486.394 112.161C486.394 112.162 486.394 112.162 486.394 112.163C486.394 112.164 486.394 112.165 486.394 112.165C486.394 112.166 486.394 112.167 486.394 112.167C486.394 112.168 486.394 112.169 486.394 112.17C486.394 112.17 486.394 112.171 486.394 112.172C486.394 112.173 486.394 112.173 486.394 112.174H487.414ZM486.394 111.347V112.174H487.414V111.347H486.394ZM681.405 237.255L681.901 237.373L682.053 236.729L681.392 236.745L681.405 237.255ZM678.925 247.724L679.269 248.101L679.385 247.995L679.421 247.842L678.925 247.724ZM647.793 276.102L647.525 276.535L647.852 276.738L648.136 276.479L647.793 276.102ZM590.762 240.837H590.252V241.121L590.494 241.27L590.762 240.837ZM590.762 118.786H591.272V118.339L590.829 118.281L590.762 118.786ZM572.028 116.307L571.64 115.976L571.032 116.689L571.961 116.812L572.028 116.307ZM609.772 57.8987L609.337 57.6328L609.285 57.719L609.269 57.8187L609.772 57.8987ZM616.385 43.2967L616.863 43.4742L616.895 43.3883V43.2967H616.385ZM616.385 41.9191L616.841 41.6911L615.875 41.9191H616.385ZM616.385 43.2967L615.901 43.1354L615.87 43.2294L615.876 43.3282L616.385 43.2967ZM619.966 101.154L619.457 101.185L619.487 101.663H619.966V101.154ZM648.344 101.154L648.853 101.18L648.881 100.644H648.344V101.154ZM647.242 122.368V122.878H647.726L647.751 122.394L647.242 122.368ZM621.068 122.368V121.858H620.549L620.559 122.377L621.068 122.368ZM623.272 239.459L622.763 239.469L622.767 239.685L622.924 239.832L623.272 239.459ZM645.864 255.163L646.32 254.935L646.186 254.667L645.887 254.654L645.864 255.163ZM657.711 248.826L658.124 249.125L658.471 248.647L657.946 248.374L657.711 248.826ZM637.599 238.357L637.586 237.847L637.363 238.809L637.599 238.357ZM680.909 237.138L678.429 247.607L679.421 247.842L681.901 237.373L680.909 237.138ZM678.582 247.348L647.449 275.725L648.136 276.479L679.269 248.101L678.582 247.348ZM648.061 275.668L591.031 240.403L590.494 241.27L647.525 276.535L648.061 275.668ZM591.272 240.837V118.786H590.252V240.837H591.272ZM590.829 118.281L572.095 115.801L571.961 116.812L590.695 119.292L590.829 118.281ZM572.416 116.637C584.087 102.945 593.079 91.2167 599.387 81.4559C605.686 71.7086 609.34 63.8741 610.276 57.9786L609.269 57.8187C608.368 63.4946 604.813 71.1804 598.531 80.9024C592.257 90.6109 583.295 102.301 571.64 115.976L572.416 116.637ZM610.208 58.1645C612.253 54.8169 614.471 49.9139 616.863 43.4742L615.907 43.1191C613.523 49.5365 611.332 54.3682 609.337 57.6328L610.208 58.1645ZM616.895 43.2967V41.9191H615.875V43.2967H616.895ZM615.929 42.1472C616.031 42.3509 616.06 42.659 615.901 43.1354L616.868 43.4579C617.077 42.8323 617.106 42.2221 616.841 41.6911L615.929 42.1472ZM615.876 43.3282L619.457 101.185L620.475 101.122L616.894 43.2652L615.876 43.3282ZM619.966 101.663H648.344V100.644H619.966V101.663ZM647.835 101.127L646.732 122.341L647.751 122.394L648.853 101.18L647.835 101.127ZM647.242 121.858H621.068V122.878H647.242V121.858ZM620.559 122.377L622.763 239.469L623.782 239.45L621.578 122.358L620.559 122.377ZM622.924 239.832C628.443 244.982 633.101 248.881 636.895 251.518C638.792 252.837 640.482 253.847 641.963 254.54C643.439 255.231 644.737 255.622 645.841 255.672L645.887 254.654C644.971 254.612 643.812 254.28 642.395 253.617C640.984 252.955 639.345 251.979 637.477 250.681C633.74 248.083 629.122 244.222 623.62 239.086L622.924 239.832ZM645.408 255.391C645.714 256.003 646.112 256.492 646.614 256.827C647.121 257.165 647.703 257.326 648.344 257.326V256.306C647.882 256.306 647.501 256.192 647.18 255.979C646.856 255.763 646.565 255.426 646.32 254.935L645.408 255.391ZM648.344 257.326C649.72 257.326 651.214 256.565 652.807 255.207C654.412 253.838 656.184 251.804 658.124 249.125L657.298 248.527C655.381 251.175 653.663 253.136 652.145 254.431C650.616 255.735 649.355 256.306 648.344 256.306V257.326ZM657.946 248.374L637.834 237.905L637.363 238.809L657.476 249.279L657.946 248.374ZM637.612 238.867L681.418 237.765L681.392 236.745L637.586 237.847L637.612 238.867ZM773.681 205.572L773.988 205.978L774.109 205.887L774.161 205.745L773.681 205.572ZM714.998 249.928L714.562 250.193L714.855 250.676L715.305 250.335L714.998 249.928ZM693.232 203.918L692.849 203.583L692.763 203.681L692.735 203.808L693.232 203.918ZM726.018 185.184L726.434 184.89L726.174 184.521L725.777 184.734L726.018 185.184ZM729.324 189.867L729.532 190.333L730.098 190.08L729.741 189.573L729.324 189.867ZM716.651 203.918L717.139 204.065L717.143 204.05L717.147 204.035L716.651 203.918ZM724.916 222.378L724.839 222.882L724.848 222.883L724.856 222.884L724.916 222.378ZM744.753 195.378L745.23 195.556L745.233 195.547L745.236 195.539L744.753 195.378ZM743.099 171.684L743.566 171.479L743.407 171.116L743.016 171.181L743.099 171.684ZM698.467 179.123L697.995 179.315L698.149 179.693L698.551 179.626L698.467 179.123ZM690.202 151.847L689.694 151.897L689.697 151.922L689.702 151.947L690.202 151.847ZM692.957 125.123L692.619 124.741L692.515 124.833L692.472 124.965L692.957 125.123ZM748.059 76.3578L748.472 76.0593L748.142 75.6027L747.721 75.9759L748.059 76.3578ZM773.405 120.439L773.83 120.722L773.893 120.627L773.91 120.514L773.405 120.439ZM742.273 141.929L741.868 142.239L742.154 142.612L742.549 142.357L742.273 141.929ZM738.691 137.245L738.342 136.874L738.007 137.189L738.286 137.555L738.691 137.245ZM745.028 128.153L745.509 128.323L745.512 128.315L745.028 128.153ZM740.344 104.735L740.32 105.245L740.322 105.245L740.344 104.735ZM728.222 110.245L727.878 109.869L727.87 109.877L727.861 109.885L728.222 110.245ZM720.232 125.674L719.728 125.595L719.722 125.634V125.674H720.232ZM717.753 140.276L718.254 140.368L718.255 140.364L717.753 140.276ZM716.1 152.949L715.594 153.013L715.651 153.475L716.118 153.459L716.1 152.949ZM748.059 153.5L748.174 153.004L748.157 153L748.14 152.997L748.059 153.5ZM772.854 167L773.297 166.747L773.291 166.737L773.285 166.726L772.854 167ZM773.374 205.165L714.69 249.522L715.305 250.335L773.988 205.978L773.374 205.165ZM715.433 249.664C707.631 236.812 701.924 226.567 698.308 218.922C696.499 215.099 695.22 211.939 694.461 209.436C693.695 206.91 693.485 205.131 693.73 204.029L692.735 203.808C692.429 205.185 692.712 207.183 693.485 209.732C694.264 212.302 695.567 215.513 697.386 219.358C701.025 227.05 706.752 237.33 714.562 250.193L715.433 249.664ZM693.616 204.254C693.735 204.118 694.003 203.889 694.465 203.557C694.915 203.233 695.518 202.831 696.277 202.352C697.794 201.394 699.916 200.135 702.646 198.575C708.104 195.456 715.974 191.143 726.259 185.633L725.777 184.734C715.49 190.245 707.61 194.564 702.14 197.69C699.405 199.253 697.268 200.52 695.732 201.49C694.965 201.975 694.342 202.388 693.868 202.73C693.405 203.064 693.051 203.351 692.849 203.583L693.616 204.254ZM725.601 185.478L728.907 190.162L729.741 189.573L726.434 184.89L725.601 185.478ZM729.116 189.402C722.022 192.575 717.667 197.371 716.154 203.802L717.147 204.035C718.573 197.976 722.667 193.404 729.532 190.333L729.116 189.402ZM716.162 203.772C715.598 205.654 715.314 207.54 715.314 209.429H716.334C716.334 207.644 716.602 205.856 717.139 204.065L716.162 203.772ZM715.314 209.429C715.314 213.344 716.082 216.469 717.68 218.745C719.288 221.035 721.696 222.405 724.839 222.882L724.992 221.873C722.075 221.431 719.936 220.184 718.514 218.159C717.081 216.118 716.334 213.227 716.334 209.429H715.314ZM724.856 222.884C728.269 223.285 731.64 221.012 734.97 216.48C738.317 211.924 741.735 204.938 745.23 195.556L744.275 195.2C740.791 204.552 737.412 211.433 734.148 215.877C730.865 220.345 727.808 222.204 724.975 221.871L724.856 222.884ZM745.236 195.539C746.175 192.723 746.64 189.544 746.64 186.01H745.62C745.62 189.456 745.167 192.523 744.269 195.216L745.236 195.539ZM746.64 186.01C746.64 180.98 745.615 176.134 743.566 171.479L742.633 171.889C744.625 176.417 745.62 181.123 745.62 186.01H746.64ZM743.016 171.181L698.383 178.62L698.551 179.626L743.183 172.187L743.016 171.181ZM698.939 178.93C695.277 169.959 692.532 160.898 690.702 151.747L689.702 151.947C691.545 161.164 694.31 170.287 697.995 179.315L698.939 178.93ZM690.709 151.797C689.797 142.496 690.71 133.659 693.442 125.281L692.472 124.965C689.694 133.485 688.769 142.464 689.694 151.897L690.709 151.797ZM693.295 125.505L748.397 76.7396L747.721 75.9759L692.619 124.741L693.295 125.505ZM747.645 76.6562C756.458 88.8653 762.966 98.6293 767.178 105.954C769.284 109.617 770.809 112.657 771.76 115.081C772.72 117.527 773.064 119.267 772.901 120.364L773.91 120.514C774.115 119.132 773.677 117.175 772.709 114.708C771.732 112.219 770.18 109.129 768.062 105.445C763.824 98.0758 757.292 88.2787 748.472 76.0593L747.645 76.6562ZM772.981 120.156C772.883 120.303 772.645 120.558 772.219 120.936C771.804 121.304 771.242 121.76 770.529 122.308C769.104 123.402 767.098 124.843 764.506 126.632C759.324 130.209 751.822 135.165 741.997 141.5L742.549 142.357C752.377 136.02 759.89 131.057 765.085 127.471C767.683 125.678 769.705 124.226 771.15 123.117C771.872 122.562 772.455 122.089 772.896 121.699C773.325 121.319 773.652 120.989 773.83 120.722L772.981 120.156ZM742.678 141.619L739.096 136.936L738.286 137.555L741.868 142.239L742.678 141.619ZM739.041 137.617C742.206 134.638 744.373 131.542 745.509 128.323L744.547 127.984C743.479 131.01 741.422 133.975 738.342 136.874L739.041 137.617ZM745.512 128.315C746.633 124.951 747.191 121.315 747.191 117.409H746.171C746.171 121.217 745.627 124.743 744.544 127.992L745.512 128.315ZM747.191 117.409C747.191 113.248 746.662 110.031 745.553 107.813C744.426 105.559 742.689 104.327 740.367 104.226L740.322 105.245C742.225 105.327 743.656 106.299 744.641 108.269C745.644 110.276 746.171 113.304 746.171 117.409H747.191ZM740.369 104.226C736.323 104.033 732.155 105.964 727.878 109.869L728.566 110.622C732.738 106.812 736.652 105.07 740.32 105.244L740.369 104.226ZM727.861 109.885C723.381 114.365 720.664 119.606 719.728 125.595L720.736 125.753C721.637 119.987 724.247 114.942 728.583 110.606L727.861 109.885ZM719.722 125.674C719.722 125.665 719.722 125.68 719.716 125.739C719.71 125.791 719.701 125.862 719.688 125.953C719.663 126.134 719.625 126.388 719.574 126.714C719.471 127.365 719.316 128.298 719.11 129.515C718.697 131.947 718.077 135.504 717.25 140.187L718.255 140.364C719.081 135.681 719.701 132.121 720.115 129.685C720.322 128.468 720.477 127.53 720.581 126.873C720.633 126.544 720.672 126.284 720.699 126.093C720.722 125.92 720.742 125.763 720.742 125.674H719.722ZM717.251 140.183C716.608 143.677 716.147 146.488 715.87 148.613C715.595 150.716 715.492 152.203 715.594 153.013L716.606 152.886C716.523 152.226 716.604 150.866 716.881 148.745C717.155 146.645 717.612 143.854 718.254 140.368L717.251 140.183ZM716.118 153.459C731.734 152.908 742.34 153.094 747.977 154.004L748.14 152.997C742.39 152.069 731.689 151.889 716.082 152.44L716.118 153.459ZM747.943 153.997C760.583 156.928 768.678 161.388 772.424 167.274L773.285 166.726C769.316 160.49 760.882 155.95 748.174 153.004L747.943 153.997ZM772.412 167.253C775.296 172.301 776.753 178.545 776.753 186.01H777.772C777.772 178.415 776.29 171.985 773.297 166.747L772.412 167.253ZM776.753 186.01C776.753 192.375 775.571 198.836 773.201 205.398L774.161 205.745C776.566 199.082 777.772 192.503 777.772 186.01H776.753Z" fill="black" mask="url(#path-1-outside-1_258_208)"/>
</svg>
