<svg width="41" height="40" viewBox="0 0 41 40" fill="none" xmlns="http://www.w3.org/2000/svg">
<g clip-path="url(#clip0_165_227)">
<path d="M40.1447 20C40.1447 8.95434 31.1904 4.19617e-05 20.1447 4.19617e-05C9.09895 4.19617e-05 0.144653 8.95434 0.144653 20C0.144653 29.9826 7.45836 38.2567 17.0197 39.7571V25.7813H11.9415V20H17.0197V15.5938C17.0197 10.5813 20.0055 7.81254 24.5739 7.81254C26.7621 7.81254 29.0509 8.20317 29.0509 8.20317V13.125H26.5289C24.0445 13.125 23.2697 14.6667 23.2697 16.2484V20H28.8165L27.9298 25.7813H23.2697V39.7571C32.8309 38.2567 40.1447 29.9826 40.1447 20Z" fill="#F6F6F6"/>
<path d="M27.9298 25.7812L28.8165 20H23.2697V16.2483C23.2697 14.6667 24.0445 13.125 26.5289 13.125H29.0509V8.20312C29.0509 8.20312 26.7621 7.8125 24.5739 7.8125C20.0055 7.8125 17.0197 10.5812 17.0197 15.5937V20H11.9415V25.7812H17.0197V39.757C18.0379 39.9168 19.0815 40 20.1447 40C21.2078 40 22.2514 39.9168 23.2697 39.757V25.7812H27.9298Z" fill="#050505"/>
</g>
<defs>
<clipPath id="clip0_165_227">
<rect width="40" height="40" fill="white" transform="translate(0.144653)"/>
</clipPath>
</defs>
</svg>
