<svg width="39" height="40" viewBox="0 0 39 40" fill="none" xmlns="http://www.w3.org/2000/svg">
<path d="M11.4215 0.76709C5.15342 0.76709 0.0567627 5.86375 0.0567627 12.1319V27.8677C0.0567627 34.1358 5.15342 39.2325 11.4215 39.2325H27.1574C33.4255 39.2325 38.5221 34.1358 38.5221 27.8677V12.1319C38.5221 5.86375 33.4255 0.76709 27.1574 0.76709H11.4215ZM29.78 7.76079C30.7416 7.76079 31.5284 8.54758 31.5284 9.50922C31.5284 10.4709 30.7416 11.2576 29.78 11.2576C28.8184 11.2576 28.0316 10.4709 28.0316 9.50922C28.0316 8.54758 28.8184 7.76079 29.78 7.76079ZM19.2894 10.3834C24.5959 10.3834 28.9058 14.6933 28.9058 19.9998C28.9058 25.3062 24.5959 29.6161 19.2894 29.6161C13.983 29.6161 9.6731 25.3062 9.6731 19.9998C9.6731 14.6933 13.983 10.3834 19.2894 10.3834ZM19.2894 12.1319C14.9533 12.1319 11.4215 15.6637 11.4215 19.9998C11.4215 24.3359 14.9533 27.8677 19.2894 27.8677C23.6255 27.8677 27.1574 24.3359 27.1574 19.9998C27.1574 15.6637 23.6255 12.1319 19.2894 12.1319Z" fill="#F5F1FF"/>
</svg>
