<svg width="602" height="166" viewBox="0 0 602 166" fill="none" xmlns="http://www.w3.org/2000/svg">
<path d="M78.3141 114.836C75.0585 113.066 74.5106 102.124 77.1125 97.1537C79.7144 92.1831 88.8693 83.5749 93.8328 86.6616C98.7964 89.7483 96.8353 101.463 94.666 105.609C91.3559 111.909 84.5947 115.305 80.5059 115.305C79.7492 115.327 78.9982 115.166 78.3141 114.836ZM15.1883 104.667C13.019 100.517 11.0707 88.8063 16.0215 85.7196C20.9722 82.633 30.1206 91.2378 32.7386 96.2117C35.3565 101.186 34.8054 112.124 31.5402 113.891C30.8556 114.23 30.0996 114.392 29.3388 114.363C25.2404 114.363 18.476 110.977 15.1787 104.676M39.8523 45.192C40.1983 39.2859 51.2822 35.5376 55.8965 35.5376C64.4072 35.5376 71.5978 42.1151 71.5978 45.8667C71.5978 49.6183 62.3564 55.2636 56.8161 55.2636C51.2758 55.2636 39.5126 51.085 39.8555 45.192M18.0242 47.7311C17.0949 55.244 41.0956 65.5829 45.729 68.3925C50.3625 71.2022 53.0991 80.6089 42.9605 81.541C38.0931 81.9908 33.027 77.4798 27.6212 72.9688C21.7637 68.0601 15.528 63.1612 8.79565 64.6312C-4.13072 67.4506 0.483551 101.267 2.32606 110.654C3.04383 114.288 8.41433 118.369 15.2524 122.871C26.1248 129.999 40.5668 136.586 44.803 132.271C51.7244 125.23 48.5008 112.541 48.5008 107.848C48.5008 105.341 48.2381 100.677 48.5008 96.5735C48.7315 93.0077 48.911 89.7906 55.6946 89.7906C65.9678 89.7906 61.4272 110.667 61.4272 123.816C61.4272 129.419 64.9872 135.087 68.8132 135.087C81.7396 135.087 103.439 116.775 104.83 115.361C106.221 113.946 109.444 111.599 109.444 91.893C109.444 72.1865 105.743 66.5151 99.2898 65.5829C95.1498 64.9832 77.6925 78.927 67.8872 81.5541C62.3981 83.0208 59.5751 78.7347 61.4176 73.0991C63.2601 67.4636 79.6632 61.3457 89.1224 54.3151C93.0221 51.4207 93.7367 48.6046 93.7367 45.8602C93.7463 36.4632 65.125 20.4921 54.9704 20.4921C44.8158 20.4921 18.9503 40.2213 18.0242 47.7311Z" fill="white"/>
<g filter="url(#filter0_d_165_147)">
<path d="M432.298 120.518C432.315 121.288 432.6 121.573 433.019 121.59H433.455V122.109L429.062 122.126V121.489L429.28 121.506C429.951 121.523 430.219 121.338 430.219 120.585C430.236 119.697 430.236 118.508 430.203 117.52C430.203 117.487 430.203 117.47 430.203 117.436C430.186 115.829 430.052 114.221 429.096 114.221C428.207 114.221 427.989 115.644 427.906 116.733C427.906 116.75 427.906 116.767 427.889 116.783V117.202L427.755 118.642V118.659C427.704 119.563 428.023 119.881 428.643 119.898L428.627 120.283L424.334 120.133L424.351 119.747H424.502C424.871 119.764 425.491 119.53 425.625 118.843L425.793 116.951C425.927 115.36 425.81 113.819 424.821 113.685C423.966 113.568 423.513 114.623 423.513 115.711V120.836C423.513 121.724 423.63 122.159 424.401 122.192V122.561L420.026 122.578V121.941L420.747 121.992C421.4 121.975 421.803 121.807 421.803 121.121V114.723C421.803 113.735 420.763 113.501 420.327 113.501L420.596 113.467L419.959 113.501V113.132L423.513 112.965V113.853C423.882 113.149 424.502 112.764 425.34 112.764C426.296 112.764 427.252 113.384 427.671 114.774C427.973 113.853 428.643 113.25 429.716 113.266C430.923 113.266 432.298 114.439 432.298 117.487V120.518Z" fill="#F6F6F6"/>
<path d="M438.396 114.02L438.413 113.652L442.017 113.702L442 114.054H441.43C441.078 114.054 440.592 114.187 440.424 114.807L438.496 121.841C437.658 125.19 436.451 127.518 434.221 127.518C433.031 127.518 432.058 126.463 432.058 125.408C432.058 124.135 432.863 123.599 433.601 123.599C434.255 123.599 434.858 124.001 434.858 124.654C434.858 125.207 434.473 125.525 434.07 125.525C433.869 125.525 433.668 125.441 433.5 125.274C433.5 125.274 434.07 125.173 434.07 124.738C434.07 124.537 433.902 124.42 433.701 124.42C433.366 124.42 432.93 124.705 432.93 125.341C432.93 126.061 433.5 126.547 434.187 126.547C435.378 126.547 436.183 125.575 436.736 124.37L434.69 113.92C434.473 113.166 434.02 112.747 433.148 112.781L432.628 112.797L432.595 112.128L437.876 112.211V112.58L437.524 112.597H437.541C436.786 112.63 436.501 112.982 436.635 113.735C436.652 113.769 436.652 113.819 436.652 113.836L437.926 120.3L439.469 114.79C439.536 114.321 439.335 114.037 438.748 114.02H438.396Z" fill="#F6F6F6"/>
<path d="M444.101 113.752C444.101 115.912 447.974 117.085 447.974 120.233C447.974 122.092 446.666 123.197 444.956 123.197C443.682 123.214 442.358 122.477 442.358 120.886C442.358 119.764 443.079 119.279 443.699 119.279C444.168 119.279 444.571 119.546 444.571 120.032C444.571 120.468 444.286 120.702 443.984 120.702C443.85 120.702 443.716 120.652 443.615 120.535C443.615 120.535 444.001 120.484 444.017 120.183C444.017 120.032 443.883 119.948 443.699 119.948C443.397 119.948 443.012 120.183 443.012 120.819C443.012 121.456 443.531 122.025 444.353 122.042C445.325 122.042 445.761 121.439 445.761 120.568C445.761 118.257 442.324 117.403 442.324 114.64C442.324 112.496 444.068 111.91 445.208 111.91C447.907 111.91 447.907 114.623 447.907 114.623L445.845 115.226L445.778 114.874C446.549 114.64 446.683 114.087 446.566 113.568C446.365 112.764 445.878 112.53 445.342 112.53C444.504 112.53 444.101 113.049 444.101 113.752Z" fill="#F6F6F6"/>
<path d="M452.072 119.881C452.072 119.245 452.592 118.877 453.162 118.877C453.833 118.877 454.587 119.413 454.587 120.635C454.587 122.059 453.497 122.879 452.307 122.879C450.848 122.879 449.205 121.64 449.205 118.776V112.931L447.663 112.965L447.613 112.262L449.205 112.245V110.051L451.251 109.951V112.211L453.447 112.195L453.497 112.814L451.251 112.881V118.96C451.251 120.702 451.687 121.757 452.726 121.757C453.279 121.757 453.866 121.204 453.866 120.267C453.866 119.764 453.581 119.546 453.313 119.546C453.078 119.546 452.877 119.714 452.877 119.965C452.877 120.384 453.447 120.501 453.447 120.501C453.279 120.669 453.078 120.752 452.877 120.752C452.458 120.752 452.072 120.434 452.072 119.881Z" fill="#F6F6F6"/>
<path d="M456.986 111.776C456.399 111.776 455.946 111.307 455.946 110.738C455.946 110.168 456.399 109.699 456.986 109.699C457.556 109.699 458.009 110.168 458.009 110.738C458.009 111.307 457.556 111.776 456.986 111.776ZM456.399 114.723C456.399 113.735 455.343 113.484 454.924 113.484L454.555 113.501V113.132L459.97 112.831V113.199L459.182 113.25C458.612 113.317 458.126 113.568 458.126 114.254V120.082C458.126 120.953 458.31 121.472 459.249 121.573L460.037 121.64V122.008L454.622 121.824V121.188L455.158 121.238C455.963 121.238 456.399 121.104 456.399 120.367V114.723Z" fill="#F6F6F6"/>
<path d="M464.855 117.637L466.934 117.085C468.074 120.501 466.028 122.142 464.251 122.142C462.424 122.276 460.211 121.054 459.909 116.934C459.909 114.154 461.267 111.692 464.134 111.692C467.42 111.692 467.504 116.18 465.039 116.18C464.167 116.18 463.581 115.477 463.581 114.941C463.581 114.472 463.866 113.819 464.687 113.819C465.609 113.819 465.944 114.723 465.425 115.192C465.425 115.192 465.341 114.623 464.922 114.623C464.368 114.589 464.436 115.46 465.274 115.46C466.431 115.46 466.481 112.329 464.352 112.329C463.01 112.329 462.105 113.451 462.105 116.331C462.105 119.764 463.48 121.288 464.972 121.188C465.71 121.188 466.582 120.233 466.347 118.893C466.347 118.91 466.33 118.893 466.33 118.826C466.196 118.357 465.944 117.922 465.358 117.922C465.24 117.922 465.106 117.939 464.972 117.972L464.855 117.637Z" fill="#F6F6F6"/>
<path d="M481.584 112.63L481.618 112.262L485.072 112.312L485.055 112.664H484.317C483.999 112.68 483.68 112.814 483.58 113.35L482.808 118.073C482.624 119.613 483.412 119.814 484.418 119.798H484.753L484.703 120.501L478.952 120.484L478.919 119.848H479.405C480.126 119.781 480.143 118.994 479.975 118.274L479.355 115.544L478.449 119.195L478.416 119.396C478.164 120.367 478.298 120.853 479.254 120.936H479.422L479.388 121.64L473.788 121.456L473.738 120.836H474.191C475.029 120.819 475.398 119.965 475.297 119.228L474.643 114.64C474.492 113.769 474.04 113.25 473.084 113.283L472.631 113.3L472.598 112.647L477.862 112.73L477.879 113.099L477.51 113.116C476.756 113.132 476.471 113.668 476.605 114.439C476.605 114.472 476.605 114.489 476.605 114.522L477.359 119.63L478.969 113.266C479.187 112.396 478.885 111.943 477.795 111.994H477.812L477.493 112.01L477.477 111.341L481.97 111.441L481.987 111.793L481.266 111.843C480.277 111.943 480.344 112.931 480.495 113.635L481.786 119.228L482.691 113.467C482.758 112.898 482.389 112.664 481.735 112.63H481.584Z" fill="#F6F6F6"/>
<path d="M498.255 115.963C498.255 116.097 498.255 116.18 498.239 116.231C498.155 118.676 497.031 121.405 494.584 121.405C493.728 121.456 492.79 121.154 492.035 120.451C491.448 121.69 490.476 122.594 489.084 122.594C487.24 122.728 485.027 121.171 485.027 117.386C485.027 115.092 486.234 112.446 488.95 112.446C489.805 112.446 490.593 112.764 491.214 113.317C491.834 112.128 492.907 111.257 494.466 111.257C496.595 111.257 498.255 113.183 498.255 115.963ZM494.533 120.719C495.774 120.719 496.059 118.625 496.059 115.226C496.059 114.338 495.807 111.893 494.533 111.893C493.712 111.893 492.739 113.015 492.739 115.896C492.739 119.329 493.259 120.719 494.533 120.719ZM489.017 121.908C490.224 121.908 490.526 119.664 490.543 116.432V115.912C490.543 114.64 490.057 113.065 489 113.065C488.196 113.065 487.223 114.204 487.223 117.068C487.223 120.501 487.743 121.908 489.017 121.908Z" fill="#F6F6F6"/>
<path d="M507.165 123.716L507.182 124.353L503.543 124.571C503.225 125.09 502.755 125.441 502.152 125.492C500.19 125.592 498.799 123.917 498.648 121.355C498.631 121.221 498.631 121.104 498.648 120.987C498.597 118.207 500.207 117.068 501.347 117.001C501.9 116.967 502.37 117.051 502.772 117.286L502.202 112.077C502.185 112.061 502.185 111.977 502.169 111.809C502.085 111.056 501.431 110.855 500.526 110.855L500.073 110.872L500.056 110.52L505.757 110.319L505.79 110.687L505.036 110.704H505.404C504.298 110.771 504.046 111.006 504.063 111.742L505.203 122.259C505.203 122.243 505.203 122.243 505.203 122.243L505.22 122.46C505.304 123.181 505.505 123.951 506.511 123.817L507.165 123.716ZM502.521 124.37C503.124 124.336 503.342 123.365 503.342 122.611L502.94 118.86C502.772 118.341 502.403 117.905 501.884 117.939C500.911 117.989 500.66 119.597 500.743 121.204C500.743 121.271 500.743 121.338 500.743 121.405C500.911 123.482 501.716 124.42 502.521 124.37Z" fill="#F6F6F6"/>
<path d="M507.612 113.752C507.612 115.912 511.485 117.085 511.485 120.233C511.485 122.092 510.177 123.197 508.467 123.197C507.193 123.214 505.869 122.477 505.869 120.886C505.869 119.764 506.59 119.279 507.21 119.279C507.679 119.279 508.082 119.546 508.082 120.032C508.082 120.468 507.797 120.702 507.495 120.702C507.361 120.702 507.227 120.652 507.126 120.535C507.126 120.535 507.512 120.484 507.528 120.183C507.528 120.032 507.394 119.948 507.21 119.948C506.908 119.948 506.523 120.183 506.523 120.819C506.523 121.456 507.042 122.025 507.864 122.042C508.836 122.042 509.272 121.439 509.272 120.568C509.272 118.257 505.835 117.403 505.835 114.64C505.835 112.496 507.579 111.91 508.719 111.91C511.418 111.91 511.418 114.623 511.418 114.623L509.356 115.226L509.289 114.874C510.06 114.64 510.194 114.087 510.077 113.568C509.876 112.764 509.389 112.53 508.853 112.53C508.015 112.53 507.612 113.049 507.612 113.752Z" fill="#F6F6F6"/>
<path d="M226.601 34.9007C226.601 37.396 223.784 40.0588 223.247 42.2694L224.304 42.2191C225.31 42.2191 226.148 41.633 226.232 40.5779L226.248 39.975L226.601 40.0085L226.483 42.956L220.967 43.1067C220.967 39.975 224.823 36.6591 224.823 34.0131C224.823 33.3098 224.438 32.6231 223.583 32.6231C223.046 32.6231 222.577 32.8743 222.359 33.6782C222.258 34.1806 222.375 34.7333 223.147 34.9845L223.08 35.3361L221.101 34.7333H221.017V34.7165C221.051 34.4653 221.302 32.0203 223.868 32.0203C225.008 32.0203 226.601 32.7571 226.601 34.9007Z" fill="#F6F6F6"/>
<path d="M232.007 31.7356C233.834 31.7356 236.383 33.7452 236.383 37.8817C236.383 42.1186 233.834 43.8268 232.007 43.8268C230.163 43.8268 227.631 41.9679 227.631 37.8482C227.631 34.2308 229.291 31.7356 232.007 31.7356ZM230.498 41.7837C231.571 40.2095 233.818 32.5394 232.007 32.5394C230.263 32.5394 229.811 35.3026 229.811 37.8482C229.811 39.4056 230.045 40.8291 230.498 41.7837ZM231.085 42.6545C231.353 42.889 231.655 43.023 232.007 43.023C233.482 43.023 234.186 40.7789 234.186 37.8817C234.186 36.5252 234.019 35.2524 233.684 34.2811C233.684 35.8553 232.024 42.1521 231.085 42.6545Z" fill="#F6F6F6"/>
<path d="M236.833 38.987V37.7979H240.521V38.987H236.833Z" fill="#F6F6F6"/>
<path d="M246.625 34.9007C246.625 37.396 243.808 40.0588 243.272 42.2694L244.328 42.2191C245.334 42.2191 246.172 41.633 246.256 40.5779L246.273 39.975L246.625 40.0085L246.507 42.956L240.991 43.1067C240.991 39.975 244.848 36.6591 244.848 34.0131C244.848 33.3098 244.462 32.6231 243.607 32.6231C243.07 32.6231 242.601 32.8743 242.383 33.6782C242.282 34.1806 242.4 34.7333 243.171 34.9845L243.104 35.3361L241.126 34.7333H241.042V34.7165C241.075 34.4653 241.327 32.0203 243.892 32.0203C245.032 32.0203 246.625 32.7571 246.625 34.9007Z" fill="#F6F6F6"/>
<path d="M252.42 37.262C253.677 37.597 254.784 38.7693 254.599 40.8291C254.314 43.6259 252.504 44.6809 250.592 44.4967C246.77 44.1115 247.591 40.0085 247.591 40.0085L249.771 40.0588V40.5947L249.654 40.5779L249.67 40.5947C248.798 40.4942 248.564 41.1473 248.58 41.6832C248.58 41.7502 248.58 41.8004 248.597 41.8507C248.597 41.8674 248.597 41.8842 248.597 41.9009C248.715 42.6713 249.134 43.5421 250.425 43.6593C253.074 43.9273 253.795 38.1831 251.297 37.9319C250.592 37.8649 250.324 38.2333 250.324 38.2333L249.905 37.7644C249.939 37.7309 249.989 37.6807 250.039 37.6472C250.408 37.3123 252.303 36.4414 252.487 34.6663C252.638 33.0753 251.749 32.3719 250.877 32.305C248.698 32.0705 248.077 34.7333 249.452 35.3194C249.57 35.3696 249.67 35.3864 249.771 35.3864C250.391 35.3864 250.576 34.549 250.089 34.5155C249.67 34.4988 249.536 35.0514 249.536 35.0514C249.1 34.5658 249.436 33.6447 250.089 33.6949C251.515 33.8289 251.414 36.2405 249.519 36.0395C247.139 35.8051 247.273 31.3001 251.162 31.7021C252.705 31.8528 254.465 32.8241 254.298 34.683C254.164 36.0228 253.275 36.8099 252.42 37.262Z" fill="#F6F6F6"/>
<path d="M258.224 38.3888C260.149 38.3888 260.344 41.2154 258.341 41.2154C257.534 41.2154 257.504 40.1275 258.156 40.1275C258.36 40.1275 258.516 40.3023 258.477 40.4966C258.477 40.4966 258.38 40.3994 258.273 40.3994C258.243 40.3994 258.205 40.4092 258.175 40.4286C258.03 40.5257 258.059 40.8268 258.37 40.8268C258.983 40.8268 259.099 38.9328 257.952 38.9328C257.154 38.9328 256.989 39.739 256.989 40.38V42.9929C256.989 43.5077 257.31 43.7602 257.767 43.7894V43.9933L255.044 44.003V43.6339L255.443 43.6534C255.793 43.6339 255.987 43.5368 255.987 43.1677V39.535C255.987 38.9619 255.365 38.8162 255.122 38.8162L254.918 38.8259V38.6219L256.989 38.5054V39.1173C257.242 38.6608 257.689 38.3888 258.224 38.3888Z" fill="#F6F6F6"/>
<path d="M268.539 46.0388L268.555 46.6752L264.917 46.8929C264.599 47.412 264.129 47.7637 263.526 47.814C261.564 47.9145 260.172 46.2398 260.021 43.6775C260.005 43.5435 260.005 43.4263 260.021 43.3091C259.971 40.5291 261.581 39.3903 262.721 39.3233C263.274 39.2898 263.744 39.3735 264.146 39.608L263.576 34.3997C263.559 34.383 263.559 34.2992 263.542 34.1318C263.459 33.3781 262.805 33.1772 261.899 33.1772L261.447 33.1939L261.43 32.8422L267.13 32.6413L267.164 33.0097L266.409 33.0265H266.778C265.672 33.0935 265.42 33.3279 265.437 34.0648L266.577 44.5818C266.577 44.5651 266.577 44.5651 266.577 44.5651L266.594 44.7828C266.678 45.5029 266.879 46.2733 267.885 46.1393L268.539 46.0388ZM263.894 46.6919C264.498 46.6584 264.716 45.6871 264.716 44.9335L264.314 41.1822C264.146 40.663 263.777 40.2276 263.257 40.2611C262.285 40.3114 262.033 41.9191 262.117 43.5268C262.117 43.5938 262.117 43.6607 262.117 43.7277C262.285 45.8043 263.09 46.7422 263.894 46.6919Z" fill="#F6F6F6"/>
<path d="M273.055 32.238C271.948 32.3217 271.932 33.6112 272.082 35.0849L272.15 36.0563L274.48 35.8553L274.53 36.5419L272.217 36.7261L272.82 43.8436C272.904 44.9656 273.457 45.0493 274.312 45.0326L274.346 45.401L269.299 45.8197L269.249 45.1833L270.054 45.1498C270.724 45.0661 271.009 44.7479 270.942 44.078L270.339 36.8769L269.048 36.9941L268.981 36.3242L270.272 36.2237C270.087 33.7619 270.456 31.7691 272.887 31.5681C274.899 31.4006 275.637 33.0251 275.704 33.8289L274.346 34.4653C274.262 33.3768 274.178 32.1542 273.055 32.238Z" fill="#F6F6F6"/>
<path d="M279.529 40.176C278.556 40.176 277.618 39.6903 277.366 38.8195C277.433 42.0349 278.372 43.3579 279.613 43.3579C280.635 43.3579 281.206 42.2359 281.206 41.0301L282.48 40.8124C282.463 43.023 281.055 44.0445 279.512 44.0445C277.668 44.1785 275.17 42.621 275.17 38.8195C275.17 36.5419 276.545 33.8959 279.244 33.8959C283.251 33.8959 284.005 40.176 279.529 40.176ZM277.383 37.8984C277.517 37.53 277.836 37.2118 278.422 37.2118C279.344 37.2118 279.68 38.1161 279.16 38.6018C279.16 38.6018 279.059 38.0324 278.64 38.0156C278.104 37.9821 278.305 39.4391 279.512 39.4391C281.574 39.4391 281.558 34.5155 279.462 34.5155C278.724 34.5155 277.567 35.4869 277.383 37.8984Z" fill="#F6F6F6"/>
<path d="M287.503 33.9964C289.046 33.9964 290.286 35.3361 290.286 39.0037C290.286 42.0851 289.18 44.1618 287.503 44.1618C286.849 44.1618 286.346 43.9775 285.978 43.6426H282.105V43.023L282.809 43.0565C283.446 43.0397 283.764 42.8555 283.865 42.3531L283.614 32.2547C283.58 31.2666 283.345 30.9652 282.105 30.9652H281.719V30.6135H287.436V30.9652C286.296 30.9652 285.441 30.9819 285.475 31.8695L285.558 35.0514C285.961 34.3648 286.631 33.9964 287.503 33.9964ZM286.883 42.8722C287.989 42.8722 288.191 40.7621 288.191 39.0372V38.9702C288.207 37.0611 288.057 35.1519 286.732 35.1519C286.028 35.1519 285.625 35.9725 285.592 36.7596L285.709 41.0301C285.726 41.0971 285.726 41.1976 285.726 41.2645V41.4823C285.76 42.2861 286.145 42.8722 286.883 42.8722Z" fill="#F6F6F6"/>
<path d="M399.095 39.9304C400.977 40.9505 403.062 41.5437 405.2 41.6679C405.158 42.0516 404.823 42.0168 404.697 42.1982C404.013 42.4691 403.263 42.5275 402.546 42.3657C402.136 42.3344 401.735 42.2354 401.358 42.0726C399.612 41.6469 398.103 40.677 396.468 39.9304C395.858 39.6225 395.222 39.368 394.568 39.1698C394.337 39.1349 394.435 39.3093 394.414 39.2117C394.393 39.114 394.414 39.1698 394.477 39.2117C395.514 39.477 396.504 39.9007 397.411 40.4677C398.776 41.2511 400.187 41.9502 401.637 42.561C402.077 42.7121 402.536 42.8014 403 42.8262C403 43.189 402.588 42.9797 402.518 43.2239C401.81 43.5307 401.035 43.6464 400.268 43.5594C399.502 43.4725 398.772 43.1859 398.152 42.7285C397.366 42.2365 396.613 41.6958 395.895 41.1096C395.451 40.765 394.984 40.4503 394.498 40.1676C394.798 40.3142 395.197 40.691 395.679 41.005C396.95 42.0447 398.2 43.0983 399.87 43.5519C400.01 43.594 400.128 43.6892 400.198 43.817C399.546 44.2743 398.81 44.5991 398.033 44.773C396.587 45.087 395.644 44.3543 394.917 43.2169C394.599 42.7713 394.332 42.2915 394.121 41.7865C394.499 42.4466 394.71 43.1893 394.735 43.9496C394.791 44.9893 394.135 45.5615 393.338 46.043C393.244 46.0887 393.14 46.1125 393.034 46.1125C392.929 46.1125 392.825 46.0887 392.731 46.043C391.718 45.9244 391.389 45.2336 391.291 44.3404C391.334 43.969 391.488 43.619 391.732 43.3356C392.339 42.4564 392.137 41.4655 392.088 40.5026C392.053 39.8815 391.969 39.2675 391.969 38.6464C391.927 37.8635 392.185 37.0939 392.691 36.4948C393.198 35.8957 393.914 35.5122 394.694 35.4227C396.524 35.1156 398.305 35.4994 400.094 35.7995C404.089 36.4973 408.071 37.2997 412.151 37.2648C413.49 37.3152 414.82 37.0322 416.021 36.4414C416.203 36.3647 416.35 36.3647 416.357 36.6229C415.462 37.8161 414.163 38.151 412.787 38.3185C409.937 38.6813 407.128 38.1929 404.313 37.8231L400.562 37.3276C399.402 37.3276 398.263 37.0555 396.999 37.1322C398.001 37.0558 399.008 37.1694 399.968 37.4672C402.546 37.9068 405.081 38.6116 407.701 38.8628C408.959 38.9791 410.226 38.9628 411.481 38.8139C411.676 38.8139 411.879 38.8139 412.27 38.772C410.797 39.8283 408.971 40.2711 407.177 40.0071C405.005 39.8257 402.944 39.1349 400.834 38.6464C399.102 38.479 397.467 37.7672 395.818 37.7184C397.202 37.8512 398.569 38.1247 399.898 38.5348C400.034 38.5773 400.153 38.66 400.24 38.772C402.616 39.6094 404.984 40.4677 407.631 40.37C407.376 40.6487 407.062 40.8667 406.711 41.008C406.361 41.1493 405.983 41.2102 405.605 41.1864C403.6 41.2631 401.784 40.4886 399.947 39.8885L399.542 39.7629C398.361 39.6513 397.355 38.9814 396.223 38.7092L395.12 38.4162C396.252 38.6881 397.357 39.0594 398.424 39.5257C398.681 39.596 398.913 39.7361 399.095 39.9304Z" fill="#F6F6F6"/>
<path d="M361.504 41.2073C360.857 41.0997 360.243 40.8468 359.709 40.4677C360.822 40.4185 361.93 40.295 363.027 40.0978C365.255 39.5815 367.358 38.6116 369.607 38.158C370.439 37.9835 371.284 37.851 372.115 37.6626C371.197 37.5674 370.268 37.6552 369.384 37.9207C366.638 38.5069 363.97 39.4349 361.19 39.8676C359.282 40.1606 357.431 40.2025 355.72 39.1698C355.619 39.1127 355.526 39.0448 355.44 38.9674C355.398 38.9256 355.286 38.9186 355.384 38.7581C355.999 38.8139 356.649 38.8976 357.298 38.9395C359.665 38.9952 362.028 38.7228 364.319 38.1301C366.34 37.6665 368.389 37.3355 370.453 37.1392C368.924 37.0457 367.389 37.1418 365.884 37.4253C362.828 37.9725 359.742 38.3291 356.642 38.4929C355.18 38.5926 353.716 38.3288 352.38 37.7254C352.03 37.5786 351.717 37.3544 351.465 37.0694C351.381 36.9369 351.249 36.8182 351.333 36.6508C351.416 36.4833 351.514 36.5601 351.619 36.6508C354.015 37.5579 356.509 37.3904 358.968 37.1602C362.747 36.8113 366.443 35.9321 370.201 35.4645C371.215 35.2938 372.254 35.3558 373.24 35.646C373.855 35.8146 374.399 36.1776 374.791 36.6807C375.183 37.1838 375.401 37.7999 375.413 38.4371C375.467 39.1734 375.435 39.9135 375.315 40.6421C375.161 41.2191 375.14 41.8234 375.254 42.4096C375.368 42.9958 375.613 43.5486 375.972 44.0264C376.059 44.5736 375.926 45.1332 375.601 45.5824C375.388 45.7796 375.129 45.9192 374.847 45.988C374.565 46.0569 374.27 46.0527 373.99 45.9758C373.71 45.8989 373.455 45.7519 373.248 45.5488C373.041 45.3456 372.889 45.093 372.807 44.8149C372.507 43.9915 372.898 43.2797 373.107 42.5331C373.254 42.2052 373.163 41.8353 373.366 41.5771C373.29 41.7903 373.148 41.9737 372.961 42.1005C372.695 42.6099 372.465 43.1262 372.171 43.6147C371.888 44.1165 371.44 44.5047 370.902 44.7134C370.365 44.922 369.771 44.9382 369.223 44.7591C368.53 44.5743 367.869 44.2874 367.26 43.9078C367.442 43.6077 367.875 43.8031 368.092 43.5379C369.691 42.5995 371.212 41.5331 372.639 40.349C372.807 40.2374 372.989 40.1397 373.163 40.035C372.897 40.1541 372.65 40.3117 372.43 40.5026C371.522 41.1096 370.683 41.8004 369.789 42.4215C369.168 42.9311 368.419 43.2617 367.623 43.3774C366.925 43.3286 366.303 43.9078 365.577 43.5449C365.192 43.3495 364.738 43.3077 364.452 42.889L365.8 42.5471C367.062 42.0655 368.282 41.4797 369.447 40.7956C370.574 40.1279 371.762 39.5695 372.996 39.1279C371.295 39.769 369.643 40.5292 368.05 41.4027C367.289 41.7981 366.475 42.0802 365.633 42.24C364.599 42.4215 363.537 42.6517 362.559 42.1005C362.496 42.0786 362.439 42.0437 362.39 41.998C362.342 41.9523 362.304 41.8968 362.279 41.8353C362.51 41.6609 362.81 41.7307 363.069 41.6539C363.795 41.3554 364.552 41.1355 365.325 40.998C367.086 40.4537 368.713 39.6024 370.446 38.9953C371.144 38.7651 371.801 38.6185 372.437 38.458C370.746 38.8502 369.096 39.404 367.512 40.1118C366.464 40.5095 365.416 40.8096 364.312 41.1445C363.837 41.305 363.369 41.0678 362.915 41.2422C362.45 41.3559 361.963 41.3439 361.504 41.2073Z" fill="#F6F6F6"/>
<path d="M385.319 55.2817L383.041 55.4282C382.399 55.4282 382.112 55.0444 381.951 54.4443C381.505 52.8493 380.954 51.2853 380.303 49.7622C380.018 49.0551 379.652 48.3831 379.213 47.7595C378.75 46.9739 377.998 46.4003 377.117 46.1616C376.951 46.1415 376.797 46.0623 376.684 45.9383C375.825 45.7569 375.825 45.7569 376.265 44.5427C376.349 44.1101 376.614 44.1171 376.964 44.2567C377.313 44.3962 377.662 44.787 378.109 44.9544C379.056 45.6011 380.062 46.1571 381.113 46.6152C382.126 47.0372 383.225 47.2111 384.319 47.1225C385.412 47.0339 386.469 46.6853 387.4 46.1058C388.381 45.5592 389.33 44.9582 390.244 44.3055C390.893 43.838 391.061 43.9078 391.41 44.6474C391.697 45.6941 391.697 45.6941 390.712 45.9802C389.894 46.2623 389.197 46.8134 388.735 47.5432C387.881 48.8564 387.227 50.2884 386.793 51.7928C386.499 52.6161 386.199 53.4465 385.982 54.3048C385.959 54.5091 385.887 54.7048 385.771 54.8749C385.655 55.0451 385.5 55.1847 385.319 55.2817Z" fill="#F6F6F6"/>
<path d="M383.223 39.3791C383.684 39.3791 384.152 39.2256 384.578 39.5047C385.277 40.2025 385.549 41.1864 386.178 41.94C386.283 42.0656 386.359 42.2191 386.457 42.3517C387.498 43.838 388.343 44.159 390.125 43.7473C390.376 43.6914 390.691 43.503 390.823 43.9496C389.623 44.8531 388.349 45.656 387.016 46.35C385.917 46.9103 384.693 47.1796 383.46 47.1319C382.227 47.0843 381.027 46.7213 379.974 46.0779C379.402 45.7833 378.853 45.445 378.333 45.0661C378.025 44.8288 377.592 44.7381 377.418 44.3683C377.418 44.1939 377.578 44.138 377.725 44.1031C378.13 43.9985 378.521 44.2287 378.927 44.159C379.707 44.0066 380.399 43.5623 380.862 42.9169C381.536 41.9968 382.149 41.0342 382.699 40.035C382.827 39.7833 383.006 39.5602 383.223 39.3791Z" fill="#F6F6F6"/>
<path d="M377.026 43.0913C378.191 41.3178 379.974 40.0396 382.028 39.5047C382.273 39.3791 382.566 39.3233 382.727 39.5047C382.888 39.6861 382.727 39.9583 382.573 40.1537C382.014 41.0608 381.49 41.9888 380.855 42.8471C380.5 43.3774 379.978 43.7744 379.372 43.9753C378.766 44.1763 378.11 44.1697 377.508 43.9566C377.117 43.824 376.754 43.6217 377.026 43.0913Z" fill="#F6F6F6"/>
<path d="M384.941 39.5187C386.085 39.6759 387.182 40.0769 388.157 40.6945C389.132 41.3121 389.963 42.1319 390.593 43.0983C390.865 43.3914 390.593 43.51 390.411 43.6356C389.943 43.8674 389.423 43.9738 388.901 43.9445C388.379 43.9151 387.874 43.751 387.435 43.4682C386.428 42.4244 385.589 41.231 384.948 39.9304C384.908 39.8695 384.886 39.7985 384.885 39.7255C384.884 39.6526 384.903 39.5809 384.941 39.5187Z" fill="#F6F6F6"/>
<path d="M378.004 52.5533C377.012 52.03 376.656 51.0531 376.265 50.1041C376.265 49.7901 376.488 49.8669 376.656 49.9087C376.925 49.9933 377.179 50.118 377.411 50.2786C378.262 50.7096 379.19 50.9703 380.142 51.0461C380.381 51.0363 380.615 51.1116 380.803 51.2587C380.991 51.4057 381.121 51.6148 381.169 51.8486C381.274 52.2114 381.4 52.5464 381.497 52.9441C381.651 53.4884 381.497 53.7605 380.931 53.7117C379.857 53.6489 378.831 53.2428 378.004 52.5533Z" fill="#F6F6F6"/>
<path d="M391.34 50.2437C390.879 51.088 390.537 52.016 389.657 52.5603C389.559 52.6161 389.454 52.658 389.349 52.7069C388.64 53.2157 387.798 53.5089 386.925 53.5512C386.862 53.5687 386.795 53.5724 386.73 53.5621C386.665 53.5517 386.603 53.5275 386.548 53.4911C386.493 53.4548 386.446 53.4071 386.412 53.3512C386.377 53.2954 386.354 53.2327 386.345 53.1674C386.491 52.5928 386.668 52.0267 386.876 51.4718C386.919 51.3208 387.011 51.1885 387.137 51.0961C387.264 51.0037 387.418 50.9566 387.575 50.9624C388.702 50.8856 389.797 50.5591 390.782 50.0064C391.145 49.7971 391.271 49.8738 391.34 50.2437Z" fill="#F6F6F6"/>
<path d="M376.286 49.5249C376.121 49.3355 375.998 49.113 375.925 48.8724C375.853 48.6317 375.833 48.3784 375.867 48.1294C376.09 47.9131 376.307 48.0735 376.523 48.1294C377.339 48.4625 378.213 48.6263 379.094 48.6108C379.324 48.5823 379.556 48.6371 379.748 48.7652C379.94 48.8933 380.08 49.0862 380.142 49.3086C380.303 49.7273 380.47 50.146 380.659 50.5577C380.848 50.9694 380.694 51.1229 380.282 51.1229C379.356 51.0642 378.449 50.8273 377.613 50.4251C377.208 50.0692 376.628 49.9715 376.286 49.5249Z" fill="#F6F6F6"/>
<path d="M391.34 50.2437C391.305 50.0832 391.34 49.8808 391.054 50.0553C389.973 50.7173 388.743 51.0965 387.477 51.1578C387.17 51.1578 387.079 51.3183 387.002 51.5695C386.835 52.0928 386.632 52.6022 386.443 53.1116C386.359 53.3698 386.506 53.6419 386.38 53.9001C386.346 54.2629 385.982 54.6537 386.471 54.9747C386.143 55.2887 385.703 55.1561 385.319 55.2538C385.744 54.4631 386.059 53.6179 386.255 52.7417C386.953 50.8577 387.505 48.9388 388.672 47.285C389.149 46.5605 389.866 46.0269 390.698 45.7778C391.592 45.5196 391.592 45.5266 391.354 44.6474C391.257 44.4869 391.229 44.3613 391.487 44.3683C391.553 44.7376 391.706 45.0857 391.935 45.3833C392.163 45.6808 392.46 45.9191 392.8 46.0779C392.493 46.3291 392.102 45.9523 391.773 46.2453C391.113 46.182 390.451 46.348 389.899 46.7153C389.346 47.0826 388.938 47.6289 388.742 48.2619C389.44 48.4434 390.139 48.0456 390.837 48.1015C390.977 48.1503 391.11 48.2061 391.089 48.3876C390.53 48.9597 389.762 48.8969 389.077 48.9458C388.767 48.9473 388.468 49.0569 388.231 49.2557C387.993 49.4545 387.833 49.73 387.778 50.0343C387.603 50.5577 387.708 50.6833 388.274 50.5856C388.979 50.4594 389.66 50.224 390.292 49.8878C390.516 49.7692 390.74 49.5808 390.991 49.7761C391.319 49.8041 391.662 49.7761 391.34 50.2437Z" fill="#050505"/>
<path d="M391.019 49.7971C390.228 50.172 389.408 50.4824 388.567 50.7251C388.165 50.8223 387.748 50.8459 387.337 50.7949C387.5 50.1967 387.735 49.6203 388.036 49.0784C388.183 48.7783 388.392 48.8202 388.623 48.8062C389.459 48.7992 390.287 48.653 391.075 48.3736C391.278 48.1503 391.501 48.0177 391.773 48.255C391.789 48.5548 391.728 48.8536 391.596 49.1233C391.464 49.3931 391.265 49.6249 391.019 49.7971Z" fill="#F6F6F6"/>
<path d="M377.578 50.2437C378.508 50.783 379.58 51.0264 380.652 50.9415C380.387 50.3274 380.128 49.7343 379.877 49.1342C379.847 49.0309 379.782 48.9416 379.692 48.8827C379.602 48.8237 379.494 48.7991 379.388 48.8132C378.185 48.8487 376.991 48.6101 375.895 48.1154V47.7805C376.272 47.606 376.593 47.8223 376.915 47.9479C377.435 48.1229 377.97 48.2468 378.514 48.3178C378.982 48.4085 379.213 48.2201 379.122 47.7526C379.178 47.6479 379.248 47.5781 379.374 47.6409C380.498 49.2249 381.001 51.095 381.7 52.9022C381.899 53.4363 382.067 53.9815 382.203 54.5351C382.235 54.7521 382.335 54.9532 382.49 55.109C382.645 55.2647 382.845 55.3668 383.062 55.4003C382.562 55.4366 382.062 55.3352 381.616 55.1072C381.791 54.4095 381.616 54.1652 380.918 54.0257C380.047 53.9217 379.202 53.6616 378.424 53.2581C378.347 53.1395 378.263 53.0139 378.102 53.0139C377.404 53.0139 377.809 52.7627 377.99 52.5533C378.731 52.9138 379.502 53.2057 380.296 53.4256C380.415 53.4256 380.526 53.4954 380.638 53.5163C381.525 53.6628 381.553 53.6279 381.274 52.8185C381.22 52.6845 381.176 52.5469 381.141 52.4068C380.994 51.6253 380.694 51.1787 379.744 51.2206C378.861 51.1961 378.005 50.9094 377.285 50.3972C377.285 50.139 377.411 50.146 377.578 50.2437Z" fill="#050505"/>
<path d="M379.143 47.8223L379.471 48.4783C378.231 48.54 376.994 48.3006 375.867 47.7805C375.867 47.4525 375.867 47.1246 375.818 46.7966C375.748 46.2244 376.006 46.0221 376.551 46.0988C377.106 46.0968 377.648 46.2597 378.11 46.5666C378.571 46.8735 378.931 47.3106 379.143 47.8223Z" fill="#F6F6F6"/>
<path d="M390.74 48.2131C390.104 48.4033 389.44 48.4836 388.777 48.4504C388.595 48.4504 388.392 48.4504 388.511 48.1363C388.784 47.5988 389.172 47.128 389.647 46.7577C390.123 46.3873 390.675 46.1266 391.264 45.9941C391.364 45.9743 391.469 45.9881 391.561 46.0335C391.653 46.0789 391.728 46.1534 391.773 46.2453C391.84 46.7619 391.84 47.2848 391.773 47.8014C391.55 48.241 391.103 48.1294 390.74 48.2131Z" fill="#F6F6F6"/>
<path d="M391.48 44.3683C391.434 44.3972 391.396 44.4389 391.373 44.4884C391.349 44.5379 391.34 44.5931 391.347 44.6474C391.159 44.0962 390.921 44.0054 390.418 44.4032C389.4 45.1838 388.313 45.8704 387.17 46.4547C386.085 47.0388 384.87 47.3376 383.638 47.323C382.406 47.3083 381.198 46.9807 380.128 46.3709C379.398 45.9948 378.697 45.5633 378.032 45.08C378.032 44.8498 378.137 44.8288 378.305 44.9475C379.472 45.7164 380.733 46.3332 382.056 46.7826C383.016 47.0276 384.017 47.0659 384.992 46.8951C385.968 46.7243 386.896 46.3482 387.715 45.7918C388.728 45.1777 389.72 44.5358 390.726 43.9078C390.768 43.8858 390.814 43.8743 390.862 43.8743C390.909 43.8743 390.956 43.8858 390.998 43.9078C391.159 43.9078 391.34 44.0613 391.438 43.7891C391.536 43.517 391.585 43.4053 391.822 43.3565C391.753 43.7194 391.368 43.9636 391.48 44.3683Z" fill="#050505"/>
<path d="M377.026 43.0913C376.866 43.4542 377.096 43.5868 377.376 43.7124C377.899 43.9565 378.489 44.0205 379.053 43.8942C379.616 43.768 380.122 43.4586 380.491 43.0146C381.381 41.9477 382.113 40.7586 382.664 39.4838H382.028C382.392 39.114 382.832 39.4838 383.223 39.3582C382.582 40.5647 381.865 41.73 381.078 42.8471C380.746 43.4012 380.24 43.8301 379.639 44.0674C379.037 44.3046 378.374 44.3368 377.753 44.159C377.562 44.1749 377.369 44.1474 377.19 44.0785C377.011 44.0096 376.85 43.9011 376.719 43.7612C376.887 43.5938 376.649 43.21 377.026 43.0913Z" fill="#050505"/>
<path d="M390.977 43.9217H390.705C390.698 43.899 390.688 43.8778 390.673 43.8596C390.658 43.8414 390.639 43.8265 390.618 43.816C390.597 43.8054 390.574 43.7994 390.55 43.7984C390.527 43.7974 390.503 43.8014 390.481 43.8101C388.232 44.4171 387.477 44.1729 386.199 42.3308C385.556 41.4639 385.012 40.5276 384.578 39.5396H384.941C385.517 40.8499 386.31 42.0532 387.289 43.0983C387.685 43.4992 388.204 43.7566 388.763 43.8299C389.322 43.9032 389.89 43.7882 390.376 43.503C390.544 43.4053 390.649 43.3216 390.593 43.1193C391.124 43.189 390.963 43.5938 390.977 43.9217Z" fill="#050505"/>
<path d="M378.438 53.2581C379.423 53.4605 380.38 53.7745 381.379 53.914C381.728 53.9559 382.119 54.7444 381.979 55.0375C381.903 55.198 381.721 55.0375 381.595 55.1072C380.626 54.7659 379.708 54.2965 378.864 53.7117C378.696 53.5721 378.5 53.4814 378.438 53.2581Z" fill="#F6F6F6"/>
<path d="M386.471 54.9747C385.898 55.1072 385.822 54.8839 386.052 54.4095C386.12 54.2398 386.174 54.0648 386.213 53.8861C386.408 53.6 386.702 53.5861 387.009 53.5302C387.564 53.4384 388.111 53.3007 388.644 53.1185C388.805 53.0627 389.042 52.9232 389.161 53.1185C389.28 53.3139 389.021 53.4605 388.881 53.6C388.847 53.6316 388.81 53.6596 388.77 53.6838C388.052 54.1958 387.282 54.6286 386.471 54.9747Z" fill="#F6F6F6"/>
<path d="M388.77 53.6838C388.839 53.4605 389.168 53.4256 389.175 53.0697C388.211 53.421 387.22 53.694 386.213 53.8861C386.352 53.6489 386.213 53.3349 386.443 53.1116C386.443 53.6489 386.869 53.3977 387.065 53.3488C387.833 53.1674 388.588 52.9232 389.349 52.7069C389.72 53.3697 389.168 53.4814 388.77 53.6838Z" fill="#050505"/>
<path d="M379.143 47.8223C378.519 46.9523 377.597 46.3415 376.551 46.1058L376.719 45.9383C377.267 45.9708 377.797 46.1448 378.257 46.4433C378.718 46.7417 379.093 47.1544 379.346 47.6409L379.143 47.8223Z" fill="#050505"/>
<path d="M378.284 44.9475C378.179 44.9475 378.06 44.9475 378.011 45.08C377.602 44.9128 377.224 44.6768 376.894 44.3823C376.565 44.138 376.461 44.3823 376.3 44.5358C376.132 44.1241 376.544 44.1171 376.719 43.9357C376.861 43.9423 376.999 43.984 377.121 44.057C377.243 44.1301 377.345 44.2323 377.418 44.3543C377.741 44.4966 378.034 44.6977 378.284 44.9475Z" fill="#050505"/>
<path d="M377.578 50.2437C377.473 50.2437 377.341 50.2437 377.285 50.3902C376.936 50.3414 376.691 49.8808 376.265 50.1041C375.937 49.9017 376.356 49.7203 376.265 49.5249C376.744 49.6796 377.19 49.9234 377.578 50.2437Z" fill="#050505"/>
<path d="M351.619 36.6159C351.207 36.6159 351.514 36.909 351.465 37.0555C351.296 36.9671 351.15 36.8391 351.04 36.6824C350.931 36.5257 350.861 36.3449 350.837 36.1553C351.145 36.2068 351.424 36.3709 351.619 36.6159Z" fill="#050505"/>
<path d="M390.74 48.2131L391.773 47.8014V48.255L391.075 48.3736C390.998 48.2271 390.851 48.2619 390.74 48.2131Z" fill="#050505"/>
<path d="M416.357 36.6508C416.315 36.4554 416.147 36.5042 416.021 36.4693C416.208 36.2605 416.45 36.1082 416.72 36.0297C416.74 36.1591 416.714 36.2914 416.648 36.4044C416.582 36.5174 416.479 36.6044 416.357 36.6508Z" fill="#050505"/>
<path d="M377.446 44.3474L376.747 43.9287C376.731 43.9118 376.722 43.8893 376.722 43.8659C376.722 43.8425 376.731 43.82 376.747 43.8031L377.781 44.2008L377.446 44.3474Z" fill="#050505"/>
<path d="M208.905 87.2962L178.664 110.177C170.611 96.9466 166.886 89.0499 167.486 86.4867C168.348 85.7123 169.284 85.0252 170.281 84.4352C173.382 82.4675 178.065 79.9345 184.329 76.8363L186.027 79.2507C184.477 79.9094 183.089 80.8981 181.961 82.1479C180.832 83.3977 179.991 84.8785 179.495 86.4867C179.322 87.4071 179.233 88.3414 179.23 89.2779C179.23 93.2692 180.78 95.5021 183.882 95.9766C185.554 96.2139 187.403 94.7253 189.429 91.5108C191.313 88.5722 192.844 85.4221 193.991 82.1256C194.485 80.5454 194.721 78.8961 194.689 77.2411C194.696 74.7321 194.221 72.2452 193.292 69.9143L170.071 73.7103C168.247 69.1672 166.83 64.4712 165.838 59.6777C165.351 55.0371 165.848 50.3461 167.298 45.9104L195.758 20.7901C204.816 33.3502 209.141 40.9166 208.731 43.4891C207.927 44.3302 207.058 45.1071 206.132 45.8127C201.811 48.9345 197.332 51.8319 192.712 54.4932L190.833 52.1696C192.327 50.876 193.479 49.2342 194.186 47.3897C194.778 45.6177 195.066 43.7588 195.039 41.8912C195.039 37.6626 193.935 35.4878 191.727 35.3668C189.701 35.2459 187.585 36.2577 185.377 38.4022C183.205 40.4756 181.813 43.2329 181.437 46.2105C181.381 46.3872 180.916 48.89 180.04 53.7186C179.383 57.2913 179.116 59.4661 179.237 60.243C187.289 59.9452 192.808 60.0336 195.793 60.5081C198.467 61.0287 201.073 61.8503 203.561 62.9573C205.572 63.967 207.265 65.5126 208.451 67.4232C210.084 70.437 210.887 73.8298 210.778 77.255C210.759 80.6869 210.125 84.0876 208.905 87.2962Z" fill="#F6F6F6"/>
<path d="M262.773 58.959C254.064 75.05 246.845 87.4753 241.117 96.2348C238.667 100.422 234.788 106.618 229.479 114.824C223.042 124.774 217.766 132.49 213.649 137.969C192.594 136.109 179.679 135.276 174.905 135.471C172.526 134.634 169.007 133.204 164.35 131.18C162.082 129.924 160.948 128.554 160.948 127.07C160.961 126.621 161.051 126.177 161.213 125.758C161.737 124.556 162.398 123.418 163.183 122.367C165.602 119.321 168.505 116.693 171.776 114.587L187.347 116.91L186.097 119.478C184.128 119.063 182.107 118.943 180.103 119.122C178.326 119.187 176.623 119.849 175.269 120.999C174.692 121.428 174.217 121.979 173.878 122.612C173.538 123.245 173.343 123.945 173.306 124.663C173.309 125.111 173.421 125.552 173.632 125.948C173.842 126.344 174.145 126.683 174.514 126.937C175.315 127.565 176.999 128.117 179.565 128.591C185.712 129.722 195.439 130.675 208.745 131.452L228.71 100.945L219.517 61.6246L211.504 58.0728V56.4609L234.949 56.2795L235.843 59.4056L231.009 60.5709L236.737 86.9333L253.859 57.8007L248.494 53.5093L270.625 52.972L262.773 58.959Z" fill="#F6F6F6"/>
<path d="M313.511 73.9754C313.72 74.7005 313.81 75.4546 313.777 76.2083C313.777 79.1344 312.927 84.826 311.227 93.2832C309.527 101.74 308.677 106.269 308.677 106.869C308.677 107.525 309.334 109.074 310.647 111.516L294.719 110.888C295.179 110.783 295.608 110.57 295.97 110.267C297.486 109.109 298.841 107.755 300.001 106.241L302.865 82.8233C303.032 81.5788 303.121 80.3249 303.13 79.0692C303.13 74.301 301.759 71.9193 299.016 71.9239C298.537 71.917 298.061 72.0072 297.618 72.1891C293.546 73.6283 289.595 75.3924 285.805 77.4643L283.479 104.901C285.808 108.595 287.568 110.591 288.76 110.888L266.839 111.516C265.223 112.056 266.981 109.851 272.113 104.901L276.766 69.6003L267.551 74.0661C272.777 68.521 276.791 64.1715 279.595 61.0175C281.383 59.287 283.204 57.3495 285.058 55.2049L286.036 69.063L301.964 61.5618C302.417 61.269 302.946 61.1139 303.487 61.1152C305.275 61.1152 307.245 62.7829 309.397 66.1183C311.024 68.5957 312.402 71.2275 313.511 73.9754Z" fill="#F6F6F6"/>
<path d="M348.405 88.6359L339.729 99.8982C338.591 100.369 337.324 100.431 336.145 100.073C335.489 99.5423 334.629 98.1398 333.554 95.8859C330.391 97.6816 328.184 99.0236 326.931 99.9122C326.163 100.504 325.218 100.818 324.248 100.805C323.299 100.832 322.369 100.526 321.622 99.9401C320.909 99.3725 320.015 97.3629 318.939 93.9112C318.091 91.4382 317.462 88.8954 317.06 86.3123C316.469 81.0091 316.736 77.255 317.863 75.05C318.329 74.0405 320.329 71.6564 323.864 67.8977L332.184 68.2535V70.1306C329.39 71.3215 327.76 72.5729 327.294 73.8847C327.221 74.5076 327.191 75.1347 327.203 75.7617C327.217 78.7822 327.429 81.7985 327.839 84.7911C328.265 88.6638 328.838 90.813 329.565 91.2247C330.008 91.4726 330.51 91.5978 331.018 91.5875C332.044 91.5574 333.03 91.1784 333.812 90.513V55.8329C333.272 54.8235 332.133 54.5909 330.396 55.1352C328.712 55.6655 327.811 55.9655 327.692 56.0283C326.744 56.4391 325.872 57.0077 325.115 57.71C324.722 58.1071 324.388 58.5582 324.123 59.0497C323.362 60.3635 322.902 61.8289 322.774 63.3411C321.629 61.4804 320.488 59.4847 319.351 57.3541C318.731 55.8844 318.424 54.3017 318.45 52.7069C318.452 51.9867 318.512 51.2679 318.632 50.5577L331.402 43.7682L345.185 57.5286V88.6359H348.405Z" fill="#F6F6F6"/>
<path d="M384.103 77.4643C383.507 72.3472 382.792 68.7118 381.958 66.5579C380.561 63.5761 379.099 62.0874 377.571 62.0921C376.965 62.0949 376.374 62.2797 375.874 62.6224L365.227 64.7158L364.417 55.2398L362.272 54.8839L348.867 66.2928L356.551 67.5418L354.895 134.013V136.623L354.846 138.632V142.4C357.273 142.279 359.692 142.093 362.105 141.842C362.589 141.748 363.09 141.775 363.562 141.921C364.034 142.067 364.462 142.328 364.808 142.68C364.948 142.819 365.088 142.959 365.234 143.084V142.31L365.304 133.936V133.176L365.556 104.378C369.137 103.066 372.688 101.785 376.209 100.533C380.261 98.8632 383.055 96.8675 384.592 94.5462C384.823 94.1275 384.948 92.5784 384.948 89.8989C384.889 85.742 384.607 81.5911 384.103 77.4643ZM375.147 87.5613C374.244 89.8873 372.891 91.4061 371.088 92.1179C369.104 92.6528 367.09 93.2204 365.046 93.8205V71.5611C367.28 71.6997 369.483 72.1507 371.591 72.9008C372.181 73.1524 372.733 73.4835 373.233 73.8847C375.231 75.7966 376.23 78.5087 376.23 82.0209C376.222 83.9194 375.855 85.7993 375.147 87.5613Z" fill="#F6F6F6"/>
<path d="M415.93 87.2962L396.901 101.685C391.829 93.339 389.473 88.3638 389.831 86.7589C390.251 86.2937 393.802 84.2678 400.485 80.6811L401.554 82.2023C399.29 83.2118 397.919 84.7306 397.439 86.7589C397.262 87.3378 397.173 87.9399 397.174 88.5452C397.174 91.0503 398.159 92.4458 400.122 92.7319C402.085 93.018 404.313 90.0524 406.569 83.9747C406.879 82.9907 407.03 81.9637 407.017 80.9323C407.017 79.3315 406.682 77.7482 406.032 76.2851L391.536 78.6994C390.361 75.8419 389.46 72.8792 388.846 69.8515C388.537 66.9315 388.844 63.9791 389.748 61.185L407.638 45.3731C413.367 53.2814 416.112 58.0496 415.875 59.6777C415.511 60.2127 412.14 62.5387 405.759 66.6556L404.599 65.1344C405.467 64.303 406.123 63.2767 406.514 62.1409C406.86 61.0275 407.03 59.8667 407.017 58.7008C407.017 56.0213 406.318 54.6467 404.991 54.5909C403.761 54.5281 402.476 55.1282 401.128 56.3772C399.76 57.7266 398.865 59.4816 398.578 61.3803C398.578 61.499 398.312 63.0829 397.788 66.1183C397.481 67.4684 397.303 68.8446 397.257 70.2283C402.329 70.0562 405.789 70.1166 407.638 70.4097C411.751 71.368 414.436 72.8264 415.693 74.7848C416.691 76.6835 417.173 78.8105 417.09 80.9533C417.075 83.1188 416.683 85.2652 415.93 87.2962Z" fill="#F6F6F6"/>
<path d="M451.125 71.8332L446.382 71.1354L440.835 69.8864L432.871 67.0952C432.336 73.6079 432.068 79.0297 432.068 83.3606C431.999 85.7534 432.149 88.1474 432.515 90.513C433.409 94.0856 434.573 95.872 436.008 95.872C436.595 95.8216 437.149 95.5759 437.58 95.1742C438.311 94.5091 438.903 93.7049 439.319 92.8087C440.716 90.0687 442.148 85.9866 443.615 80.5625C446.875 83.8189 448.517 85.9634 448.54 86.9961C447.787 88.4919 446.918 89.9267 445.942 91.2875C441.592 96.9489 438.7 100.108 437.265 100.763C435.952 100.94 433.833 100.673 430.908 99.961L419.815 88.0986L421.428 55.2049C426.318 50.3204 431.059 46.8943 435.651 44.9265C436.456 44.6367 437.304 44.4857 438.159 44.4799C440.302 44.4799 442.567 45.4941 444.957 47.5223C446.354 48.9179 447.751 50.2646 449.148 51.6323C450.466 53.6 451.125 60.3337 451.125 71.8332ZM440.381 63.9691C439.962 61.82 439.186 58.6613 438.055 54.4932C437.773 53.6384 437.35 52.8366 436.804 52.1207C436.147 51.1996 435.547 50.7251 435.016 50.7251C434.485 50.7251 433.968 51.2903 433.668 52.4208C432.86 55.9378 432.471 59.5376 432.508 63.1457L440.381 63.9691Z" fill="#F6F6F6"/>
<path d="M533.013 78.7622C533.56 78.5793 534.134 78.4873 534.711 78.4901C536.058 78.4592 537.368 78.9377 538.378 79.8298C538.875 80.2622 539.27 80.7995 539.533 81.403C539.796 82.0064 539.922 82.6608 539.901 83.3188C539.901 85.3424 538.991 87.3241 537.17 89.2639C535.332 91.2182 533.213 92.888 530.882 94.2182C529.047 95.3579 527.06 96.2318 524.979 96.814C522.485 96.3576 520.032 95.6995 517.644 94.8462C517.162 94.7276 515.989 94.3857 514.109 93.8205C512.388 93.2941 510.639 92.8608 508.87 92.5226C507.457 92.2434 506.021 92.0939 504.581 92.076C500.459 92.076 497.595 93.6553 495.988 96.814H495.094C495.188 93.5393 496.111 90.3418 497.776 87.5194C499.259 85.0433 501.187 82.8622 503.463 81.0859C506.264 78.9954 509.174 77.0552 512.181 75.2733C515.086 73.5993 517.886 71.749 520.564 69.7329C522.522 68.243 524.101 66.314 525.175 64.1017C526.066 62.3262 526.525 60.3659 526.516 58.3799C526.468 55.3206 525.467 52.3522 523.652 49.8878C520.552 48.722 517.574 47.2567 514.759 45.5127C513.446 44.7405 512.102 44.0101 510.728 43.3216C509.58 42.7276 508.384 42.2327 507.151 41.8423V48.3736C507.237 50.9689 506.415 53.5129 504.825 55.5678C503.548 57.2547 501.953 58.6768 500.131 59.7545C498.547 60.6105 496.414 61.6385 493.732 62.8387L493.194 62.0293C494.388 61.7362 495.178 60.8082 495.562 59.2381C496.007 57.1543 496.204 55.0252 496.149 52.8953V48.9039L505.272 41.4864L513.956 34.3481C515.074 34.3869 516.171 34.6603 517.176 35.1505C518.364 35.6878 519.859 36.4624 521.647 37.4742C523.846 38.7255 526.118 39.844 528.451 40.8235C530.292 41.5989 532.266 42.0067 534.263 42.0237C535.985 42.1088 537.687 41.6177 539.098 40.6282C539.683 40.2267 540.16 39.6878 540.488 39.0587C540.816 38.4296 540.984 37.7297 540.977 37.0206C541.01 36.4517 540.914 35.8827 540.696 35.3559C540.478 34.8292 540.145 34.3583 539.719 33.9782C538.813 33.2408 537.667 32.861 536.499 32.9106C535.958 32.8888 535.416 32.9476 534.892 33.0851V32.5478C535.44 32.3705 536.013 32.281 536.59 32.2826C537.948 32.2541 539.267 32.7431 540.278 33.6503C540.775 34.0826 541.17 34.62 541.433 35.2234C541.697 35.8268 541.822 36.4813 541.801 37.1392C541.888 40.6938 540.591 44.1435 538.183 46.7617C535.765 49.3854 532.589 50.6972 528.654 50.6972C530.884 52.1449 532.826 53.9927 534.382 56.1469C535.891 58.1611 536.708 60.609 536.709 63.1248C536.734 64.4968 536.497 65.861 536.01 67.1441C535.232 69.3307 533.849 71.252 532.021 72.6845C530.232 74.1023 528.224 75.2195 526.076 75.992C523.924 76.7689 521.091 77.6039 517.574 78.4971C513.954 79.3913 510.397 80.5266 506.928 81.8953C504.275 82.9549 501.911 84.6291 500.033 86.7798C500.739 86.2515 501.489 85.7846 502.275 85.3842C504.689 83.8877 507.482 83.1129 510.323 83.1513C512.24 83.1517 514.15 83.3861 516.009 83.8491C517.947 84.3143 520.257 84.9981 522.939 85.9006C525.147 86.6216 527.01 87.1729 528.528 87.5543C529.895 87.9256 531.303 88.1202 532.72 88.1335C534.384 88.2047 536.023 87.713 537.372 86.7379C537.932 86.3359 538.387 85.8053 538.698 85.1907C539.009 84.5762 539.168 83.8958 539.161 83.2071C539.193 82.6382 539.098 82.0692 538.88 81.5424C538.662 81.0157 538.328 80.5448 537.903 80.1648C536.996 79.4273 535.851 79.0475 534.683 79.0972C534.141 79.0753 533.6 79.1341 533.076 79.2716L533.013 78.7622Z" fill="#F6F6F6"/>
<path d="M556.346 57.8426C562.13 56.0562 567.169 55.1631 571.463 55.1631C575.757 55.1631 579.203 55.9678 581.802 57.5774C584.177 58.9444 586.08 61.0009 587.258 63.4737C588.279 65.6888 588.813 68.0968 588.823 70.5353V87.1636L577.82 92.5226L567.795 97.0791C566.037 96.3168 564.359 95.3819 562.787 94.288C560.63 92.9116 558.406 91.6447 556.122 90.492C554.534 89.6429 552.773 89.1656 550.974 89.0965C550.334 89.0789 549.698 89.1938 549.105 89.434C548.513 89.6742 547.976 90.0345 547.53 90.492C547.094 90.9085 546.747 91.4075 546.507 91.9599C546.267 92.5122 546.139 93.1068 546.132 93.7088C546.095 94.2973 546.188 94.8867 546.404 95.4354C546.62 95.9841 546.954 96.4786 547.383 96.8838C548.276 97.6507 549.427 98.0498 550.603 98.0002C551.147 98.022 551.691 97.9632 552.217 97.8258V98.3561C551.302 98.6548 550.325 98.7089 549.382 98.513C548.44 98.3172 547.565 97.8781 546.845 97.2396C546.337 96.7694 545.938 96.1944 545.675 95.5546C545.412 94.9147 545.291 94.2254 545.322 93.5344C545.322 92.0411 545.948 90.3711 547.201 88.5243C548.511 86.6322 550.203 85.035 552.168 83.8351C554.039 82.6124 556.22 81.9468 558.455 81.9162C560.503 81.9484 562.501 82.5501 564.226 83.6537C565.693 84.4632 567.618 85.6401 570.003 87.1845C572.474 88.8803 575.076 90.376 577.785 91.6573V70.5353C577.807 67.4589 576.92 64.4444 575.235 61.8688C573.54 59.2451 570.047 57.9333 564.757 57.9333C559.634 57.9333 553.16 59.4521 545.336 62.4898V48.9039L554.466 41.4864L563.164 34.3481C564.282 34.386 565.379 34.6595 566.384 35.1505C567.581 35.6855 569.074 36.46 570.862 37.4742C573.06 38.724 575.329 39.8424 577.659 40.8235C579.503 41.5979 581.479 42.0056 583.479 42.0237C585.201 42.1088 586.902 41.6177 588.313 40.6282C588.893 40.23 589.368 39.6966 589.695 39.0741C590.022 38.4516 590.193 37.7587 590.192 37.0555C590.225 36.4866 590.129 35.9176 589.911 35.3908C589.694 34.8641 589.36 34.3932 588.935 34.0131C588.025 33.2578 586.868 32.8651 585.686 32.9106C585.145 32.8888 584.603 32.9476 584.079 33.0851V32.5478C584.998 32.2565 585.976 32.2048 586.92 32.3978C587.864 32.5908 588.742 33.022 589.472 33.6503C589.969 34.0826 590.364 34.62 590.627 35.2234C590.891 35.8268 591.016 36.4813 590.995 37.1392C591.088 40.7044 589.788 44.1655 587.37 46.7896C584.953 49.4133 581.776 50.7251 577.841 50.7251C577.244 50.7328 576.646 50.7025 576.053 50.6344C574.157 50.4219 572.311 49.8936 570.59 49.0714C568.727 48.2061 566.522 47.0292 563.974 45.5406C562.661 44.7684 561.317 44.038 559.943 43.3495C558.79 42.7449 557.586 42.2406 556.346 41.8423V57.8426Z" fill="#F6F6F6"/>
<path d="M588.341 133.978C588.131 133.385 587.377 133.448 586.804 133.378C586.593 133.354 586.379 133.354 586.168 133.378C580.167 134.02 574.146 133.853 568.131 133.915C564.568 133.95 560.984 133.762 557.435 134.034C554.704 134.243 552.105 134.174 549.646 132.98C548.511 132.379 547.246 132.065 545.961 132.065C544.676 132.065 543.411 132.379 542.276 132.98C540.86 133.605 539.332 133.935 537.784 133.95C527.795 134.613 517.798 134.264 507.808 133.95C506.753 133.95 505.615 134.062 504.727 133.343C502.694 131.689 500.215 131.557 497.797 131.334C496.065 131.173 494.235 131.054 492.642 131.975C489.673 133.699 486.452 134.069 483.106 134.132C478.845 134.194 474.584 134.292 470.343 134.599C465.502 134.955 460.668 135.297 455.834 134.76C453.64 134.515 451.216 134.871 449.309 133.58C447.519 132.316 445.447 131.506 443.273 131.22C441.1 130.934 438.889 131.182 436.832 131.941C432.166 133.518 427.317 133.748 422.518 134.034C411.198 134.714 399.849 134.749 388.525 134.139C386.884 134.121 385.269 133.73 383.803 132.994C377.515 129.617 371.27 129.345 365.15 133.099C364.934 133.225 364.724 133.357 364.515 133.497C364.041 133.737 363.506 133.832 362.978 133.769L354.888 133.95C353.275 133.95 351.668 134.027 350.054 134.076C340.581 134.341 331.13 134.613 321.713 133.134C320.292 132.983 318.943 132.434 317.821 131.55C316.676 130.601 315.509 129.645 313.93 129.505C309.643 129.044 305.332 128.843 301.021 128.905C300.541 128.907 300.07 129.028 299.648 129.255C299.227 129.483 298.868 129.811 298.603 130.21C297.57 131.606 296.452 132.966 295.362 134.334C295.215 134.588 295.003 134.797 294.748 134.941C294.492 135.085 294.202 135.157 293.909 135.15C291.569 134.997 289.235 135.074 286.888 134.92C281.544 134.557 276.193 133.755 270.821 134.753C268.941 135.174 266.971 134.889 265.288 133.95C262.501 132.428 259.266 131.934 256.151 132.555C255.311 132.696 254.46 132.762 253.608 132.75C252.969 132.708 252.332 132.844 251.768 133.145C251.204 133.446 250.735 133.899 250.415 134.453C249.06 136.546 247.383 137.579 244.659 136.867C240.391 135.75 235.982 135.164 232.364 132.283C231.127 131.299 228.99 132.206 228.459 133.839C226.859 138.723 226.726 143.608 228.661 148.492C229.563 150.76 229.898 151.011 232.008 149.888C236.372 147.667 240.953 145.9 245.679 144.612C246.137 144.41 246.646 144.354 247.138 144.452C247.629 144.549 248.078 144.795 248.424 145.157C250.157 146.922 252.406 147.501 254.781 147.766C258.896 148.234 262.934 148.597 266.566 145.827C267.849 144.951 269.359 144.466 270.912 144.431C274.265 144.194 277.618 144.431 280.964 144.257C285.746 143.885 290.553 144.021 295.306 144.661C295.915 144.705 296.509 144.873 297.05 145.157C297.591 145.44 298.068 145.832 298.45 146.308C299.037 147.087 299.885 147.63 300.839 147.836C305.54 148.799 310.277 148.911 314.887 147.438C318.199 146.378 321.014 144.082 324.668 143.691C328.091 143.314 331.465 142.512 334.867 141.919C336.132 141.71 337.425 141.751 338.674 142.038C340.862 142.407 343.091 142.471 345.297 142.226C345.548 142.512 345.884 142.386 346.191 142.393C349.027 142.484 351.863 142.442 354.7 142.303C357.126 142.182 359.546 141.996 361.958 141.744C362.443 141.65 362.943 141.677 363.415 141.823C363.887 141.969 364.315 142.23 364.661 142.582C364.801 142.721 364.941 142.861 365.088 142.987C366.175 144.05 367.562 144.756 369.063 145.01C373.4 145.67 377.837 145.024 381.805 143.154C384.415 141.851 387.272 141.116 390.188 140.998C394.33 140.907 398.487 140.998 402.636 140.998C411.844 140.998 421.058 140.942 430.265 141.172C432.276 141.139 434.259 141.637 436.015 142.617C437.282 143.35 438.752 143.656 440.206 143.489C442.868 143.245 445.488 142.791 447.849 141.396C449.714 140.318 451.877 139.871 454.017 140.119C457.294 140.463 460.594 140.521 463.881 140.293C471.566 139.728 479.299 140.147 487.004 140.056C488.022 140.016 489.036 140.202 489.973 140.6C495.206 143.056 500.145 141.919 504.972 139.414C505.527 139.106 506.129 138.891 506.753 138.779C509.981 138.27 513.236 138.73 516.471 138.416C524.999 137.493 533.611 137.692 542.088 139.009C543.938 139.318 545.826 139.318 547.676 139.009C550.387 138.556 553.006 137.614 555.815 137.614C557.673 137.614 559.531 137.404 561.403 137.397C569.179 137.397 576.905 136.413 584.68 136.392C585.754 136.471 586.817 136.134 587.649 135.45C588.082 135.171 588.564 134.613 588.341 133.978ZM361.909 140.837C361.455 140.893 361.008 140.928 360.561 140.949C361.382 140.8 362.115 140.347 362.615 139.679C363.041 139.016 363.18 138.409 362.412 137.893C361.294 137.146 361.713 136.532 362.587 135.988C362.936 135.771 363.285 135.562 363.753 135.29C363.753 136.567 363.663 137.774 363.635 138.988C363.607 140.202 363.111 140.698 361.909 140.837ZM354.714 140.914C354.511 140.914 354.301 140.914 354.099 140.914C353.477 140.914 352.807 140.698 352.297 141.27C352.276 141.307 352.264 141.347 352.262 141.389C352.262 141.514 352.373 141.598 352.471 141.696C352.255 141.696 352.038 141.654 351.822 141.654C351.612 141.643 351.402 141.643 351.193 141.654C350.878 141.654 350.564 141.654 350.25 141.654C350.345 141.604 350.43 141.538 350.501 141.458C350.498 141.414 350.498 141.37 350.501 141.326V141.27C350.592 140.44 351.158 140.202 351.968 140.244C352.89 140.293 353.812 140.3 354.763 140.37C355.007 140.37 355.259 140.405 355.503 140.433C356.411 140.537 356.572 139.923 356.495 139.191C356.418 138.458 356.069 138.158 355.307 138.444C355.145 138.507 354.976 138.553 354.804 138.584C353.875 138.772 352.918 138.584 351.975 138.681C351.032 138.779 350.466 138.625 350.578 137.523C350.627 137.069 350.382 136.825 349.914 136.825C349.446 136.825 349.216 136.951 349.125 137.432C349.09 137.711 349.342 138.067 348.874 138.29C348.594 137.739 348.622 136.392 347.574 137.383C347.05 137.886 347.183 137.753 346.876 137.321C346.568 136.888 346.107 137.069 345.821 137.523C345.653 137.788 345.772 138.276 345.206 138.339C345.24 138.001 345.187 137.66 345.052 137.348C345.04 137.32 345.024 137.294 345.003 137.272C344.91 137.167 344.79 137.09 344.656 137.048C344.521 137.006 344.378 137.001 344.242 137.034C343.096 137.16 342.586 136.42 341.888 135.555C342.684 135.555 343.613 135.088 343.802 135.695C343.842 135.83 343.901 135.959 343.976 136.078C344.333 136.658 344.92 136.483 345.436 136.504C346.338 136.546 347.246 136.546 348.147 136.623C349.174 136.713 350.033 136.623 349.321 135.227C349.71 135.111 350.118 135.073 350.522 135.116C350.878 135.116 351.256 134.99 351.619 135.241C351.305 135.785 350.55 136.344 351.549 136.923C351.643 137.002 351.757 137.055 351.878 137.076C352 137.097 352.124 137.086 352.24 137.044C352.356 137.001 352.458 136.929 352.537 136.834C352.615 136.739 352.667 136.625 352.688 136.504C353.212 134.913 353.882 135.109 354.672 136.309C354.724 136.392 354.79 136.465 354.867 136.525C354.954 136.595 355.059 136.641 355.17 136.655C355.281 136.67 355.394 136.654 355.496 136.609C355.644 136.552 355.769 136.446 355.849 136.309C355.929 136.172 355.959 136.012 355.936 135.855C355.936 135.562 355.28 135.157 355.999 134.983C356.199 134.896 356.421 134.878 356.632 134.931C356.843 134.984 357.031 135.105 357.166 135.276C357.429 135.612 357.757 135.892 358.13 136.099C358.954 136.623 359.073 137.055 358.2 137.76C357.965 137.937 357.781 138.171 357.665 138.441C357.55 138.711 357.507 139.006 357.541 139.297C357.575 139.588 357.684 139.866 357.859 140.102C358.033 140.338 358.266 140.524 358.535 140.642C358.736 140.754 358.952 140.834 359.178 140.879C357.655 140.977 356.181 140.886 354.714 140.914ZM347.518 141.807H347.351C346.596 141.724 345.772 141.382 345.255 142.331C344.815 141.326 343.781 141.772 343.054 141.451C342.983 141.429 342.917 141.394 342.859 141.347H342.81C342.577 141.301 342.337 141.316 342.111 141.389C342.345 141.31 342.568 141.202 342.775 141.068L342.859 140.977C343.102 140.723 343.425 140.558 343.774 140.509C343.988 140.47 344.206 140.456 344.424 140.468L344.591 140.426C344.91 140.332 345.238 140.269 345.569 140.237H345.932C346.134 140.271 346.337 140.294 346.54 140.307H346.61C346.677 140.299 346.745 140.299 346.813 140.307C347.316 140.391 347.288 140.796 347.288 141.186C347.284 141.228 347.284 141.27 347.288 141.312C347.284 141.342 347.284 141.372 347.288 141.403C347.331 141.515 347.407 141.612 347.504 141.682L347.567 141.724C347.691 141.753 347.817 141.769 347.944 141.772H347.476L347.518 141.807ZM349.272 141.584C349.367 141.651 349.47 141.705 349.579 141.744C349.083 141.744 348.587 141.807 348.091 141.807C348.194 141.804 348.295 141.778 348.387 141.731C348.479 141.684 348.559 141.617 348.622 141.535C348.671 141.464 348.702 141.383 348.713 141.298C348.713 141.256 348.713 141.214 348.713 141.172C348.703 141.055 348.726 140.938 348.781 140.834C348.835 140.73 348.918 140.644 349.02 140.586C349.151 140.794 349.203 141.041 349.167 141.284C349.164 141.295 349.164 141.307 349.167 141.319C349.18 141.412 349.216 141.501 349.272 141.577V141.584Z" fill="#050505"/>
<path d="M270.898 141.758C269.333 142.673 267.803 143.656 266.189 144.473C265.407 144.878 265.574 145.827 264.792 146.245C263.346 146.992 261.942 147.641 260.258 147.508C258.4 147.383 256.542 147.271 254.67 147.187C252.322 147.067 250.106 146.071 248.459 144.396C248.203 144.108 247.866 143.904 247.492 143.811C247.118 143.717 246.725 143.739 246.363 143.873C241.767 145.226 237.191 146.608 232.958 148.939C230.582 150.237 229.982 149.93 229.046 147.369C228.454 145.882 228.164 144.293 228.193 142.693C228.319 140.335 228.459 137.969 228.626 135.611C228.711 134.916 229.02 134.267 229.507 133.762C230.806 132.227 231.176 132.178 232.741 133.413C233.956 134.365 235.33 135.095 236.8 135.569C239.531 136.462 242.388 136.965 245.127 137.711C246.089 138.061 247.146 138.047 248.098 137.671C249.051 137.296 249.833 136.585 250.296 135.674C251.645 133.413 253.636 133.42 255.794 133.35C256.807 133.315 255.962 134.048 256.304 134.229C258.065 132.659 260.07 133.573 261.956 133.734C263.458 133.859 264.75 134.76 266.098 135.395C266.903 135.814 267.822 135.963 268.718 135.82C274.803 134.857 280.915 135.122 287.028 135.611C288.664 135.809 290.315 135.853 291.96 135.744C292.218 136.658 291.401 136.441 291.031 136.532C287.182 137.725 283.186 137.844 279.211 138.004C277.639 138.074 276.074 138.346 274.495 138.297C276.228 138.297 277.953 138.06 279.679 138.004C283.661 137.865 287.636 137.614 291.492 136.476C291.878 136.29 292.315 136.236 292.735 136.323C294.042 136.085 296.179 136.204 296.466 135.534C296.969 134.348 297.73 133.287 298.226 132.094C298.925 130.405 300.154 129.61 302.173 129.582C306.212 129.607 310.244 129.919 314.238 130.517C315.407 130.684 316.495 131.214 317.346 132.031C317.805 132.469 318.285 132.884 318.786 133.273C319.749 133.905 320.904 134.177 322.048 134.041C325.757 133.95 329.418 135.074 333.162 135.011C333.798 135.011 334.441 135.011 335.076 134.962C337.997 134.704 337.57 134.732 337.654 137.251C337.696 138.514 338.227 140.091 337.494 140.97C336.76 141.849 335.118 141.305 333.875 141.396C329.57 141.741 325.319 142.574 321.203 143.88C320.846 143.531 321.796 143.182 321.203 142.889C320.839 142.707 320.609 143.001 320.378 143.196C318.746 144.637 316.898 145.814 314.901 146.685C310.403 148.408 305.82 147.857 301.216 147.313C300.652 147.249 300.113 147.044 299.65 146.716C299.187 146.387 298.815 145.947 298.569 145.436C298.282 144.892 298.024 144.257 297.346 144.04C295.162 143.169 292.903 142.496 290.598 142.031C292.316 142.505 294.531 142.805 296.522 143.845C296.569 143.871 296.605 143.915 296.622 143.967C296.639 144.018 296.635 144.075 296.613 144.124C296.613 144.222 296.508 144.27 296.382 144.284C286.537 143.144 276.587 143.249 266.769 144.598L271.058 142.003C272.665 141.04 274.516 140.649 276.116 139.847C274.419 140.594 272.676 141.233 270.898 141.758Z" fill="#F6F6F6"/>
<path d="M547.362 138.577C546.083 138.43 544.568 139.449 543.52 137.879C543.017 137.985 542.509 138.06 541.997 138.102C535.577 137.711 529.185 136.895 522.716 137.404C517.896 137.795 513.054 137.83 508.22 138.053C506.69 138.182 505.204 138.627 503.854 139.358C499.264 141.591 494.507 142.045 489.729 139.798L487.186 138.632C487.382 139.198 487.933 139.616 486.83 139.623C481.199 139.679 475.576 139.121 469.938 139.574C465.101 139.857 460.251 139.857 455.414 139.574C452.473 139.463 449.609 139.763 446.934 141.249C444.461 142.645 441.694 142.966 438.893 142.945C437.332 142.868 435.84 142.283 434.646 141.277C433.617 140.432 432.307 140.005 430.978 140.084C421.331 141.144 411.662 140.084 402.022 140.523C397.397 140.74 392.779 140.021 388.155 140.523C386.093 140.759 384.087 141.347 382.224 142.261C378.11 144.196 373.54 144.954 369.021 144.452C367.225 144.263 365.968 143.056 364.661 141.947C364.228 141.591 364.347 141.089 364.466 140.614C364.956 138.81 365.031 136.918 364.682 135.081C364.622 134.854 364.64 134.613 364.734 134.397C364.828 134.182 364.992 134.005 365.199 133.894C367.757 132.056 370.87 131.154 374.016 131.34C375.601 131.396 377.201 131.194 378.745 131.654C379.241 131.801 380.31 131.494 380.016 132.743C379.946 133.036 380.435 133.092 380.624 132.924C381.323 132.303 382.021 132.638 382.587 133.085C385.242 135.143 388.413 134.857 391.452 134.983C403.209 135.457 414.959 135.325 426.71 134.655C428.079 134.514 429.441 134.305 430.789 134.027C431.097 134.808 430.349 134.76 430.014 134.878C427.185 135.925 424.516 137.446 422.602 137.669C424.921 137.293 427.974 135.618 431.188 134.376C431.704 134.105 432.295 134.009 432.871 134.104C434.109 133.782 435.315 133.35 436.476 132.813C439.27 131.654 442.106 131.927 444.971 132.283C445.383 132.338 446.018 132.282 445.837 133.064C445.781 133.329 446.116 133.504 446.221 133.406C447.325 132.359 447.919 133.594 448.575 133.992C451.328 135.66 454.367 135.618 457.405 135.723C463.106 135.911 468.778 135.234 474.465 135.15C478.035 135.102 481.59 134.913 485.153 134.739C487.447 134.67 489.704 134.141 491.79 133.183C495.981 131.18 500.054 131.654 504.015 133.769C504.884 134.263 505.859 134.543 506.858 134.585C515.045 134.864 523.233 135.325 531.427 134.99C534.818 134.939 538.201 134.669 541.557 134.18L538.651 135.576C540.558 135.45 542.095 134.376 543.659 133.545C544.433 133.076 545.315 132.815 546.22 132.787C547.124 132.759 548.021 132.965 548.822 133.385C551.616 134.781 554.515 134.857 557.533 134.781C565.916 134.571 574.341 134.488 582.745 134.334C584.024 134.334 585.295 134.18 586.566 134.111C586.923 134.111 587.398 133.943 587.551 134.369C587.705 134.795 587.3 135.164 586.972 135.402C586.397 135.803 585.7 135.99 585.002 135.932C576.619 135.416 568.347 136.769 560.02 137.048C556.241 137.174 552.455 137.104 548.843 138.381C548.2 137.76 547.802 138.318 547.362 138.577Z" fill="#F6F6F6"/>
<path d="M350.557 141.347C350.04 141.165 350.019 140.768 350.103 140.321C350.208 139.756 350.662 139.916 350.99 139.937C352.66 140.049 354.371 139.623 356.006 140.349C356.213 139.754 356.247 139.113 356.104 138.5C354.329 139.609 352.408 139.037 350.564 139.051C349.705 139.051 350.368 138.193 350.187 137.774C350.089 137.558 350.592 137.314 350.187 137.146C350.088 137.105 349.983 137.084 349.876 137.084C349.769 137.084 349.664 137.105 349.565 137.146C349.195 137.334 349.509 137.537 349.565 137.767C349.705 138.207 349.831 138.723 349.363 139.037C349.24 139.089 349.108 139.116 348.975 139.116C348.842 139.116 348.71 139.089 348.587 139.037C347.944 138.786 348.196 138.276 348.336 137.844C348.44 137.53 348.426 137.307 348.063 137.3C347.7 137.293 347.518 137.46 347.581 137.9C347.644 138.339 348.161 139.058 347.169 139.044C346.177 139.03 346.771 138.318 346.771 137.886C346.771 137.683 346.862 137.439 346.533 137.446C346.205 137.453 345.967 137.446 346.03 137.858C346.114 138.36 346.435 138.953 345.569 139.065C345.269 139.1 344.801 139.114 344.675 138.946C344.284 138.416 344.92 138.011 345.052 137.307C342.761 138.388 342.146 136.169 340.386 135.276C341.783 135.185 342.761 135.088 343.739 135.067C344.116 135.067 344.696 134.683 344.829 135.297C344.961 135.911 344.095 135.583 343.948 136.148L349.314 136.33C349.314 135.632 348 135.988 348.419 135.129C348.72 134.508 349.349 134.871 349.817 134.836C350.606 134.774 351.409 134.836 352.241 134.836C352.265 135.067 352.225 135.3 352.125 135.509C352.026 135.719 351.87 135.896 351.675 136.023C351.409 136.155 351.158 136.218 351.346 136.539C351.478 136.707 351.667 136.822 351.877 136.86C352.101 136.916 352.262 136.776 352.297 136.518C352.302 136.362 352.338 136.208 352.401 136.064C352.66 135.562 352.786 134.885 353.477 134.802C354.169 134.718 354.288 135.562 354.791 135.834C355.126 136.016 354.637 136.679 355.259 136.637C355.362 136.62 355.461 136.579 355.546 136.519C355.632 136.458 355.703 136.379 355.755 136.288C356.027 135.702 355.293 135.883 355.154 135.59C355.031 135.349 354.893 135.116 354.742 134.892C355.44 134.501 356.237 134.829 356.949 134.641C357.934 134.383 357.403 135.562 358.179 135.89C359.939 136.637 359.883 136.972 358.346 138.151C357.27 138.981 357.592 139.679 358.416 140.328C359.688 141.34 362.175 140.495 362.747 138.932C362.985 138.297 362.398 138.416 362.223 138.172C361.867 137.69 360.77 137.641 361.001 136.958C361.159 136.566 361.41 136.218 361.732 135.944C362.055 135.671 362.439 135.48 362.852 135.388C363.327 135.276 363.767 135.471 363.32 134.767C363.25 134.655 363.236 134.474 363.495 134.494C363.753 134.515 363.928 134.571 363.97 134.815C364.29 136.81 364.202 138.849 363.711 140.809C363.6 141.312 362.873 141.165 362.419 141.193C359.338 141.417 356.258 141.326 353.177 141.263C352.869 141.263 352.527 141.144 352.255 141.403C351.661 141.989 351.109 141.703 350.557 141.347Z" fill="#F6F6F6"/>
<path d="M292.707 136.295C288.348 137.83 283.807 138.081 279.246 138.249C277.492 138.318 275.753 138.437 273.971 138.395C274.67 137.879 275.452 137.983 276.207 137.928C281.216 137.53 286.294 137.809 291.164 136.211C291.45 136.113 291.988 136.358 291.932 135.716C292.337 135.709 293.134 135.185 292.707 136.295Z" fill="#050505"/>
<path d="M339.212 141.444C338.779 141.444 338.241 141.598 338.241 140.809C338.241 139.114 338.241 137.411 338.185 135.716C338.185 134.871 338.716 135.171 339.128 135.088C339.883 134.927 339.666 135.339 339.645 135.785C339.561 137.376 339.561 138.967 339.499 140.558C339.492 140.858 339.596 141.221 339.212 141.444Z" fill="#F6F6F6"/>
<path d="M432.836 134.132C428.945 135.29 425.445 137.621 421.254 137.893C424.237 137.195 426.926 135.799 429.769 134.725C430.175 134.578 430.58 134.488 430.754 134.027C431.453 133.908 432.18 133.231 432.836 134.132Z" fill="#050505"/>
<path d="M362.622 134.536L360.861 136.225C360.463 136.609 360.079 136.727 359.639 136.225C359.199 135.723 358.297 135.527 358.458 134.878C358.619 134.229 359.527 134.571 360.086 134.494C360.931 134.456 361.778 134.47 362.622 134.536Z" fill="#F6F6F6"/>
<path d="M359.296 138.27C360.463 136.93 361.085 138.186 361.769 138.618C362.279 138.946 361.86 139.316 361.497 139.609C360.505 140.37 358.856 140.405 358.353 139.484C357.85 138.563 359.15 138.674 359.296 138.27Z" fill="#F6F6F6"/>
<path d="M340.756 136.846C343.404 138.528 343.432 139.163 340.973 140.628C340.917 140.537 340.819 140.454 340.819 140.363C340.791 139.205 340.777 138.046 340.756 136.846Z" fill="#F6F6F6"/>
<path d="M347.469 142.024C346.771 142.275 345.939 141.814 345.262 142.331C344.472 141.828 343.439 142.142 342.656 141.584C342.705 141.326 343.313 140.97 342.537 140.851C342.943 140.063 343.522 139.749 344.375 140.188C345.024 140.886 345.485 140.886 345.646 139.847L346.554 140.014C346.876 140.423 347.146 140.871 347.358 141.347C347.404 141.364 347.445 141.395 347.476 141.434C347.507 141.473 347.526 141.52 347.532 141.57C347.686 141.751 347.567 141.884 347.469 142.024Z" fill="#050505"/>
<path d="M296.382 144.264C295.683 143.294 294.552 143.328 293.588 143.049C292.189 142.777 290.841 142.29 289.592 141.605C292.156 142.484 294.999 142.435 297.353 144.019C297.053 144.194 296.801 144.557 296.382 144.264Z" fill="#050505"/>
<path d="M270.898 141.758C272.691 140.793 274.613 140.088 276.605 139.665C274.858 140.663 272.995 141.444 271.058 141.989L270.968 141.884L270.898 141.758Z" fill="#050505"/>
<path d="M347.469 142.024L347.546 141.57L348.573 141.417C348.685 141.068 348.867 140.998 349.139 141.27C349.586 141.717 350.061 141.577 350.536 141.347C351.123 140.865 351.654 141.731 352.227 141.41C352.408 141.493 352.709 141.542 352.744 141.668C352.883 142.086 352.499 141.982 352.297 141.982C350.704 142.01 349.097 142.017 347.469 142.024Z" fill="#050505"/>
<path d="M345.674 139.847C345.767 139.92 345.844 140.011 345.9 140.114C345.956 140.218 345.991 140.332 346.002 140.449C346.013 140.567 346.001 140.685 345.965 140.797C345.929 140.91 345.87 141.013 345.793 141.103C345.541 141.458 344.996 141.361 344.633 141.242C344.074 141.061 344.633 140.544 344.403 140.188C344.717 139.658 345.262 139.993 345.674 139.847Z" fill="#F6F6F6"/>
<path d="M345.513 135.667C345.332 135.262 345.464 134.969 345.611 134.969C346.359 134.969 347.141 134.578 347.826 135.136C347.889 135.192 347.749 135.653 347.693 135.653C346.938 135.688 346.184 135.667 345.513 135.667Z" fill="#F6F6F6"/>
<path d="M349.153 141.27C348.915 141.123 348.741 141.228 348.587 141.417C348.224 140.928 347.993 140.398 348.587 139.972C348.776 139.84 349.383 139.937 349.432 140.07C349.6 140.475 349.977 141.054 349.153 141.27Z" fill="#F6F6F6"/>
<path d="M347.386 141.347C346.191 141.458 346.575 140.649 346.582 140.014C347.022 139.853 347.553 139.686 347.777 140.181C347.833 140.282 347.868 140.394 347.879 140.509C347.89 140.625 347.876 140.741 347.839 140.851C347.802 140.96 347.743 141.061 347.665 141.147C347.587 141.232 347.492 141.3 347.386 141.347Z" fill="#F6F6F6"/>
<path d="M547.362 138.577C547.851 138.27 547.362 137.293 548.179 137.279C548.878 137.279 548.591 137.976 548.787 138.346C548.585 138.495 548.35 138.594 548.102 138.634C547.855 138.674 547.601 138.654 547.362 138.577Z" fill="#050505"/>
<path d="M342.579 140.851C343.026 140.851 343.236 140.154 343.774 140.44C343.858 140.495 343.872 140.726 343.872 140.872C343.872 141.731 343.019 141.228 342.698 141.57L342.048 141.347L342.579 140.851Z" fill="#F6F6F6"/>
<path d="M244.722 139.909C242.144 140.202 239.54 140.155 236.974 139.77C233.663 139.295 232.853 140.174 233.859 143.259C233.43 142.994 233.112 142.583 232.962 142.103C232.812 141.622 232.84 141.103 233.041 140.642C233.412 139.574 234.194 138.786 235.291 138.988C238.324 139.501 241.405 139.674 244.477 139.505C244.526 139.519 244.582 139.714 244.722 139.909Z" fill="#050505"/>
<path d="M232.566 147.438C236.105 145.319 239.944 143.745 243.953 142.77C240.146 144.284 236.395 145.84 232.566 147.438Z" fill="#050505"/>
<path d="M235.927 144.27C239.21 143.154 242.361 141.605 245.86 141.214C242.514 142.135 239.406 143.803 235.927 144.27Z" fill="#050505"/>
<path d="M237.54 137.111L243.436 137.865L243.387 138.256C241.393 138.166 239.413 137.876 237.477 137.39C237.366 137.272 237.387 137.174 237.54 137.111Z" fill="#050505"/>
<path d="M310.94 137.565C310.717 137.23 310.563 136.811 311.073 136.567C311.583 136.323 312.079 136.427 312.212 136.979C312.261 137.209 312.806 137.718 312.093 137.907C311.66 138.025 311.178 138.318 310.94 137.565Z" fill="#050505"/>
<path d="M237.477 137.39C235.811 137.308 234.156 137.074 232.531 136.693L232.587 136.274L237.54 137.132C237.514 137.217 237.493 137.303 237.477 137.39Z" fill="#050505"/>
<path d="M301.803 145.052C301.591 145.153 301.354 145.189 301.121 145.156C300.889 145.122 300.671 145.021 300.497 144.864C300.147 144.438 300.608 144.096 300.895 143.824C300.967 143.748 301.056 143.689 301.155 143.652C301.253 143.615 301.359 143.601 301.463 143.61C301.568 143.619 301.669 143.652 301.76 143.706C301.85 143.76 301.927 143.834 301.985 143.922C302.105 144.097 302.154 144.313 302.12 144.523C302.086 144.733 301.973 144.923 301.803 145.052Z" fill="#050505"/>
<path d="M300.664 136.923C300.21 136.993 299.798 137.146 299.637 136.665C299.477 136.183 299.281 135.702 299.931 135.499C300.238 135.409 300.762 135.248 300.867 135.723C300.972 136.197 301.111 136.623 300.664 136.923Z" fill="#050505"/>
<path d="M306.33 145.687C305.806 146.015 305.415 146.015 305.128 145.582C304.842 145.15 304.863 144.885 305.268 144.633C305.673 144.382 306.015 144.452 306.162 144.898C306.253 145.164 306.91 145.436 306.33 145.687Z" fill="#050505"/>
<path d="M311.604 142.31C311.339 141.744 311.891 141.479 312.086 141.103C312.121 141.031 312.174 140.969 312.239 140.923C312.304 140.877 312.38 140.848 312.459 140.839C312.539 140.83 312.619 140.841 312.693 140.871C312.767 140.901 312.832 140.95 312.883 141.012C313.267 141.479 312.966 141.884 312.617 142.219C312.486 142.351 312.312 142.432 312.127 142.449C311.942 142.466 311.757 142.416 311.604 142.31Z" fill="#050505"/>
<path d="M305.093 140.768C305.185 140.9 305.22 141.063 305.191 141.222C305.163 141.38 305.072 141.52 304.94 141.612C304.367 142.038 304.066 141.458 303.752 141.193C303.438 140.928 303.682 140.565 303.969 140.447C304.165 140.366 304.383 140.354 304.587 140.412C304.791 140.47 304.969 140.595 305.093 140.768Z" fill="#050505"/>
<path d="M318.827 138.521C318.946 137.516 319.491 137.453 320.169 137.6C320.413 137.648 320.609 137.823 320.504 138.004C320.106 138.681 319.435 138.318 318.827 138.521Z" fill="#050505"/>
<path d="M289.033 141.724L285.847 140.719L285.959 140.342L289.159 141.284L289.033 141.724Z" fill="#050505"/>
<path d="M308.474 131.801C308.565 131.494 308.565 131.02 308.796 130.838C309.236 130.482 309.341 131.061 309.571 131.285C309.983 131.675 309.606 131.808 309.362 131.941C309.224 132.036 309.055 132.075 308.89 132.049C308.725 132.023 308.576 131.934 308.474 131.801Z" fill="#050505"/>
<path d="M302.418 130.957C302.613 131.327 302.313 131.522 302.131 131.717C302.09 131.785 302.032 131.841 301.961 131.878C301.891 131.915 301.812 131.932 301.732 131.927C301.653 131.922 301.576 131.895 301.511 131.849C301.446 131.804 301.395 131.741 301.363 131.668C301.153 131.347 300.972 131.006 301.398 130.726C301.824 130.447 302.061 130.957 302.418 130.957Z" fill="#050505"/>
<path d="M311.087 146.217C310.64 146.462 310.221 146.566 309.941 146.134C309.662 145.701 310.032 145.561 310.284 145.394C310.745 145.087 311.094 145.457 311.339 145.729C311.583 146.001 311.087 146.036 311.087 146.217Z" fill="#050505"/>
<path d="M261.201 134.941C260.74 135.116 260.391 135.095 260.153 134.718C260.107 134.669 260.072 134.61 260.051 134.546C260.03 134.482 260.024 134.414 260.033 134.347C260.041 134.28 260.065 134.216 260.102 134.16C260.138 134.103 260.187 134.055 260.244 134.02C260.322 133.968 260.41 133.934 260.502 133.922C260.595 133.91 260.689 133.92 260.777 133.95C260.865 133.981 260.945 134.031 261.01 134.098C261.075 134.164 261.124 134.245 261.152 134.334C261.257 134.536 261.495 134.774 261.201 134.941Z" fill="#050505"/>
<path d="M249.018 140.251C248.882 140.329 248.721 140.353 248.568 140.32C248.414 140.286 248.278 140.197 248.187 140.07C248.124 140.022 248.075 139.959 248.045 139.887C248.015 139.815 248.004 139.736 248.014 139.658C248.024 139.58 248.054 139.506 248.101 139.444C248.149 139.381 248.212 139.333 248.285 139.302C248.426 139.232 248.59 139.22 248.741 139.27C248.891 139.319 249.016 139.426 249.088 139.567C249.132 139.615 249.165 139.672 249.185 139.734C249.206 139.795 249.213 139.86 249.206 139.925C249.2 139.99 249.18 140.052 249.147 140.108C249.115 140.164 249.071 140.213 249.018 140.251Z" fill="#050505"/>
<path d="M307.035 137.355C306.672 137.579 306.337 137.718 306.113 137.425C306.043 137.286 306.026 137.126 306.066 136.976C306.106 136.825 306.2 136.695 306.33 136.609C306.581 136.392 306.868 136.288 307.105 136.609C307.343 136.93 307.364 137.223 307.035 137.355Z" fill="#050505"/>
<path d="M260.314 143.67C259.958 143.859 259.657 143.88 259.539 143.608C259.471 143.465 259.46 143.302 259.506 143.151C259.553 143 259.654 142.872 259.79 142.791C260.014 142.652 260.272 142.519 260.398 142.896C260.524 143.273 260.573 143.517 260.314 143.67Z" fill="#050505"/>
<path d="M478.705 137.097C472.257 137.39 465.935 139.037 459.299 139.135C460.29 138.584 476.98 136.755 478.705 137.097Z" fill="#050505"/>
<path d="M398.822 137.921C401.956 138.074 405.094 137.718 408.113 136.867C411.339 136.024 414.677 135.695 418.005 135.89C417.307 135.967 416.671 136.064 416.007 136.12C412.517 136.447 409.057 137.049 405.661 137.921C403.375 138.473 401.008 138.6 398.675 138.297C398.529 138.102 398.466 137.935 398.822 137.921Z" fill="#050505"/>
<path d="M398.822 137.921L398.689 138.297C396.503 138.228 394.309 138.123 392.116 138.186C394.315 137.679 396.59 137.589 398.822 137.921Z" fill="#050505"/>
<path d="M444.88 141.109C444.621 141.228 444.314 141.535 444.181 141.033C444.083 140.733 443.748 140.335 444.181 140.105C444.339 140.014 444.524 139.98 444.704 140.008C444.884 140.036 445.05 140.124 445.173 140.258C445.536 140.719 445.138 140.9 444.88 141.109Z" fill="#050505"/>
<path d="M371.27 133.378C370.802 134.076 370.397 134.348 369.817 134.194C369.751 134.122 369.704 134.035 369.679 133.94C369.655 133.845 369.654 133.745 369.677 133.65C370.034 133.148 370.523 133.301 371.27 133.378Z" fill="#050505"/>
<path d="M375.657 138.835C375.589 138.887 375.511 138.926 375.427 138.948C375.344 138.97 375.257 138.975 375.171 138.962C375.086 138.95 375.004 138.921 374.93 138.876C374.856 138.831 374.792 138.772 374.742 138.702C374.683 138.648 374.638 138.581 374.611 138.506C374.585 138.43 374.577 138.349 374.59 138.27C374.602 138.192 374.634 138.117 374.683 138.053C374.731 137.99 374.795 137.939 374.868 137.907C375.002 137.818 375.165 137.783 375.323 137.81C375.482 137.838 375.624 137.924 375.72 138.053C375.839 138.256 375.685 138.611 375.657 138.835Z" fill="#050505"/>
<path d="M438.767 140.628C439.082 140.558 439.466 140.384 439.717 140.768C439.969 141.151 439.612 141.361 439.291 141.465C438.97 141.57 438.774 141.947 438.551 141.465C438.425 141.144 438.285 140.83 438.767 140.628Z" fill="#050505"/>
<path d="M496.33 139.847C496.589 139.484 496.666 138.807 497.273 139.191C497.455 139.302 497.797 139.526 497.63 139.777C497.294 140.293 496.798 139.812 496.33 139.847Z" fill="#050505"/>
<path d="M370.348 138.737C369.796 138.611 369.188 138.674 369.035 138.039C368.979 137.795 369.223 137.6 369.538 137.579C370.453 137.516 370.18 138.235 370.348 138.737Z" fill="#050505"/>
<path d="M377.362 141.214C376.984 141.368 376.663 141.458 376.461 141.096C376.258 140.733 376.461 140.572 376.726 140.481C376.991 140.391 377.501 140.3 377.704 140.691C377.907 141.082 377.508 141.109 377.362 141.214Z" fill="#050505"/>
<path d="M437.433 137.997C437.38 137.878 437.369 137.745 437.4 137.619C437.432 137.492 437.505 137.38 437.608 137.3C437.725 137.192 437.878 137.133 438.037 137.133C438.196 137.133 438.35 137.192 438.467 137.3C438.526 137.337 438.575 137.388 438.609 137.449C438.642 137.51 438.66 137.579 438.66 137.648C438.66 137.718 438.642 137.787 438.609 137.848C438.575 137.909 438.526 137.96 438.467 137.997C438.317 138.108 438.136 138.168 437.95 138.168C437.764 138.168 437.582 138.108 437.433 137.997Z" fill="#050505"/>
<path d="M547.467 135.416C546.985 136.176 546.524 136.058 546.069 135.688C545.986 135.625 545.951 135.318 546.007 135.276C546.566 134.871 546.929 135.332 547.467 135.416Z" fill="#050505"/>
<path d="M497.602 137.244C497.385 137.314 497.106 137.558 497.015 137.125C496.945 136.818 496.875 136.427 497.211 136.267C497.322 136.204 497.616 136.344 497.742 136.469C498.021 136.755 497.958 137.034 497.602 137.244Z" fill="#050505"/>
<path d="M379.478 137.23C379.716 137.621 379.478 137.788 379.297 137.928C379.237 137.977 379.169 138.015 379.094 138.037C379.02 138.06 378.942 138.067 378.865 138.059C378.788 138.05 378.714 138.026 378.646 137.988C378.579 137.95 378.52 137.898 378.472 137.837C378.263 137.628 378.179 137.321 378.472 137.223C378.806 137.17 379.146 137.173 379.478 137.23Z" fill="#050505"/>
<path d="M435.491 136.274C435.365 136.658 435.491 137.209 434.855 137.202C434.743 137.202 434.527 137.034 434.527 136.944C434.52 136.295 435.051 136.358 435.491 136.274Z" fill="#050505"/>
<path d="M360.393 139.302C360.351 139.334 360.302 139.356 360.25 139.366C360.198 139.376 360.145 139.375 360.094 139.361C360.043 139.348 359.995 139.323 359.955 139.289C359.915 139.254 359.883 139.211 359.862 139.163C359.816 139.096 359.784 139.021 359.769 138.941C359.753 138.862 359.753 138.78 359.77 138.701C359.788 138.622 359.821 138.547 359.868 138.482C359.915 138.416 359.975 138.36 360.044 138.318C360.316 138.137 360.547 138.374 360.659 138.618C360.77 138.863 360.61 139.128 360.393 139.302Z" fill="#050505"/>
<path d="M477.084 5.04102L486.669 36.1553L467.234 30.8731L467.584 53.9698L457.866 22.4159L477.573 27.6982L477.084 5.04102Z" fill="#F6F6F6"/>
</g>
<defs>
<filter id="filter0_d_165_147" x="150.905" y="0.148205" width="450.139" height="165.583" filterUnits="userSpaceOnUse" color-interpolation-filters="sRGB">
<feFlood flood-opacity="0" result="BackgroundImageFix"/>
<feColorMatrix in="SourceAlpha" type="matrix" values="0 0 0 0 0 0 0 0 0 0 0 0 0 0 0 0 0 0 127 0" result="hardAlpha"/>
<feOffset dy="5.15033"/>
<feGaussianBlur stdDeviation="5.02157"/>
<feComposite in2="hardAlpha" operator="out"/>
<feColorMatrix type="matrix" values="0 0 0 0 0 0 0 0 0 0 0 0 0 0 0 0 0 0 0.5 0"/>
<feBlend mode="normal" in2="BackgroundImageFix" result="effect1_dropShadow_165_147"/>
<feBlend mode="normal" in="SourceGraphic" in2="effect1_dropShadow_165_147" result="shape"/>
</filter>
</defs>
</svg>
