<svg width="326" height="53" viewBox="0 0 326 53" fill="none" xmlns="http://www.w3.org/2000/svg">
<path d="M16.36 34.36L16 35.88L11.48 40L3.2 34.88V17.16L0.48 16.8C3.86667 12.8267 5.69333 10 5.96 8.32C6.25333 7.84 6.57333 7.13333 6.92 6.2V6C6.94667 6.05333 6.94667 6.12 6.92 6.2L7.44 14.6H11.56L11.4 17.68H7.6L7.92 34.68C9.52 36.1733 10.6133 36.9333 11.2 36.96C11.28 37.12 11.4 37.2 11.56 37.2C11.9067 37.2 12.36 36.8133 12.92 36.04L10 34.52L16.36 34.36ZM37.8772 23.48C37.9839 23.7467 38.0372 24.2267 38.0372 24.92C38.0372 26.3333 37.7705 28.7867 37.2372 32.28C36.7305 35.7733 36.4772 37.64 36.4772 37.88C36.4772 38.1733 36.7839 38.88 37.3972 40L30.1172 39.68C30.2772 39.6533 30.4639 39.5733 30.6772 39.44C31.1839 39.0933 31.7972 38.4667 32.5172 37.56L33.1172 28.76C32.8239 25.6667 32.2239 23.8533 31.3172 23.32C31.1572 23.2667 30.9439 23.24 30.6772 23.24C30.0105 23.24 29.1439 23.3867 28.0772 23.68C27.1439 23.9467 26.4639 24.2 26.0372 24.44L24.9572 36.96C26.0239 38.6667 26.8239 39.5733 27.3572 39.68L17.3572 40C16.6372 40.24 17.4505 39.2267 19.7972 36.96L21.5972 9.04L17.3972 11.12C20.8905 7.01333 23.1972 4.09333 24.3172 2.36C24.9839 1.32 25.3172 0.573332 25.3172 0.119998V-4.76837e-07C25.3439 0.0266658 25.3439 0.0666653 25.3172 0.119998L25.8372 8.84L26.1572 20.6C27.7572 19.7733 29.4639 19.36 31.2772 19.36C31.8639 19.36 32.3705 19.4 32.7972 19.48C34.2905 19.7733 35.4372 20.2667 36.2372 20.96C36.8772 21.5467 37.4239 22.3867 37.8772 23.48ZM52.5747 22.84L50.4547 22.52L47.9747 21.96L44.4147 20.72C44.1747 23.6267 44.0547 26.0533 44.0547 28C44.0547 29.4933 44.1214 30.56 44.2547 31.2C44.6547 32.8 45.1747 33.6 45.8147 33.6C46.028 33.6 46.2547 33.4933 46.4947 33.28C46.7614 33.0933 47.028 32.7467 47.2947 32.24C47.908 31.0133 48.548 29.1867 49.2147 26.76C50.6814 28.2267 51.4147 29.1867 51.4147 29.64C51.3614 29.8267 50.9747 30.4667 50.2547 31.56C48.308 34.0933 47.0147 35.5067 46.3747 35.8C45.788 35.88 44.8414 35.76 43.5347 35.44L38.5747 30.12L39.2947 15.4C41.4814 13.2133 43.6014 11.68 45.6547 10.8C46.028 10.6667 46.4014 10.6 46.7747 10.6C47.7347 10.6 48.748 11.0533 49.8147 11.96C50.428 12.5733 51.0547 13.1867 51.6947 13.8C52.2814 14.68 52.5747 17.6933 52.5747 22.84ZM47.7747 19.32C47.588 18.36 47.2414 16.9467 46.7347 15.08C46.6547 14.7867 46.468 14.44 46.1747 14.04C45.8814 13.6133 45.6147 13.4 45.3747 13.4C45.108 13.4 44.908 13.6533 44.7747 14.16C44.428 15.6 44.2547 17.2 44.2547 18.96L47.7747 19.32ZM86.4009 30.72C86.4276 30.9067 86.4409 31.0933 86.4409 31.28C86.4409 33.3067 85.1609 35.2933 82.6009 37.24C82.4676 37.2933 82.0143 37.64 81.2409 38.28C80.6009 38.8133 80.1076 39.0133 79.7609 38.88C79.3076 38.72 78.2409 38.1867 76.5609 37.28C74.8009 36.3467 73.7609 35.72 73.4409 35.4L73.2809 40L66.9609 39.52L69.9609 37.52L70.0809 18.12L69.0409 1.84L68.7609 0.839998L73.7209 1.16V3.48C75.5076 1.42667 77.4276 0.266666 79.4809 -4.76837e-07C82.0943 -4.76837e-07 83.8143 0.399999 84.6409 1.2C85.8143 2.34666 86.4009 4.85333 86.4009 8.72V30.72ZM82.2409 9.96C82.2943 9.69333 82.3209 9.41333 82.3209 9.12C82.3209 8 82.0543 6.89333 81.5209 5.8C80.2943 4.84 79.5209 4.36 79.2009 4.36C79.0943 4.36 79.0409 4.4 79.0409 4.48L73.8409 6.52L74.0009 31.4C76.0543 32.3333 77.9743 32.8 79.7609 32.8C80.1076 32.8 80.4009 32.7867 80.6409 32.76C80.8543 31.9067 81.0409 30.5867 81.2009 28.8C81.6543 24.5067 82.0009 18.2267 82.2409 9.96ZM101.989 22.84L99.8688 22.52L97.3888 21.96L93.8288 20.72C93.5888 23.6267 93.4688 26.0533 93.4688 28C93.4688 29.4933 93.5354 30.56 93.6688 31.2C94.0688 32.8 94.5888 33.6 95.2288 33.6C95.4421 33.6 95.6688 33.4933 95.9088 33.28C96.1754 33.0933 96.4421 32.7467 96.7088 32.24C97.3221 31.0133 97.9621 29.1867 98.6288 26.76C100.095 28.2267 100.829 29.1867 100.829 29.64C100.775 29.8267 100.389 30.4667 99.6688 31.56C97.7221 34.0933 96.4288 35.5067 95.7888 35.8C95.2021 35.88 94.2554 35.76 92.9488 35.44L87.9888 30.12L88.7088 15.4C90.8954 13.2133 93.0154 11.68 95.0688 10.8C95.4421 10.6667 95.8154 10.6 96.1888 10.6C97.1488 10.6 98.1621 11.0533 99.2287 11.96C99.8421 12.5733 100.469 13.1867 101.109 13.8C101.695 14.68 101.989 17.6933 101.989 22.84ZM97.1888 19.32C97.0021 18.36 96.6554 16.9467 96.1488 15.08C96.0688 14.7867 95.8821 14.44 95.5888 14.04C95.2954 13.6133 95.0288 13.4 94.7888 13.4C94.5221 13.4 94.3221 13.6533 94.1888 14.16C93.8421 15.6 93.6688 17.2 93.6688 18.96L97.1888 19.32ZM116.949 30.36L113.069 35.4C112.509 35.6133 111.975 35.64 111.469 35.48C111.175 35.24 110.789 34.6133 110.309 33.6C108.895 34.4 107.909 35 107.349 35.4C107.002 35.6667 106.602 35.8 106.149 35.8C105.695 35.8 105.309 35.6667 104.989 35.4C104.669 35.16 104.269 34.2667 103.789 32.72C103.335 31.3067 103.055 30.1733 102.949 29.32C102.682 26.9467 102.802 25.2667 103.309 24.28C103.522 23.8267 104.415 22.76 105.989 21.08L109.709 21.24V22.08C108.455 22.6133 107.722 23.1733 107.509 23.76C107.482 23.92 107.469 24.2 107.469 24.6C107.469 25.88 107.562 27.2267 107.749 28.64C107.935 30.3733 108.189 31.3333 108.509 31.52C108.695 31.6267 108.909 31.68 109.149 31.68C109.575 31.68 109.989 31.52 110.389 31.2V15.68C110.149 15.2267 109.642 15.12 108.869 15.36C108.122 15.6 107.722 15.7333 107.669 15.76C107.322 15.8933 106.935 16.1467 106.509 16.52C106.349 16.68 106.202 16.88 106.069 17.12C105.749 17.6533 105.549 18.2933 105.469 19.04C104.962 18.2133 104.455 17.32 103.949 16.36C103.682 15.7467 103.549 15.0533 103.549 14.28C103.549 13.96 103.575 13.64 103.629 13.32L109.349 10.28L115.509 16.44V30.36H116.949ZM131.516 34.36L131.156 35.88L126.636 40L118.356 34.88V17.16L115.636 16.8C119.023 12.8267 120.85 10 121.116 8.32C121.41 7.84 121.73 7.13333 122.076 6.2V6C122.103 6.05333 122.103 6.12 122.076 6.2L122.596 14.6H126.716L126.556 17.68H122.756L123.076 34.68C124.676 36.1733 125.77 36.9333 126.356 36.96C126.436 37.12 126.556 37.2 126.716 37.2C127.063 37.2 127.516 36.8133 128.076 36.04L125.156 34.52L131.516 34.36ZM153.033 23.48C153.14 23.7467 153.193 24.2267 153.193 24.92C153.193 26.3333 152.927 28.7867 152.393 32.28C151.887 35.7733 151.633 37.64 151.633 37.88C151.633 38.1733 151.94 38.88 152.553 40L145.273 39.68C145.433 39.6533 145.62 39.5733 145.833 39.44C146.34 39.0933 146.953 38.4667 147.673 37.56L148.273 28.76C147.98 25.6667 147.38 23.8533 146.473 23.32C146.313 23.2667 146.1 23.24 145.833 23.24C145.167 23.24 144.3 23.3867 143.233 23.68C142.3 23.9467 141.62 24.2 141.193 24.44L140.113 36.96C141.18 38.6667 141.98 39.5733 142.513 39.68L132.513 40C131.793 40.24 132.607 39.2267 134.953 36.96L136.753 9.04L132.553 11.12C136.047 7.01333 138.353 4.09333 139.473 2.36C140.14 1.32 140.473 0.573332 140.473 0.119998V-4.76837e-07C140.5 0.0266658 140.5 0.0666653 140.473 0.119998L140.993 8.84L141.313 20.6C142.913 19.7733 144.62 19.36 146.433 19.36C147.02 19.36 147.527 19.4 147.953 19.48C149.447 19.7733 150.593 20.2667 151.393 20.96C152.033 21.5467 152.58 22.3867 153.033 23.48ZM163.451 39.68L153.451 40C152.731 40.24 153.544 39.2267 155.891 36.96L157.691 9.04L153.491 11.12C156.984 7.01333 159.291 4.09333 160.411 2.36C161.078 1.32 161.411 0.573332 161.411 0.119998V-4.76837e-07C161.438 0.0266658 161.438 0.0666653 161.411 0.119998L161.051 36.96C162.118 38.6667 162.918 39.5733 163.451 39.68ZM186.645 17.08C182.752 24.28 179.525 29.84 176.965 33.76C175.872 35.6267 174.139 38.4 171.765 42.08C168.885 46.5333 166.525 49.9867 164.685 52.44C155.272 51.6133 149.499 51.24 147.365 51.32C146.299 50.9467 144.725 50.3067 142.645 49.4C141.632 48.84 141.125 48.2267 141.125 47.56C141.125 47.3733 141.165 47.1733 141.245 46.96C141.459 46.4533 141.752 45.9467 142.125 45.44C143.059 44.2133 144.339 43.0533 145.965 41.96L152.925 43L152.365 44.16C151.459 43.9733 150.565 43.92 149.685 44C148.832 44.0533 148.112 44.3333 147.525 44.84C146.939 45.3467 146.645 45.8933 146.645 46.48C146.645 46.88 146.832 47.2133 147.205 47.48C147.552 47.7733 148.299 48.0267 149.445 48.24C152.192 48.7467 156.539 49.1733 162.485 49.52L171.405 35.88L167.325 18.28L163.725 16.68V15.96L174.205 15.88L174.605 17.28L172.445 17.8L175.005 29.6L182.645 16.56L180.245 14.64L190.165 14.4L186.645 17.08ZM232.784 14.92L231.464 15.92C231.357 15.84 231.211 15.8 231.024 15.8C230.757 15.8 230.477 15.8933 230.184 16.08C229.891 16.24 229.331 16.7333 228.504 17.56V38.2L230.304 40H220.304L221.784 38.52L222.104 20.64C221.811 20.7467 221.211 21.1333 220.304 21.8C219.104 22.5733 217.904 22.96 216.704 22.96H216.024V35.24L218.024 37.2H207.344L209.304 35.24V23.6C209.011 23.4133 208.517 23.1467 207.824 22.8C207.131 22.4533 206.424 22.1067 205.704 21.76C204.691 21.2533 204.091 20.88 203.904 20.64C203.077 19.5467 202.664 18.64 202.664 17.92C202.664 17.7333 202.704 17.5467 202.784 17.36C202.917 16.9867 203.277 16.64 203.864 16.32C204.451 16 204.957 15.8667 205.384 15.92C205.651 15.92 206.304 15.9733 207.344 16.08C206.944 16.2667 206.397 16.5867 205.704 17.04C205.384 17.2533 205.224 17.5733 205.224 18C205.224 18.88 205.611 19.44 206.384 19.68C206.704 19.7867 207.744 20.1067 209.504 20.64V3.12L207.664 1.16H217.504L216.464 2.2V19.84C216.544 19.8933 216.637 19.92 216.744 19.92C217.197 19.92 217.837 19.68 218.664 19.2C219.224 18.8533 220.371 18.3067 222.104 17.56V1.32L220.784 -4.76837e-07H230.144L228.824 1.32V15.24C229.144 15.24 229.584 15.1333 230.144 14.92C230.784 14.7067 231.664 14.7067 232.784 14.92ZM247.261 30.36L243.381 35.4C242.821 35.6133 242.288 35.64 241.781 35.48C241.488 35.24 241.101 34.6133 240.621 33.6C239.208 34.4 238.221 35 237.661 35.4C237.315 35.6667 236.915 35.8 236.461 35.8C236.008 35.8 235.621 35.6667 235.301 35.4C234.981 35.16 234.581 34.2667 234.101 32.72C233.648 31.3067 233.368 30.1733 233.261 29.32C232.995 26.9467 233.115 25.2667 233.621 24.28C233.835 23.8267 234.728 22.76 236.301 21.08L240.021 21.24V22.08C238.768 22.6133 238.035 23.1733 237.821 23.76C237.795 23.92 237.781 24.2 237.781 24.6C237.781 25.88 237.875 27.2267 238.061 28.64C238.248 30.3733 238.501 31.3333 238.821 31.52C239.008 31.6267 239.221 31.68 239.461 31.68C239.888 31.68 240.301 31.52 240.701 31.2V15.68C240.461 15.2267 239.955 15.12 239.181 15.36C238.435 15.6 238.035 15.7333 237.981 15.76C237.635 15.8933 237.248 16.1467 236.821 16.52C236.661 16.68 236.515 16.88 236.381 17.12C236.061 17.6533 235.861 18.2933 235.781 19.04C235.275 18.2133 234.768 17.32 234.261 16.36C233.995 15.7467 233.861 15.0533 233.861 14.28C233.861 13.96 233.888 13.64 233.941 13.32L239.661 10.28L245.821 16.44V30.36H247.261ZM257.709 39.68L247.709 40C246.989 40.24 247.802 39.2267 250.149 36.96L251.949 9.04L247.749 11.12C251.242 7.01333 253.549 4.09333 254.669 2.36C255.335 1.32 255.669 0.573332 255.669 0.119998V-4.76837e-07C255.695 0.0266658 255.695 0.0666653 255.669 0.119998L255.309 36.96C256.375 38.6667 257.175 39.5733 257.709 39.68ZM267.943 39.68L257.943 40C257.223 40.24 258.036 39.2267 260.383 36.96L262.183 9.04L257.983 11.12C261.476 7.01333 263.783 4.09333 264.903 2.36C265.57 1.32 265.903 0.573332 265.903 0.119998V-4.76837e-07C265.93 0.0266658 265.93 0.0666653 265.903 0.119998L265.543 36.96C266.61 38.6667 267.41 39.5733 267.943 39.68ZM282.338 26.68C282.418 30.0933 282.324 32.5333 282.058 34C281.818 35.3333 281.324 36.36 280.578 37.08C278.898 38.7867 277.378 39.64 276.018 39.64C273.991 39.64 272.351 38.9867 271.098 37.68C270.751 37.3067 270.431 36.92 270.138 36.52C269.471 35.6133 269.058 34.8 268.898 34.08L268.578 23.68L266.537 23.36L267.337 21.76C267.711 22.0533 268.124 22.16 268.578 22.08C268.844 22.0267 269.018 21.88 269.098 21.64C269.204 21.3733 269.298 21.0933 269.378 20.8C269.511 20.64 269.804 20.4133 270.258 20.12C271.378 19.4 273.191 18.4267 275.698 17.2C276.791 17.0933 278.031 17.5467 279.418 18.56C280.511 19.4133 281.218 20.1867 281.538 20.88C281.991 21.9733 282.258 23.9067 282.338 26.68ZM276.818 19.72C276.204 19.5333 275.671 19.5333 275.218 19.72C274.978 19.8533 274.764 20.0133 274.578 20.2C274.124 20.7067 273.818 21.3333 273.658 22.08C274.431 21.9733 275.111 21.7067 275.698 21.28C275.964 21.0667 276.338 20.5467 276.818 19.72ZM277.458 35.64L277.418 22.4C276.538 22.8 275.804 23.12 275.218 23.36C274.951 23.4667 274.378 23.72 273.498 24.12V35.84C273.764 37.0133 274.338 37.5467 275.218 37.44C275.911 36.96 276.658 36.36 277.458 35.64ZM315.519 38.88L315.279 40.12L311.839 43L304.239 39.16L297.799 26.24L292.959 40.08L284.799 23.76L282.279 20.64L288.879 19.04L287.919 22.84L292.639 32.56L296.199 23.04L293.599 19.68L301.119 18.76L299.319 22.04L303.919 31.6L307.719 21.56L305.519 17.8H312.399L310.519 21.24L306.159 33.76C309.145 39.0933 310.812 41.76 311.159 41.76C311.345 41.76 311.892 41.2667 312.799 40.28L310.479 39.04L315.519 38.88ZM325.031 29.76L316.511 36.2C314.244 32.4667 313.191 30.24 313.351 29.52C313.537 29.3067 315.124 28.4 318.111 26.8L318.591 27.48C317.577 27.9333 316.964 28.6133 316.751 29.52C316.671 29.7867 316.631 30.0533 316.631 30.32C316.631 31.44 317.071 32.0667 317.951 32.2C318.857 32.3067 319.817 31 320.831 28.28C320.964 27.88 321.031 27.4267 321.031 26.92C321.031 26.2 320.884 25.5067 320.591 24.84L314.111 25.92C313.577 24.6133 313.177 23.2933 312.911 21.96C312.777 20.6 312.911 19.3067 313.311 18.08L321.311 11C323.871 14.5467 325.097 16.68 324.991 17.4C324.831 17.64 323.324 18.68 320.471 20.52L319.951 19.84C320.404 19.4133 320.711 18.9733 320.871 18.52C321.031 18.04 321.111 17.52 321.111 16.96C321.111 15.76 320.804 15.1467 320.191 15.12C319.631 15.0933 319.044 15.36 318.431 15.92C317.791 16.56 317.404 17.3067 317.271 18.16C317.271 18.2133 317.151 18.92 316.911 20.28C316.724 21.2933 316.644 21.9067 316.671 22.12C318.937 22.04 320.484 22.0667 321.311 22.2C323.151 22.6267 324.351 23.28 324.911 24.16C325.337 24.9067 325.551 25.8267 325.551 26.92C325.551 27.8533 325.377 28.8 325.031 29.76Z" fill="white"/>
</svg>
