<svg width="699" height="293" viewBox="0 0 699 293" fill="none" xmlns="http://www.w3.org/2000/svg">
<g filter="url(#filter0_d_408_19085)">
<path d="M264.766 74.491C267.167 84.0975 268.368 93.1035 268.368 101.509C268.368 114.89 265.452 123.981 259.619 128.785C256.875 130.843 252.758 131.872 247.268 131.872C238.005 131.872 226.769 128.699 213.56 122.352C219.735 122.866 225.74 121.408 231.572 117.977C238.434 113.517 242.722 110.429 244.438 108.714C249.069 104.425 250.956 99.6222 250.099 94.3043C247.697 79.2085 240.149 66.6858 227.455 56.7362C214.761 46.7867 199.836 41.8119 182.682 41.8119C179.594 41.8119 176.421 41.9835 173.161 42.3266C165.27 43.6989 154.72 45.2428 141.512 46.9582L137.909 250.238L152.833 266.963H86.9606L103.686 252.039L104.458 54.4204C97.0817 56.4789 87.561 58.6232 75.896 60.8533C71.779 62.7403 66.3753 63.6838 59.6851 63.6838C47.334 63.6838 33.4389 60.2529 18 53.3911L32.9243 47.7302C54.7104 46.5294 71.0928 44.9855 82.0716 43.0985C84.3017 42.5839 91.0776 40.3538 102.4 36.4083L102.142 9.64748L142.541 17.1096L143.055 26.373C145.8 26.0299 148.287 25.8584 150.518 25.8584C186.713 24.3145 209.7 25.601 219.478 29.7181C227.369 33.149 235.946 38.8957 245.21 46.9582C256.189 56.7362 262.707 65.9138 264.766 74.491ZM361.685 156.575L348.048 154.516L332.094 150.914L309.193 142.937C307.649 161.635 306.877 177.246 306.877 189.768C306.877 199.375 307.306 206.237 308.164 210.354C310.737 220.646 314.082 225.793 318.199 225.793C319.571 225.793 321.029 225.106 322.573 223.734C324.289 222.533 326.004 220.303 327.72 217.044C331.665 209.153 335.782 197.402 340.071 181.792C349.506 191.227 354.223 197.402 354.223 200.318C353.88 201.519 351.393 205.636 346.761 212.67C334.238 228.966 325.918 238.058 321.801 239.945C318.027 240.46 311.938 239.688 303.532 237.629L271.625 203.406L276.256 108.714C290.323 94.6474 303.961 84.7836 317.17 79.1227C319.571 78.265 321.973 77.8361 324.374 77.8361C330.55 77.8361 337.069 80.7524 343.93 86.5849C347.876 90.5304 351.907 94.4759 356.024 98.4214C359.798 104.082 361.685 123.467 361.685 156.575ZM330.807 133.931C329.607 127.755 327.376 118.664 324.117 106.655C323.603 104.768 322.402 102.538 320.515 99.9653C318.628 97.2206 316.912 95.8482 315.368 95.8482C313.653 95.8482 312.366 97.4779 311.509 100.737C309.279 110.001 308.164 120.293 308.164 131.615L330.807 133.931ZM457.921 204.95L432.962 237.372C429.359 238.744 425.928 238.916 422.669 237.886C420.782 236.343 418.295 232.311 415.207 225.793C406.115 230.939 399.768 234.799 396.166 237.372C393.935 239.087 391.362 239.945 388.446 239.945C385.53 239.945 383.042 239.087 380.984 237.372C378.925 235.828 376.352 230.081 373.264 220.132C370.348 211.04 368.547 203.749 367.861 198.26C366.145 182.992 366.917 172.185 370.177 165.838C371.549 162.922 377.296 156.06 387.417 145.253L411.347 146.282V151.686C403.285 155.117 398.567 158.719 397.195 162.493C397.023 163.522 396.937 165.323 396.937 167.897C396.937 176.131 397.538 184.794 398.739 193.885C399.939 205.036 401.569 211.211 403.628 212.412C404.828 213.098 406.201 213.441 407.745 213.441C410.489 213.441 413.148 212.412 415.722 210.354V110.515C414.178 107.599 410.918 106.913 405.944 108.457C401.14 110.001 398.567 110.858 398.224 111.03C395.994 111.888 393.507 113.517 390.762 115.919C389.733 116.948 388.789 118.235 387.931 119.779C385.873 123.209 384.586 127.327 384.072 132.13C380.812 126.812 377.553 121.065 374.294 114.89C372.578 110.944 371.721 106.484 371.721 101.509C371.721 99.4506 371.892 97.3921 372.235 95.3336L409.031 75.7776L448.658 115.404V204.95H457.921ZM680.29 254.612L634.488 256.671C635.346 256.499 636.461 255.899 637.833 254.869C640.921 252.296 644.438 248.008 648.383 242.004L650.699 174.072C651.385 154.002 647.097 143.966 637.833 143.966C636.118 143.966 634.488 144.309 632.944 144.996C627.112 149.284 619.049 155.031 608.757 162.236C609.786 164.294 610.3 167.897 610.3 173.043C610.3 181.449 608.756 196.116 605.669 217.044C602.752 236.771 601.38 247.75 601.552 249.98C601.723 251.867 603.953 256.07 608.242 262.589L562.44 264.905C563.469 264.562 564.67 263.875 566.042 262.846C569.13 260.273 572.647 256.07 576.592 250.238L578.908 182.306C579.594 162.064 575.305 151.943 566.042 151.943C564.327 151.943 562.697 152.286 561.153 152.972C552.576 156.746 541.769 162.836 528.731 171.242L525.386 240.974C532.934 250.924 538.509 256.156 542.112 256.671L479.584 264.133C479.069 264.304 478.726 264.39 478.555 264.39C476.153 264.39 480.956 257.528 492.964 243.805L499.655 151.943C484.73 117.12 476.239 99.6222 474.18 99.4506C472.98 99.2791 469.291 102.024 463.116 107.685L476.496 116.691L445.361 114.118L447.934 106.913L470.835 91.4739L511.748 115.919L527.187 147.054L571.188 121.58C573.59 119.693 575.992 118.749 578.393 118.749C585.427 118.749 592.374 125.525 599.236 139.077L642.979 113.603C644.352 112.402 645.896 111.802 647.611 111.802C652.757 111.802 658.762 116.262 665.623 125.182C670.598 131.358 675.058 138.305 679.004 146.025C680.204 148.255 680.805 152.715 680.805 159.405C680.805 168.84 679.433 184.794 676.688 207.266C674.286 228.366 673.171 239.859 673.343 241.746C673.514 243.805 675.83 248.093 680.29 254.612Z" fill="#F6F6F6"/>
</g>
<defs>
<filter id="filter0_d_408_19085" x="0.581711" y="0.146606" width="697.641" height="292.152" filterUnits="userSpaceOnUse" color-interpolation-filters="sRGB">
<feFlood flood-opacity="0" result="BackgroundImageFix"/>
<feColorMatrix in="SourceAlpha" type="matrix" values="0 0 0 0 0 0 0 0 0 0 0 0 0 0 0 0 0 0 127 0" result="hardAlpha"/>
<feOffset dy="7.9174"/>
<feGaussianBlur stdDeviation="8.70914"/>
<feComposite in2="hardAlpha" operator="out"/>
<feColorMatrix type="matrix" values="0 0 0 0 0 0 0 0 0 0 0 0 0 0 0 0 0 0 1 0"/>
<feBlend mode="normal" in2="BackgroundImageFix" result="effect1_dropShadow_408_19085"/>
<feBlend mode="normal" in="SourceGraphic" in2="effect1_dropShadow_408_19085" result="shape"/>
</filter>
</defs>
</svg>
