<svg width="41" height="30" viewBox="0 0 41 30" fill="none" xmlns="http://www.w3.org/2000/svg">
<path d="M16.0537 20.9269V9.07288L26.5083 15.0002L16.0537 20.9269ZM39.3087 5.34295C38.8487 3.61662 37.4933 2.25722 35.7724 1.79585C32.6531 0.957373 20.1447 0.957373 20.1447 0.957373C20.1447 0.957373 7.63631 0.957373 4.5169 1.79585C2.79593 2.25722 1.44046 3.61662 0.980501 5.34295C0.144653 8.47179 0.144653 14.9999 0.144653 14.9999C0.144653 14.9999 0.144653 21.528 0.980501 24.6569C1.44046 26.3832 2.79593 27.7426 4.5169 28.2042C7.63631 29.0425 20.1447 29.0425 20.1447 29.0425C20.1447 29.0425 32.6531 29.0425 35.7724 28.2042C37.4933 27.7426 38.8487 26.3832 39.3087 24.6569C40.1447 21.528 40.1447 14.9999 40.1447 14.9999C40.1447 14.9999 40.1447 8.47179 39.3087 5.34295Z" fill="#F6F6F6"/>
</svg>
