<svg xmlns="http://www.w3.org/2000/svg" viewBox="0 0 615.6 208.64"><defs><style>.cls-1,.cls-7{font-size:24px;font-family:MagicalNeverland-Regular, Magical Neverland;}.cls-1,.cls-14,.cls-7{fill:#fff;}.cls-2{letter-spacing:-0.1em;}.cls-3{letter-spacing:-0.04em;}.cls-4{letter-spacing:-0.02em;}.cls-5{letter-spacing:-0.02em;}.cls-6{letter-spacing:-0.1em;}.cls-7{letter-spacing:0.03em;}.cls-8{letter-spacing:0em;}.cls-9{letter-spacing:0.02em;}.cls-10{letter-spacing:0em;}.cls-11{letter-spacing:-0.13em;}.cls-12{letter-spacing:-0.05em;}.cls-13{letter-spacing:-0.07em;}.cls-15{fill:#231f20;}.cls-16{fill:#414042;}.cls-17{fill:#58595b;}.cls-18{fill:#0f0f0f;}.cls-19{fill:#fdfdfd;}.cls-20{fill:#fcfcfc;}.cls-21{fill:#fafafa;}.cls-22{fill:#4f4f4f;}.cls-23{fill:#f3f3f3;}.cls-24{fill:#5f5f5f;}.cls-25{fill:#efefef;}.cls-26{fill:#ededed;}.cls-27{fill:#f2f2f2;}.cls-28{fill:#525252;}.cls-29{fill:#494949;}.cls-30{fill:#5e5e5e;}.cls-31{fill:#b2b2b2;}.cls-32{fill:#e2e2e2;}.cls-33{fill:#e3e3e3;}.cls-34{fill:#e9e9e9;}.cls-35{fill:#7b7b7b;}.cls-36{fill:#ebebeb;}.cls-37{fill:#464646;}.cls-38{fill:#5b5b5b;}.cls-39{fill:#424242;}.cls-40{fill:#202020;}.cls-41{fill:#3e3e3e;}.cls-42{fill:#222;}.cls-43{fill:#2e2e2e;}.cls-44{fill:#141414;}.cls-45{fill:#252525;}.cls-46{fill:#6b6b6b;}.cls-47{fill:#404040;}.cls-48{fill:#313131;}.cls-49{fill:#4b4b4b;}.cls-50{fill:#181818;}.cls-51{fill:#3f3f3f;}.cls-52{fill:#383838;}.cls-53{fill:#363636;}.cls-54{fill:#484848;}.cls-55{fill:#353535;}.cls-56{fill:#333;}.cls-57{fill:#505050;}.cls-58{fill:#585858;}.cls-59{fill:#515151;}.cls-60{fill:#6e6e6e;}.cls-61{fill:#474747;}</style></defs><g id="Layer_2" data-name="Layer 2"><g id="Layer_1-2" data-name="Layer 1"><text class="cls-1" transform="translate(370.55 170.69)"><tspan class="cls-2">m</tspan><tspan x="17.3" y="0">y</tspan><tspan class="cls-3" x="31.99" y="0">s</tspan><tspan class="cls-4" x="39.55" y="0">t</tspan><tspan class="cls-5" x="49.49" y="0">i</tspan><tspan x="57.17" y="0">c </tspan><tspan class="cls-5" x="75.33" y="0">w</tspan><tspan x="93.02" y="0">oo</tspan><tspan class="cls-6" x="112.61" y="0">d</tspan><tspan x="122.9" y="0">s</tspan></text><text class="cls-7" transform="translate(85.58 57.28)">2<tspan class="cls-8" x="9.53" y="0">0-</tspan><tspan class="cls-9" x="28.66" y="0">2</tspan><tspan class="cls-10" x="37.99" y="0">3</tspan></text><text class="cls-1" transform="translate(134.39 49.29) scale(0.58)"><tspan class="cls-11">r</tspan><tspan x="9.34" y="0">d</tspan></text><text class="cls-1" transform="translate(147.23 57.28)"><tspan class="cls-8"> </tspan><tspan class="cls-12" x="7.2" y="0">f</tspan><tspan class="cls-13" x="16.06" y="0">e</tspan><tspan x="25.44" y="0">b</tspan></text><path class="cls-14" d="M340.9,50a20.87,20.87,0,0,0,8.74,2.49c-.06.55-.54.5-.72.76a5.23,5.23,0,0,1-3.08.24,5.3,5.3,0,0,1-1.7-.42c-2.5-.61-4.66-2-7-3.07a16.94,16.94,0,0,0-2.72-1.09c-.33-.05-.19.2-.22.06s0-.06.09,0a14.89,14.89,0,0,1,4.2,1.8,55.09,55.09,0,0,0,6.05,3,7.17,7.17,0,0,0,1.95.38c0,.52-.59.22-.69.57a6.3,6.3,0,0,1-6.25-.71,31.75,31.75,0,0,1-3.23-2.32,18.12,18.12,0,0,0-2-1.35c.43.21,1,.75,1.69,1.2,1.82,1.49,3.61,3,6,3.65a.8.8,0,0,1,.47.38,8.71,8.71,0,0,1-3.1,1.37c-2.07.45-3.42-.6-4.46-2.23a10.52,10.52,0,0,1-1.14-2.05,6.68,6.68,0,0,1,.88,3.1c.08,1.49-.86,2.31-2,3a1,1,0,0,1-.87,0c-1.45-.17-1.92-1.16-2.06-2.44a2.68,2.68,0,0,1,.63-1.44c.87-1.26.58-2.68.51-4.06-.05-.89-.17-1.77-.17-2.66a4.41,4.41,0,0,1,3.9-4.62c2.62-.44,5.17.11,7.73.54,5.72,1,11.42,2.15,17.26,2.1A11.56,11.56,0,0,0,365.13,45c.26-.11.47-.11.48.26-1.28,1.71-3.14,2.19-5.11,2.43-4.08.52-8.1-.18-12.13-.71L343,46.27c-1.66,0-3.29-.39-5.1-.28a11.4,11.4,0,0,1,4.25.48c3.69.63,7.32,1.64,11.07,2a25.74,25.74,0,0,0,5.41-.07c.28,0,.57,0,1.13-.06a10,10,0,0,1-7.29,1.77c-3.11-.26-6.06-1.25-9.08-1.95-2.48-.24-4.82-1.26-7.18-1.33A29.25,29.25,0,0,1,342.05,48a1,1,0,0,1,.49.34c3.4,1.2,6.79,2.43,10.58,2.29a3.62,3.62,0,0,1-2.9,1.17c-2.87.11-5.47-1-8.1-1.86l-.58-.18c-1.69-.16-3.13-1.12-4.75-1.51l-1.58-.42a28.3,28.3,0,0,1,4.73,1.59A2.06,2.06,0,0,1,340.9,50Z"/><path class="cls-14" d="M287.09,51.83a6.2,6.2,0,0,1-2.57-1.06,35.72,35.72,0,0,0,4.75-.53c3.19-.74,6.2-2.13,9.42-2.78,1.19-.25,2.4-.44,3.59-.71a10,10,0,0,0-3.91.37c-3.93.84-7.75,2.17-11.73,2.79-2.73.42-5.38.48-7.83-1a2.27,2.27,0,0,1-.4-.29c-.06-.06-.22-.07-.08-.3.88.08,1.81.2,2.74.26a36.65,36.65,0,0,0,10.05-1.16A68,68,0,0,1,299.9,46a26.54,26.54,0,0,0-6.54.41,107,107,0,0,1-13.23,1.53,12.7,12.7,0,0,1-6.1-1.1,3.6,3.6,0,0,1-1.31-.94c-.12-.19-.31-.36-.19-.6s.26-.13.41,0c3.43,1.3,7,1.06,10.52.73,5.41-.5,10.7-1.76,16.08-2.43a9.69,9.69,0,0,1,4.35.26,4.23,4.23,0,0,1,3.11,4,13.4,13.4,0,0,1-.14,3.16,5.66,5.66,0,0,0,.94,4.85,3,3,0,0,1-.53,2.23,2.44,2.44,0,0,1-4-1.1c-.43-1.18.13-2.2.43-3.27.21-.47.08-1,.37-1.37a1.52,1.52,0,0,1-.58.75c-.38.73-.71,1.47-1.13,2.17a3.57,3.57,0,0,1-4.22,1.64,10.33,10.33,0,0,1-2.81-1.22c.26-.43.88-.15,1.19-.53a49.11,49.11,0,0,0,6.51-4.57c.24-.16.5-.3.75-.45a4.26,4.26,0,0,0-1.05.67c-1.3.87-2.5,1.86-3.78,2.75a6.32,6.32,0,0,1-3.1,1.37c-1-.07-1.89.76-2.93.24-.55-.28-1.2-.34-1.61-.94l1.93-.49a34.79,34.79,0,0,0,5.22-2.51,29.4,29.4,0,0,1,5.08-2.39,55.3,55.3,0,0,0-7.08,3.26,12.58,12.58,0,0,1-3.46,1.2c-1.48.26-3,.59-4.4-.2a.67.67,0,0,1-.4-.38c.33-.25.76-.15,1.13-.26a15.74,15.74,0,0,1,3.23-.94c2.52-.78,4.85-2,7.33-2.87,1-.33,1.94-.54,2.85-.77a38.72,38.72,0,0,0-7.05,2.37c-1.5.57-3,1-4.58,1.48-.68.23-1.35-.11-2,.14h0A3.86,3.86,0,0,1,287.09,51.83Z"/><path class="cls-14" d="M321.18,72l-3.26.21c-.92,0-1.33-.55-1.56-1.41A54.35,54.35,0,0,0,314,64.09a14.24,14.24,0,0,0-1.56-2.87,5,5,0,0,0-3-2.29,1,1,0,0,1-.62-.32c-1.23-.26-1.23-.26-.6-2,.12-.62.5-.61,1-.41s1,.76,1.64,1a26.13,26.13,0,0,0,4.3,2.38,9.85,9.85,0,0,0,9-.73,43,43,0,0,0,4.07-2.58c.93-.67,1.17-.57,1.67.49.41,1.5.41,1.5-1,1.91a5.46,5.46,0,0,0-2.83,2.24A22.77,22.77,0,0,0,323.29,67c-.42,1.18-.85,2.37-1.16,3.6A1.82,1.82,0,0,1,321.18,72Z"/><path class="cls-14" d="M318.18,49.21c.66,0,1.33-.22,1.94.18,1,1,1.39,2.41,2.29,3.49.15.18.26.4.4.59,1.49,2.13,2.7,2.59,5.25,2,.36-.08.81-.35,1,.29a39.06,39.06,0,0,1-5.45,3.44,10.32,10.32,0,0,1-10.08-.39,17.91,17.91,0,0,1-2.35-1.45c-.44-.34-1.06-.47-1.31-1,0-.25.23-.33.44-.38.58-.15,1.14.18,1.72.08a4.46,4.46,0,0,0,2.77-1.78,37.93,37.93,0,0,0,2.63-4.13A3,3,0,0,1,318.18,49.21Z"/><path class="cls-14" d="M309.31,54.53a12.26,12.26,0,0,1,7.16-5.14c.35-.18.77-.26,1,0s0,.65-.22.93c-.8,1.3-1.55,2.63-2.46,3.86A4.11,4.11,0,0,1,310,55.77C309.44,55.58,308.92,55.29,309.31,54.53Z"/><path class="cls-14" d="M320.64,49.41a11.53,11.53,0,0,1,8.09,5.13c.39.42,0,.59-.26.77a4.32,4.32,0,0,1-4.26-.24A20.09,20.09,0,0,1,320.65,50,.55.55,0,0,1,320.64,49.41Z"/><path class="cls-14" d="M310.71,68.09c-1.42-.75-1.93-2.15-2.49-3.51,0-.45.32-.34.56-.28a4,4,0,0,1,1.08.53,10.5,10.5,0,0,0,3.91,1.1,1.44,1.44,0,0,1,1.47,1.15c.15.52.33,1,.47,1.57.22.78,0,1.17-.81,1.1A7.19,7.19,0,0,1,310.71,68.09Z"/><path class="cls-14" d="M329.8,64.78c-.66,1.21-1.15,2.54-2.41,3.32-.14.08-.29.14-.44.21a6.49,6.49,0,0,1-3.47,1.21.66.66,0,0,1-.83-.55,22.8,22.8,0,0,1,.76-2.43,1,1,0,0,1,1-.73A10.88,10.88,0,0,0,329,64.44C329.52,64.14,329.7,64.25,329.8,64.78Z"/><path class="cls-14" d="M308.25,63.75a2.53,2.53,0,0,1-.6-2c.32-.31.63-.08.94,0a9.29,9.29,0,0,0,3.68.69,1.38,1.38,0,0,1,1.5,1c.23.6.47,1.2.74,1.79s.05.81-.54.81a10.31,10.31,0,0,1-3.82-1C309.57,64.53,308.74,64.39,308.25,63.75Z"/><path class="cls-15" d="M329.8,64.78c-.05-.23,0-.52-.41-.27a10.79,10.79,0,0,1-5.12,1.58c-.44,0-.57.23-.68.59-.24.75-.53,1.48-.8,2.21-.12.37.09.76-.09,1.13-.05.52-.57,1.08.13,1.54-.47.45-1.1.26-1.65.4a14.07,14.07,0,0,0,1.34-3.6c1-2.7,1.79-5.45,3.46-7.82a5.29,5.29,0,0,1,2.9-2.16c1.28-.37,1.28-.36.94-1.62-.14-.23-.18-.41.19-.4a3.35,3.35,0,0,0,1.88,2.45c-.44.36-1-.18-1.47.24a4.13,4.13,0,0,0-4.34,2.89c1,.26,2-.31,3-.23.2.07.39.15.36.41-.8.82-1.9.73-2.88.8a1.9,1.9,0,0,0-1.86,1.56c-.25.75-.1.93.71.79a9.85,9.85,0,0,0,2.89-1c.32-.17.64-.44,1-.16C329.77,64.15,330.26,64.11,329.8,64.78Z"/><path class="cls-14" d="M329.34,64.14a23.23,23.23,0,0,1-3.51,1.33,4.91,4.91,0,0,1-1.76.1,11,11,0,0,1,1-2.46c.21-.43.51-.37.84-.39a10.76,10.76,0,0,0,3.51-.62c.29-.32.61-.51,1-.17A2.54,2.54,0,0,1,329.34,64.14Z"/><path class="cls-15" d="M310.1,64.78a7.57,7.57,0,0,0,4.4,1c-.38-.88-.75-1.73-1.11-2.59a.64.64,0,0,0-.7-.46,11.33,11.33,0,0,1-5-1v-.48c.54-.25,1,.06,1.46.24a12.07,12.07,0,0,0,2.29.53c.67.13,1-.14.87-.81.08-.15.18-.25.36-.16C314.28,63.32,315,66,316,68.59a21.08,21.08,0,0,1,.72,2.34,1.47,1.47,0,0,0,1.23,1.24,3.92,3.92,0,0,1-2.07-.42c.25-1,0-1.35-1-1.55a10.44,10.44,0,0,1-3.57-1.1c-.11-.17-.23-.35-.46-.35-1,0-.42-.36-.16-.66a19.31,19.31,0,0,0,3.3,1.25c.17,0,.33.1.49.13,1.27.21,1.31.16.91-1a4.49,4.49,0,0,1-.19-.59c-.21-1.12-.64-1.76-2-1.7A6.37,6.37,0,0,1,309.68,65C309.68,64.63,309.86,64.64,310.1,64.78Z"/><path class="cls-14" d="M312.34,61.31l.47.94a11,11,0,0,1-5.16-1c0-.47,0-.94-.07-1.41-.1-.82.27-1.11,1.05-1A4,4,0,0,1,312.34,61.31Z"/><path class="cls-14" d="M328.94,61.87a8.34,8.34,0,0,1-2.81.34c-.26,0-.55,0-.38-.45a5.86,5.86,0,0,1,3.94-3.07.67.67,0,0,1,.73.36,8.76,8.76,0,0,1,0,2.23C330.1,61.91,329.46,61.75,328.94,61.87Z"/><path class="cls-15" d="M330,56.36a.41.41,0,0,0-.19.4c-.27-.79-.61-.92-1.33-.35a30.37,30.37,0,0,1-4.65,2.94,10.39,10.39,0,0,1-10.08-.12,23,23,0,0,1-3-1.85c0-.33.15-.36.39-.19a23.47,23.47,0,0,0,5.37,2.63,10,10,0,0,0,8.1-1.42c1.45-.88,2.87-1.8,4.31-2.7a.42.42,0,0,1,.39,0c.23,0,.49.22.63-.17s.21-.55.55-.62C330.39,55.43,329.84,55.78,330,56.36Z"/><path class="cls-15" d="M309.31,54.53c-.23.52.1.71.5.89a3.74,3.74,0,0,0,4.46-1,20.77,20.77,0,0,0,3.11-5.06h-.91c.52-.53,1.15,0,1.71-.18a46.91,46.91,0,0,1-3.07,5,4.2,4.2,0,0,1-4.76,1.88,1.82,1.82,0,0,1-1.48-.57C309.11,55.25,308.77,54.7,309.31,54.53Z"/><path class="cls-15" d="M329.28,55.72l-.39,0a.24.24,0,0,0-.32-.16c-3.22.87-4.3.52-6.13-2.12a20.67,20.67,0,0,1-2.32-4l.52,0a18.13,18.13,0,0,0,3.36,5.1,3.63,3.63,0,0,0,4.42.58c.24-.14.39-.26.31-.55C329.49,54.67,329.26,55.25,329.28,55.72Z"/><path class="cls-14" d="M311.33,69.1c1.41.29,2.78.74,4.21.94.5.06,1.06,1.19.86,1.61-.11.23-.37,0-.55.1a16.48,16.48,0,0,1-3.91-2C311.7,69.55,311.42,69.42,311.33,69.1Z"/><path class="cls-14" d="M322.83,71.56c-.82.19-.93-.13-.6-.81a4.66,4.66,0,0,0,.23-.75c.28-.41.7-.43,1.14-.51a14.58,14.58,0,0,0,2.34-.59c.23-.08.57-.28.74,0s-.2.49-.4.69a1,1,0,0,1-.16.12A17.45,17.45,0,0,1,322.83,71.56Z"/><path class="cls-15" d="M326.12,69.71c.1-.32.57-.37.58-.88A27.29,27.29,0,0,1,322.46,70c.2-.34,0-.79.33-1.11,0,.77.61.41.89.34,1.1-.26,2.18-.61,3.27-.92C327.48,69.26,326.69,69.42,326.12,69.71Z"/><path class="cls-15" d="M312.34,61.31a6.26,6.26,0,0,0-3.71-2.46l.24-.24a4.54,4.54,0,0,1,3.76,2.44Z"/><path class="cls-15" d="M311.11,57.19c-.15,0-.32,0-.39.19a5.56,5.56,0,0,1-1.6-1c-.47-.35-.62,0-.85.22-.24-.59.35-.6.6-.86a1.23,1.23,0,0,1,1,.6A4.07,4.07,0,0,1,311.11,57.19Z"/><path class="cls-15" d="M310.1,64.78c-.15,0-.34,0-.42.21-.5-.07-.85-.73-1.46-.41-.47-.29.13-.55,0-.83A5.71,5.71,0,0,1,310.1,64.78Z"/><path class="cls-16" d="M272.94,45.25c-.59,0-.15.42-.22.63a1.7,1.7,0,0,1-.9-1.29A1.81,1.81,0,0,1,272.94,45.25Z"/><path class="cls-15" d="M328.94,61.87l1.48-.59v.65l-1,.17C329.31,61.89,329.1,61.94,328.94,61.87Z"/><path class="cls-17" d="M365.61,45.3c-.06-.28-.3-.21-.48-.26a2.15,2.15,0,0,1,1-.63A.82.82,0,0,1,365.61,45.3Z"/><path class="cls-15" d="M309.91,56.33l-1-.6a.13.13,0,0,1,0-.18l1.48.57Z"/><path class="cls-14" d="M68.65,117.88,25.36,150.67q-17.29-28.44-16-33.95a25.1,25.1,0,0,1,4-2.94q6.66-4.23,20.11-10.89l2.43,3.46a16.57,16.57,0,0,0-9.35,10.37,22.12,22.12,0,0,0-.38,4q0,8.58,6.66,9.6,3.59.51,7.94-6.4a63.66,63.66,0,0,0,6.53-13.45,22.08,22.08,0,0,0,1-7,28.19,28.19,0,0,0-2-10.5L13.06,98.41A118.44,118.44,0,0,1,7,78.3,47.6,47.6,0,0,1,9.09,58.57l40.74-36q19.45,27,18.57,32.53a31.92,31.92,0,0,1-3.72,3.33A222.21,222.21,0,0,1,45.47,70.87l-2.69-3.33a17.21,17.21,0,0,0,4.8-6.85,23.83,23.83,0,0,0,1.22-7.88q0-9.09-4.74-9.35-4.35-.26-9.09,4.35A18.72,18.72,0,0,0,29.33,59q-.12.38-2,10.76-1.41,7.68-1.15,9.35,17.29-.64,23.7.38A51.59,51.59,0,0,1,61,83a17.47,17.47,0,0,1,7,6.4,27.74,27.74,0,0,1,3.33,14.09A41.18,41.18,0,0,1,68.65,117.88Z"/><path class="cls-14" d="M145.76,77.27q-18.7,34.59-31,53.42-5.26,9-16.66,26.64Q84.28,178.72,75.44,190.5q-45.21-4-55.46-3.58-5.11-1.8-15.11-6.15Q0,178.07,0,174.88A5.69,5.69,0,0,1,.38,173a24.39,24.39,0,0,1,2.82-4.86,50.92,50.92,0,0,1,12.3-11.15l22.29,3.33L36,164a29,29,0,0,0-8.58-.51,11.32,11.32,0,0,0-6.92,2.69,7,7,0,0,0-2.81,5.25,4,4,0,0,0,1.73,3.26q1.72,1.35,7.23,2.37,13.2,2.43,41.77,4.1L97,137.44,83.84,81.09,72.37,76V73.69l33.56-.26,1.28,4.48-6.92,1.67,8.2,37.78L133,75.61l-7.68-6.15L157,68.69Z"/><path class="cls-14" d="M218.39,98.79a10,10,0,0,1,.38,3.2q0,6.29-3.65,24.47t-3.65,19.47q0,1.41,2.82,6.66l-22.8-.9a4.29,4.29,0,0,0,1.79-.89,30.87,30.87,0,0,0,5.77-5.77l4.1-33.56a42.82,42.82,0,0,0,.38-5.38q0-10.25-5.89-10.24a5.07,5.07,0,0,0-2,.38,115.32,115.32,0,0,0-16.91,7.56l-3.33,39.32q5,7.94,7.56,8.58l-31.38.9q-3.47,1.16,7.55-9.48l6.66-50.59-13.19,6.4Q163.82,87,169.84,80.22q3.84-3.72,7.82-8.33l1.4,19.86L201.86,81a4,4,0,0,1,2.18-.64q3.84,0,8.46,7.17A64.51,64.51,0,0,1,218.39,98.79ZM177.66,74.46v0Z"/><path class="cls-14" d="M268.34,119.8l-12.42,16.14a7.61,7.61,0,0,1-5.13.25c-.94-.76-2.17-2.77-3.71-6q-6.79,3.86-9.48,5.77a6.15,6.15,0,0,1-3.84,1.28A5.82,5.82,0,0,1,230,136q-1.53-1.22-3.84-8.64a63.88,63.88,0,0,1-2.69-10.89q-1.27-11.4,1.15-16.14,1-2.17,8.59-10.25l11.91.51v2.69q-6,2.56-7,5.38a19.84,19.84,0,0,0-.13,2.69,98.6,98.6,0,0,0,.91,12.94c.61,5.55,1.43,8.63,2.47,9.22a4.09,4.09,0,0,0,2.08.52,6.46,6.46,0,0,0,4-1.54V72.79q-1.16-2.17-4.89-1c-2.41.76-3.7,1.19-3.87,1.28A13.07,13.07,0,0,0,235,75.48a8.4,8.4,0,0,0-1.42,1.92,14.76,14.76,0,0,0-1.93,6.15q-2.46-4-4.9-8.58a16.45,16.45,0,0,1-1.29-6.66,18.83,18.83,0,0,1,.26-3.08L244,55.5l19.73,19.72V119.8Z"/><path class="cls-14" d="M319.44,103.79q-1.28-11-3.07-15.63-3-6.41-6.28-6.4a4.33,4.33,0,0,0-2.43.76l-15.24,3-1.16-13.58-3.07-.51L269,87.78l11,1.79-2.37,95.26,0,1.14v.37l0,1.16,0,1.07-.07,2.88v.6l0,1.34V194l0,.71v.56l0,1.58q5.21-.26,10.39-.8a4.28,4.28,0,0,1,3.87,1.2c.2.2.4.4.61.58v-1.11l.1-12v-1.09l.36-41.27q7.69-2.82,15.25-5.51,8.7-3.59,12-8.58c.33-.6.51-2.82.51-6.66A166.83,166.83,0,0,0,319.44,103.79Zm-12.82,14.47q-1.94,5-5.81,6.53-4.26,1.15-8.65,2.44V95.33a34.26,34.26,0,0,1,9.37,1.92,10.06,10.06,0,0,1,2.35,1.41q4.29,4.11,4.29,11.66A21.56,21.56,0,0,1,306.62,118.26Z"/><path class="cls-14" d="M365,117.88,337.76,138.5q-10.89-17.94-10.12-21.39.9-1,15.25-8.71l1.53,2.18q-4.86,2.17-5.89,6.53a8.73,8.73,0,0,0-.38,2.56c0,3.59,1.41,5.59,4.22,6s6-3.84,9.23-12.55a13.93,13.93,0,0,0,.64-4.36,16.39,16.39,0,0,0-1.41-6.66l-20.75,3.46a69.88,69.88,0,0,1-3.85-12.68,30.1,30.1,0,0,1,1.29-12.42L353.13,57.8q12.3,17,11.79,20.5-.78,1.15-14.48,10l-1.66-2.18a10.81,10.81,0,0,0,2.74-4.29,16,16,0,0,0,.72-4.93c0-3.84-1-5.81-2.9-5.89-1.76-.09-3.6.77-5.53,2.56a12.76,12.76,0,0,0-3.65,7.17c0,.17-.38,2.44-1.13,6.79a31.23,31.23,0,0,0-.76,5.89q10.89-.37,14.86.26,8.83,2.06,11.53,6.27a17.57,17.57,0,0,1,2,8.84A26.72,26.72,0,0,1,365,117.88Z"/><path class="cls-14" d="M415.38,95.72l-6.79-1-7.94-1.79-11.4-4q-1.15,14-1.15,23.31a56.51,56.51,0,0,0,.64,10.25q1.92,7.68,5,7.68a3.77,3.77,0,0,0,2.25-1,10.64,10.64,0,0,0,2.49-3.39q3-5.89,6.15-17.55,7,7,7.05,9.22a46.14,46.14,0,0,1-3.72,6.15q-9.34,12.17-12.42,13.58-2.82.38-9.1-1.15l-15.88-17,2.31-47.14q10.5-10.5,20.36-14.73a10.8,10.8,0,0,1,3.59-.64q4.6,0,9.73,4.36c2,2,4,3.93,6,5.89Q415.38,71,415.38,95.72ZM400,84.45q-.9-4.62-3.33-13.58a11.6,11.6,0,0,0-1.79-3.4c-.94-1.32-1.8-2-2.56-2s-1.5.81-1.93,2.43a65.77,65.77,0,0,0-1.66,15.37Z"/><path class="cls-14" d="M532.6,105.65a7.54,7.54,0,0,1,2.43-.39,7.66,7.66,0,0,1,5.25,1.92,6.36,6.36,0,0,1,2.18,5q0,4.35-3.91,8.52a38.67,38.67,0,0,1-9,7.1,32.71,32.71,0,0,1-8.45,3.72,67,67,0,0,1-10.5-2.82c-.69-.17-2.37-.66-5.06-1.47a71.67,71.67,0,0,0-7.5-1.86,33.81,33.81,0,0,0-6.14-.64q-8.85,0-12.3,6.79h-1.28a27.81,27.81,0,0,1,3.84-13.32,33.56,33.56,0,0,1,8.14-9.22,141.25,141.25,0,0,1,12.48-8.33,117.48,117.48,0,0,0,12-7.94,22.46,22.46,0,0,0,6.6-8.07,18.11,18.11,0,0,0,1.92-8.2,21.09,21.09,0,0,0-4.1-12.17A72.84,72.84,0,0,1,506.47,58q-2.82-1.66-5.77-3.14a32.48,32.48,0,0,0-5.12-2.12V62.1a16,16,0,0,1-3.33,10.31,23.33,23.33,0,0,1-6.72,6q-3.4,1.84-9.16,4.42l-.77-1.16c1.71-.42,2.84-1.75,3.39-4a38.8,38.8,0,0,0,.84-9.09V62.86l13.06-10.63L505.32,42a11.41,11.41,0,0,1,4.61,1.15c1.7.77,3.84,1.88,6.4,3.33a90.57,90.57,0,0,0,9.74,4.8A21.89,21.89,0,0,0,534.39,53a11.09,11.09,0,0,0,6.92-2A6.2,6.2,0,0,0,544,45.83a5.43,5.43,0,0,0-1.8-4.36,6.84,6.84,0,0,0-4.61-1.53,7.81,7.81,0,0,0-2.3.25v-.77a7.82,7.82,0,0,1,2.43-.38A7.66,7.66,0,0,1,543,41a6.36,6.36,0,0,1,2.18,5A19.67,19.67,0,0,1,540,59.79q-5.19,5.64-13.64,5.64a30.83,30.83,0,0,1,8.2,7.81,16.7,16.7,0,0,1,3.33,10,15.44,15.44,0,0,1-1,5.76,17.57,17.57,0,0,1-5.71,7.94,30.08,30.08,0,0,1-8.51,4.74q-4.62,1.67-12.17,3.59a119.66,119.66,0,0,0-15.24,4.87,25.82,25.82,0,0,0-9.87,7,22.11,22.11,0,0,1,3.21-2,21.3,21.3,0,0,1,11.52-3.2,33.69,33.69,0,0,1,8.14,1q4.16,1,9.92,2.94,4.74,1.55,8,2.37a23.71,23.71,0,0,0,6,.83,10.59,10.59,0,0,0,6.66-2,6.15,6.15,0,0,0,2.56-5.06,5.43,5.43,0,0,0-1.8-4.36,6.84,6.84,0,0,0-4.61-1.53,7.81,7.81,0,0,0-2.3.25Z"/><path class="cls-14" d="M566,75.67q12.42-3.84,21.64-3.84t14.8,3.46a19.34,19.34,0,0,1,7.81,8.45,24.44,24.44,0,0,1,2.24,10.12v23.83l-15.75,7.68-14.35,6.53a41.4,41.4,0,0,1-7.17-4,109,109,0,0,0-9.54-5.44,17,17,0,0,0-7.37-2,6.63,6.63,0,0,0-4.93,2,6.49,6.49,0,0,0-2,4.61,5.76,5.76,0,0,0,1.79,4.55,6.64,6.64,0,0,0,4.61,1.6,7.88,7.88,0,0,0,2.31-.25v.76a7.89,7.89,0,0,1-7.69-1.6,6.83,6.83,0,0,1-2.18-5.31q0-3.21,2.69-7.18a23.63,23.63,0,0,1,7.11-6.72,16.86,16.86,0,0,1,9-2.75,15.77,15.77,0,0,1,8.26,2.49q3.15,1.74,8.27,5.06a80.48,80.48,0,0,0,11.14,6.41V93.86a22.42,22.42,0,0,0-3.65-12.42q-3.64-5.64-15-5.64-11,0-27.8,6.53V62.86l13.07-10.63L575.76,42a11.37,11.37,0,0,1,4.61,1.15q2.57,1.15,6.41,3.33a91.45,91.45,0,0,0,9.73,4.8A22,22,0,0,0,604.84,53a11.09,11.09,0,0,0,6.92-2,6.2,6.2,0,0,0,2.69-5.12,5.43,5.43,0,0,0-1.8-4.36A6.86,6.86,0,0,0,608,39.94a7.81,7.81,0,0,0-2.3.25v-.77A8.08,8.08,0,0,1,613.42,41a6.36,6.36,0,0,1,2.18,5,19.67,19.67,0,0,1-5.19,13.83q-5.19,5.64-13.64,5.64a20.16,20.16,0,0,1-2.56-.13,24.44,24.44,0,0,1-7.82-2.24q-4-1.86-9.47-5.06-2.82-1.66-5.77-3.14A32.48,32.48,0,0,0,566,52.74Z"/><path class="cls-18" d="M611.8,184.78c-.3-.85-1.38-.76-2.2-.86a4,4,0,0,0-.91,0c-8.59.92-17.21.68-25.82.77-5.1.05-10.23-.22-15.31.17-3.91.3-7.63.2-11.15-1.51a11.26,11.26,0,0,0-10.55,0,16.33,16.33,0,0,1-6.43,1.39c-14.3.95-28.61.45-42.91,0-1.51,0-3.14.16-4.41-.87-2.91-2.37-6.46-2.56-9.92-2.88-2.48-.23-5.1-.4-7.38.92-4.25,2.47-8.86,3-13.65,3.09-6.1.09-12.2.23-18.27.67-6.93.51-13.85,1-20.77.23-3.14-.35-6.61.16-9.34-1.69a19.33,19.33,0,0,0-17.86-2.35c-6.68,2.26-13.62,2.59-20.49,3a427,427,0,0,1-48.66.15,15.44,15.44,0,0,1-6.76-1.64c-9-4.84-17.94-5.23-26.7.15-.31.18-.61.37-.91.57a3.85,3.85,0,0,1-2.2.39l-11.58.26c-2.31,0-4.61.11-6.92.18-13.56.38-27.09.77-40.57-1.35a10.84,10.84,0,0,1-5.57-2.27c-1.64-1.36-3.31-2.73-5.57-2.93a152.13,152.13,0,0,0-18.48-.86,4.17,4.17,0,0,0-3.46,1.87c-1.48,2-3.08,3.95-4.64,5.91a2.34,2.34,0,0,1-2.08,1.17c-3.35-.22-6.69-.11-10.05-.33-7.65-.52-15.31-1.67-23-.24a11.21,11.21,0,0,1-7.92-1.15,19.37,19.37,0,0,0-13.08-2,20.22,20.22,0,0,1-3.64.28,4.9,4.9,0,0,0-4.57,2.44c-1.94,3-4.34,4.48-8.24,3.46-6.11-1.6-12.42-2.44-17.6-6.57-1.77-1.41-4.83-.11-5.59,2.23-2.29,7-2.48,14,.29,21,1.29,3.25,1.77,3.61,4.79,2a102.6,102.6,0,0,1,19.57-7.56,3.49,3.49,0,0,1,3.93.78c2.48,2.53,5.7,3.36,9.1,3.74,5.89.67,11.67,1.19,16.87-2.78a11.49,11.49,0,0,1,6.22-2c4.8-.34,9.6,0,14.39-.25a97.2,97.2,0,0,1,20.53.58,6.35,6.35,0,0,1,4.5,2.36,5.82,5.82,0,0,0,3.42,2.19c6.73,1.38,13.51,1.54,20.11-.57,4.74-1.52,8.77-4.81,14-5.37,4.9-.54,9.73-1.69,14.6-2.54a14.09,14.09,0,0,1,5.45.17,34.22,34.22,0,0,0,9.48.27c.36.41.84.23,1.28.24,4.06.13,8.12.07,12.18-.13q5.21-.26,10.39-.8a4.28,4.28,0,0,1,3.87,1.2c.2.2.4.4.61.58a10.69,10.69,0,0,0,5.69,2.9,31.59,31.59,0,0,0,18.24-2.66,29.51,29.51,0,0,1,12-3.09c5.93-.13,11.88,0,17.82,0,13.18,0,26.37-.08,39.55.25a16.32,16.32,0,0,1,8.23,2.07,9.75,9.75,0,0,0,6,1.25c3.81-.35,7.56-1,10.94-3a14.34,14.34,0,0,1,8.83-1.83,81.27,81.27,0,0,0,14.12.25c11-.81,22.07-.21,33.1-.34a9.86,9.86,0,0,1,4.25.78c7.49,3.52,14.56,1.89,21.47-1.7a8.27,8.27,0,0,1,2.55-.91c4.62-.73,9.28-.07,13.91-.52a140.28,140.28,0,0,1,36.67.85,24.23,24.23,0,0,0,8,0c3.88-.65,7.63-2,11.65-2,2.66,0,5.32-.3,8-.31,11.13,0,22.19-1.41,33.32-1.44a6,6,0,0,0,4.25-1.35C611.43,186.49,612.12,185.69,611.8,184.78Zm-324.13,9.83c-.65.08-1.29.13-1.93.16a4.72,4.72,0,0,0,2.94-1.82c.61-.95.81-1.82-.29-2.56-1.6-1.07-1-1.95.25-2.73.5-.31,1-.61,1.67-1,0,1.83-.13,3.56-.17,5.3S289.39,194.41,287.67,194.61Zm-10.3.11c-.29,0-.59,0-.88,0-.89,0-1.85-.31-2.58.51a.41.41,0,0,0-.05.17v0c0,.18.16.3.3.44-.31,0-.62-.06-.93-.06a9,9,0,0,0-.9,0h0c-.45,0-.9,0-1.35,0a1.26,1.26,0,0,0,.36-.28,1.15,1.15,0,0,1,0-.19v-.08c.13-1.19.94-1.53,2.1-1.47,1.32.07,2.64.08,4,.18.35,0,.71.05,1.06.09,1.3.15,1.53-.73,1.42-1.78s-.61-1.48-1.7-1.07a3.87,3.87,0,0,1-.72.2c-1.33.27-2.7,0-4.05.14s-2.16-.08-2-1.66c.07-.65-.28-1-.95-1s-1,.18-1.13.87c-.05.4.31.91-.36,1.23-.4-.79-.36-2.72-1.86-1.3-.75.72-.56.53-1-.09s-1.1-.36-1.51.29c-.24.38-.07,1.08-.88,1.17a2.86,2.86,0,0,0-.22-1.42.41.41,0,0,0-.07-.11,1.11,1.11,0,0,0-1.09-.34c-1.64.18-2.37-.88-3.37-2.12,1.14,0,2.47-.67,2.74.2a2.16,2.16,0,0,0,.25.55c.51.83,1.35.58,2.09.61,1.29.06,2.59.06,3.88.17,1.47.13,2.7,0,1.68-2a4.39,4.39,0,0,1,1.72-.16c.51,0,1.05-.18,1.57.18-.45.78-1.53,1.58-.1,2.41a1,1,0,0,0,1.63-.6c.75-2.28,1.71-2,2.84-.28a1.19,1.19,0,0,0,.28.31.87.87,0,0,0,.9.12,1,1,0,0,0,.63-1.08c0-.42-.94-1,.09-1.25a1.41,1.41,0,0,1,1.67.42,4.59,4.59,0,0,0,1.38,1.18c1.18.75,1.35,1.37.1,2.38a2.41,2.41,0,0,0,.48,4.13,3.17,3.17,0,0,0,.92.34C281.58,194.81,279.47,194.68,277.37,194.72ZM267.07,196h-.24c-1.08-.12-2.26-.61-3,.75-.63-1.44-2.11-.8-3.15-1.26h0a.85.85,0,0,1-.28-.15h-.07a2,2,0,0,0-1,.06,4.17,4.17,0,0,0,.95-.46l.12-.13a2.24,2.24,0,0,1,1.31-.67,4,4,0,0,1,.93-.06l.24-.06a7.52,7.52,0,0,1,1.4-.27h.06l.46,0a8.58,8.58,0,0,0,.87.1h.1a1.29,1.29,0,0,1,.29,0c.72.12.68.7.68,1.26h0a1.09,1.09,0,0,0,0,.18.56.56,0,0,0,0,.13.89.89,0,0,0,.31.4l.09.06h0a2.58,2.58,0,0,0,.54.07h-.67Zm2.51-.32a1.86,1.86,0,0,0,.44.23c-.71,0-1.42.09-2.13.09a1,1,0,0,0,.76-.39.78.78,0,0,0,.13-.34c0-.06,0-.12,0-.18a.88.88,0,0,1,.44-.84,1.47,1.47,0,0,1,.21,1,.09.09,0,0,0,0,.05A.81.81,0,0,0,269.58,195.67Z"/><path class="cls-19" d="M157.39,195.93c-2.24,1.31-4.43,2.72-6.74,3.89-1.12.58-.88,1.94-2,2.54-2.07,1.07-4.08,2-6.49,1.81-2.66-.18-5.32-.34-8-.46a13.42,13.42,0,0,1-8.89-4,2.74,2.74,0,0,0-3-.75c-6.58,1.94-13.13,3.92-19.19,7.26-3.4,1.86-4.26,1.42-5.6-2.25a17.27,17.27,0,0,1-1.22-6.7c.18-3.38.38-6.77.62-10.15a4.63,4.63,0,0,1,1.26-2.65c1.86-2.2,2.39-2.27,4.63-.5a18.78,18.78,0,0,0,5.81,3.09c3.91,1.28,8,2,11.92,3.07a6,6,0,0,0,7.4-2.92c1.93-3.24,4.78-3.23,7.87-3.33,1.45-.05.24,1,.73,1.26,2.52-2.25,5.39-.94,8.09-.71,2.15.18,4,1.47,5.93,2.38a6.05,6.05,0,0,0,3.75.61c8.71-1.38,17.46-1,26.21-.3a37.86,37.86,0,0,0,7.06.19c.37,1.31-.8,1-1.33,1.13-5.51,1.71-11.23,1.88-16.92,2.11-2.25.1-4.49.49-6.75.42,2.48,0,4.95-.34,7.42-.42,5.7-.2,11.39-.56,16.91-2.19a2.79,2.79,0,0,1,1.78-.22c1.87-.34,4.93-.17,5.34-1.13.72-1.7,1.81-3.22,2.52-4.93,1-2.42,2.76-3.56,5.65-3.6a121.46,121.46,0,0,1,17.27,1.34,8.07,8.07,0,0,1,4.45,2.17,26.82,26.82,0,0,0,2.06,1.78,7,7,0,0,0,4.67,1.1c5.31-.13,10.55,1.48,15.91,1.39.91,0,1.83,0,2.74-.07,4.18-.37,3.57-.33,3.69,3.28.06,1.81.82,4.07-.23,5.33s-3.4.48-5.18.61a81.48,81.48,0,0,0-18.14,3.56c-.51-.5.85-1,0-1.42-.52-.26-.85.16-1.18.44a29.93,29.93,0,0,1-7.84,5c-6.44,2.47-13,1.68-19.59.9A4.8,4.8,0,0,1,197,201.2c-.41-.78-.78-1.69-1.75-2a56,56,0,0,0-9.66-2.88c2.46.68,5.63,1.11,8.48,2.6a.31.31,0,0,1,.13.4c0,.14-.15.21-.33.23a168.57,168.57,0,0,0-42.39.45l6.14-3.72c2.3-1.38,4.95-1.94,7.24-3.09A62.47,62.47,0,0,1,157.39,195.93Z"/><path class="cls-20" d="M553.14,191.37c-1.83-.21-4,1.25-5.5-1a17.35,17.35,0,0,1-2.18.32c-9.19-.56-18.34-1.73-27.6-1-6.9.56-13.83.61-20.75.93a15.91,15.91,0,0,0-6.25,1.87c-6.57,3.2-13.38,3.85-20.22.63L467,191.45c.28.81,1.07,1.41-.51,1.42-8.06.08-16.11-.72-24.18-.07a178,178,0,0,1-20.79,0c-4.21-.16-8.31.27-12.14,2.4-3.54,2-7.5,2.46-11.51,2.43a10.21,10.21,0,0,1-6.08-2.39,7.56,7.56,0,0,0-5.25-1.71c-13.81,1.52-27.65,0-41.45.63-6.62.31-13.23-.72-19.85,0a25.93,25.93,0,0,0-8.49,2.49,35.22,35.22,0,0,1-18.9,3.14c-2.57-.27-4.37-2-6.24-3.59-.62-.51-.45-1.23-.28-1.91a17.7,17.7,0,0,0,.31-7.93,1.49,1.49,0,0,1,.74-1.7A19.62,19.62,0,0,1,305,181c2.27.08,4.56-.21,6.77.45.71.21,2.24-.23,1.82,1.56-.1.42.6.5.87.26,1-.89,2-.41,2.81.23,3.8,2.95,8.34,2.54,12.69,2.72,16.83.68,33.65.49,50.47-.47a58.47,58.47,0,0,0,5.84-.9c.44,1.12-.63,1.05-1.11,1.22-4.05,1.5-7.87,3.68-10.61,4,3.32-.54,7.69-2.94,12.29-4.72a3.84,3.84,0,0,1,2.41-.39,30.51,30.51,0,0,0,5.16-1.85c4-1.66,8.06-1.27,12.16-.76.59.08,1.5,0,1.24,1.12-.08.38.4.63.55.49,1.58-1.5,2.43.27,3.37.84,3.94,2.39,8.29,2.33,12.64,2.48,8.16.27,16.28-.7,24.42-.82,5.11-.07,10.2-.34,15.3-.59a24.48,24.48,0,0,0,9.5-2.23c6-2.87,11.83-2.19,17.5.84a9,9,0,0,0,4.07,1.17c11.72.4,23.44,1.06,35.17.58a112.36,112.36,0,0,0,14.5-1.16l-4.16,2c2.73-.18,4.93-1.72,7.17-2.91a7.51,7.51,0,0,1,7.39-.23c4,2,8.15,2.11,12.47,2,12-.3,24.06-.42,36.09-.64,1.83,0,3.65-.22,5.47-.32.51,0,1.19-.24,1.41.37s-.36,1.14-.83,1.48a4.3,4.3,0,0,1-2.82.76c-12-.74-23.84,1.2-35.76,1.6-5.41.18-10.83.08-16,1.91C554.34,190.2,553.77,191,553.14,191.37Z"/><path class="cls-21" d="M271.42,195.34c-.74-.26-.77-.83-.65-1.47.15-.81.8-.58,1.27-.55,2.39.16,4.84-.45,7.18.59a4.78,4.78,0,0,0,.14-2.65c-2.54,1.59-5.29.77-7.93.79-1.23,0-.28-1.23-.54-1.83-.14-.31.58-.66,0-.9a1.15,1.15,0,0,0-.89,0c-.53.27-.08.56,0,.89.2.63.38,1.37-.29,1.82a1.42,1.42,0,0,1-1.11,0c-.92-.36-.56-1.09-.36-1.71.15-.45.13-.77-.39-.78s-.78.23-.69.86.83,1.66-.59,1.64S266,191,266,190.38c0-.29.13-.64-.34-.63s-.81,0-.72.59c.12.72.58,1.57-.66,1.73-.43.05-1.1.07-1.28-.17-.56-.76.35-1.34.54-2.35-3.28,1.55-4.16-1.63-6.68-2.91,2-.13,3.4-.27,4.8-.3.54,0,1.37-.55,1.56.33s-1.05.41-1.26,1.22l7.68.26c0-1-1.88-.49-1.28-1.72.43-.89,1.33-.37,2-.42,1.13-.09,2.28,0,3.47,0a1.8,1.8,0,0,1-.81,1.7c-.38.19-.74.28-.47.74a1.25,1.25,0,0,0,.76.46c.32.08.55-.12.6-.49a1.77,1.77,0,0,1,.15-.65c.37-.72.55-1.69,1.54-1.81s1.16,1.09,1.88,1.48c.48.26-.22,1.21.67,1.15a1,1,0,0,0,.71-.5c.39-.84-.66-.58-.86-1a9.65,9.65,0,0,0-.59-1c1-.56,2.14-.09,3.16-.36,1.41-.37.65,1.32,1.76,1.79,2.52,1.07,2.44,1.55.24,3.24-1.54,1.19-1.08,2.19.1,3.12,1.82,1.45,5.38.24,6.2-2,.34-.91-.5-.74-.75-1.09-.51-.69-2.08-.76-1.75-1.74a3.73,3.73,0,0,1,2.65-2.25c.68-.16,1.31.12.67-.89-.1-.16-.12-.42.25-.39s.62.11.68.46a21.43,21.43,0,0,1-.37,8.59c-.16.72-1.2.51-1.85.55-4.41.32-8.82.19-13.23.1-.44,0-.93-.17-1.32.2C273,196.26,272.21,195.85,271.42,195.34Z"/><path class="cls-22" d="M188.61,188.1c-6.24,2.2-12.74,2.56-19.27,2.8-2.51.1-5,.27-7.55.21,1-.74,2.12-.59,3.2-.67,7.17-.57,14.44-.17,21.41-2.46.41-.14,1.18.21,1.1-.71C188.08,187.26,189.22,186.51,188.61,188.1Z"/><path class="cls-23" d="M255.18,195.48c-.62,0-1.39.22-1.39-.91,0-2.43,0-4.87-.08-7.3,0-1.21.76-.78,1.35-.9,1.08-.23.77.36.74,1-.12,2.28-.12,4.56-.21,6.84C255.58,194.64,255.73,195.16,255.18,195.48Z"/><path class="cls-24" d="M389.2,185c-5.57,1.66-10.58,5-16.58,5.39,4.27-1,8.12-3,12.19-4.54.58-.21,1.16-.34,1.41-1C387.22,184.68,388.26,183.71,389.2,185Z"/><path class="cls-25" d="M288.69,185.58,286.17,188c-.57.55-1.12.72-1.75,0s-1.92-1-1.69-1.93,1.53-.44,2.33-.55A29.53,29.53,0,0,1,288.69,185.58Z"/><path class="cls-26" d="M283.93,190.93c1.67-1.92,2.56-.12,3.54.5.73.47.13,1-.39,1.42-1.42,1.09-3.78,1.14-4.5-.18S283.72,191.51,283.93,190.93Z"/><path class="cls-27" d="M257.39,188.89c3.79,2.41,3.83,3.32.31,5.42-.08-.13-.22-.25-.22-.38C257.44,192.27,257.42,190.61,257.39,188.89Z"/><path class="cls-28" d="M267,196.31c-1,.36-2.19-.3-3.16.44h0c-1.13-.72-2.61-.27-3.73-1.07.07-.37.94-.88-.17-1.05.58-1.13,1.41-1.58,2.63-.95.93,1,1.59,1,1.82-.49l1.3.24a9.06,9.06,0,0,1,1.15,1.91.39.39,0,0,1,.25.32C267.31,195.92,267.14,196.11,267,196.31Z"/><path class="cls-29" d="M193.87,199.52c-1-1.39-2.62-1.34-4-1.74a19.73,19.73,0,0,1-5.72-2.07c3.67,1.26,7.74,1.19,11.11,3.46C194.83,199.42,194.47,199.94,193.87,199.52Z"/><path class="cls-30" d="M157.39,195.93a30.61,30.61,0,0,1,8.17-3,35.24,35.24,0,0,1-7.94,3.33l-.13-.15Z"/><path class="cls-31" d="M267,196.31l.11-.65,1.47-.22c.16-.5.42-.6.81-.21.64.64,1.32.44,2,.11.84-.69,1.6.55,2.42.09.26.12.69.19.74.37.2.6-.35.45-.64.45C271.63,196.29,269.33,196.3,267,196.31Z"/><path class="cls-26" d="M264.43,193.19a1.25,1.25,0,0,1,.17,1.8c-.36.51-1.14.37-1.66.2-.8-.26,0-1-.33-1.51C263.06,192.92,263.84,193.4,264.43,193.19Z"/><path class="cls-32" d="M264.2,187.2c-.26-.58-.07-1,.14-1,1.07,0,2.19-.56,3.17.24.09.08-.11.74-.19.74C266.24,187.23,265.16,187.2,264.2,187.2Z"/><path class="cls-33" d="M269.41,195.23c-.34-.21-.59-.06-.81.21-.52-.7-.85-1.46,0-2.07.27-.19,1.14-.05,1.21.14C270.05,194.09,270.59,194.92,269.41,195.23Z"/><path class="cls-34" d="M266.88,195.34c-1.71.16-1.16-1-1.15-1.91.63-.23,1.39-.47,1.71.24A1.19,1.19,0,0,1,266.88,195.34Z"/><path class="cls-35" d="M553.14,191.37c.7-.44,0-1.84,1.17-1.86,1,0,.59,1,.87,1.53A2.26,2.26,0,0,1,553.14,191.37Z"/><path class="cls-36" d="M260,194.63c.64,0,.94-1,1.71-.59.12.08.14.41.14.62,0,1.23-1.22.51-1.68,1l-.93-.32Z"/><path class="cls-37" d="M119.92,193.28a42.35,42.35,0,0,1-11.09-.2c-4.74-.68-5.9.58-4.46,5a3,3,0,0,1-1.17-3.75c.53-1.53,1.65-2.66,3.22-2.37a59.18,59.18,0,0,0,13.15.74C119.64,192.72,119.72,193,119.92,193.28Z"/><path class="cls-22" d="M102.52,204.07a58.73,58.73,0,0,1,16.3-6.69C113.37,199.55,108,201.78,102.52,204.07Z"/><path class="cls-38" d="M107.33,199.53c4.7-1.6,9.21-3.82,14.22-4.38C116.76,196.47,112.31,198.86,107.33,199.53Z"/><path class="cls-39" d="M109.64,189.27l8.44,1.08-.07.56a42.66,42.66,0,0,1-8.46-1.24C109.39,189.5,109.42,189.36,109.64,189.27Z"/><path class="cls-40" d="M214.71,189.92c-.32-.48-.54-1.08.19-1.43s1.44-.2,1.63.59c.07.33.85,1.06-.17,1.33C215.74,190.58,215.05,191,214.71,189.92Z"/><path class="cls-41" d="M109.55,189.67a39.38,39.38,0,0,1-7.08-1l.08-.6,7.09,1.23A2.88,2.88,0,0,0,109.55,189.67Z"/><path class="cls-42" d="M201.63,200.65a1.7,1.7,0,0,1-1.87-.27c-.5-.61.16-1.1.57-1.49a1,1,0,0,1,1.56.14A1.19,1.19,0,0,1,201.63,200.65Z"/><path class="cls-43" d="M200,189c-.65.1-1.24.32-1.47-.37s-.51-1.38.42-1.67c.44-.13,1.19-.36,1.34.32S200.64,188.57,200,189Z"/><path class="cls-44" d="M208.11,201.56c-.75.47-1.31.47-1.72-.15s-.38-1,.2-1.36,1.07-.26,1.28.38C208,200.81,208.94,201.2,208.11,201.56Z"/><path class="cls-42" d="M215.66,196.72c-.38-.81.41-1.19.69-1.73a.68.68,0,0,1,1.14-.13c.55.67.12,1.25-.38,1.73A1.13,1.13,0,0,1,215.66,196.72Z"/><path class="cls-45" d="M206.34,194.51a.87.87,0,0,1-.22,1.21c-.82.61-1.25-.22-1.7-.6s-.1-.9.31-1.07A1.35,1.35,0,0,1,206.34,194.51Z"/><path class="cls-46" d="M226,191.29c.17-1.44.95-1.53,1.92-1.32.35.07.63.32.48.58C227.83,191.52,226.87,191,226,191.29Z"/><path class="cls-47" d="M183.35,195.88l-4.56-1.44.16-.54,4.58,1.35Z"/><path class="cls-48" d="M211.18,181.66c.13-.44.13-1.12.46-1.38.63-.51.78.32,1.11.64.59.56.05.75-.3.94A.93.93,0,0,1,211.18,181.66Z"/><path class="cls-49" d="M202.51,180.45c.28.53-.15.81-.41,1.09a.62.62,0,0,1-1.1-.07c-.3-.46-.56-.95.05-1.35S202,180.45,202.51,180.45Z"/><path class="cls-50" d="M214.92,202.32c-.64.35-1.24.5-1.64-.12s.13-.82.49-1.06c.66-.44,1.16.09,1.51.48S214.92,202.06,214.92,202.32Z"/><path class="cls-51" d="M143.51,186.16c-.66.25-1.16.22-1.5-.32a.65.65,0,0,1,.13-1,.86.86,0,0,1,1.3.45C143.59,185.58,143.93,185.92,143.51,186.16Z"/><path class="cls-29" d="M126.07,193.77a.91.91,0,0,1-1.19-.26.64.64,0,0,1,.14-1.1.86.86,0,0,1,1.15.38A.66.66,0,0,1,126.07,193.77Z"/><path class="cls-52" d="M209.12,189.62c-.52.32-1,.52-1.32.1a.91.91,0,0,1,.31-1.17c.36-.31.77-.46,1.11,0S209.59,189.43,209.12,189.62Z"/><path class="cls-53" d="M142.24,198.67c-.51.27-.94.3-1.11-.09a.91.91,0,0,1,.36-1.17c.32-.2.69-.39.87.15S142.61,198.45,142.24,198.67Z"/><path class="cls-54" d="M454.86,189.25c-9.23.42-18.28,2.78-27.78,2.92C428.5,191.38,452.39,188.76,454.86,189.25Z"/><path class="cls-29" d="M340.51,190.43a41.49,41.49,0,0,0,13.3-1.51,45.44,45.44,0,0,1,14.16-1.4c-1,.11-1.91.25-2.86.33a95.21,95.21,0,0,0-14.81,2.58,27.48,27.48,0,0,1-10,.54C340.09,190.69,340,190.45,340.51,190.43Z"/><path class="cls-49" d="M340.51,190.43l-.19.54c-3.13-.1-6.27-.25-9.41-.16A25.83,25.83,0,0,1,340.51,190.43Z"/><path class="cls-53" d="M406.44,195c-.37.17-.81.61-1-.11-.14-.43-.62-1,0-1.33a1.15,1.15,0,0,1,1.42.22C407.38,194.44,406.81,194.7,406.44,195Z"/><path class="cls-53" d="M301.07,183.92c-.67,1-1.25,1.39-2.08,1.17a.86.86,0,0,1-.2-.78C299.3,183.59,300,183.81,301.07,183.92Z"/><path class="cls-55" d="M307.35,191.74a.92.92,0,0,1-1.31-.19.69.69,0,0,1,.18-1.14.9.9,0,0,1,1.22.21C307.61,190.91,307.39,191.42,307.35,191.74Z"/><path class="cls-56" d="M397.69,194.31c.45-.1,1-.35,1.36.2s-.15.85-.61,1-.74.69-1.06,0C397.2,195.05,397,194.6,397.69,194.31Z"/><path class="cls-57" d="M480.09,193.19c.37-.52.48-1.49,1.35-.94.26.16.75.48.51.84C481.47,193.83,480.76,193.14,480.09,193.19Z"/><path class="cls-39" d="M299.75,191.6c-.79-.18-1.66-.09-1.88-1-.08-.35.27-.63.72-.66C299.9,189.85,299.51,190.88,299.75,191.6Z"/><path class="cls-51" d="M309.79,195.15c-.54.22-1,.35-1.29-.17s0-.75.38-.88,1.11-.26,1.4.3S310,195,309.79,195.15Z"/><path class="cls-53" d="M395.78,190.54a.84.84,0,0,1,.25-1,.91.91,0,0,1,1.23,0,.59.59,0,0,1,0,1A1.24,1.24,0,0,1,395.78,190.54Z"/><path class="cls-58" d="M553.29,186.84c-.69,1.09-1.35.92-2,.39-.12-.09-.17-.53-.09-.59C552,186.06,552.52,186.72,553.29,186.84Z"/><path class="cls-59" d="M481.91,189.46c-.31.1-.71.45-.84-.17-.1-.44-.2-1,.28-1.23.16-.09.58.11.76.29C482.51,188.76,482.42,189.16,481.91,189.46Z"/><path class="cls-57" d="M312.82,189.44c.34.56,0,.8-.26,1a.82.82,0,0,1-1.18-.13c-.3-.3-.42-.74,0-.88A4.44,4.44,0,0,1,312.82,189.44Z"/><path class="cls-60" d="M393,188.07c-.18.55,0,1.34-.91,1.33-.16,0-.47-.24-.47-.37C391.61,188.1,392.37,188.19,393,188.07Z"/><path class="cls-61" d="M285.5,192.41a.5.5,0,0,1-.76-.2A.85.85,0,0,1,285,191c.39-.26.72.08.88.43S285.81,192.16,285.5,192.41Z"/><polygon class="cls-14" points="452.54 0 466.26 44.59 438.44 37.02 438.94 70.12 425.03 24.9 453.24 32.47 452.54 0"/></g></g></svg>